<svg width="965" height="321" viewBox="0 0 965 321" fill="none" xmlns="http://www.w3.org/2000/svg">
<g clip-path="url(#clip0_0_1)">
<path d="M319.024 130.594C329.187 139.242 336.855 153.95 337.58 167.46C339.44 202.081 307.169 227.353 283.065 247.326C281.514 248.611 279.7 249.631 278.24 251.005C280.901 253.951 283.584 256.757 286.068 259.878C296.633 273.149 304.192 289.206 303.241 306.487C302.229 324.859 290.158 341.864 276.889 353.965C275.593 355.148 272.627 357.563 271.2 358.488C273.132 355.802 275.395 353.055 277.416 350.379C281.958 344.362 284.841 339.39 287.942 332.623C286.284 332.861 281.246 332.846 279.352 332.907C274.132 333.107 268.913 333.339 263.696 333.604L240.872 334.67C231.915 335.171 222.651 335.832 213.701 336.108C214.41 342.705 216.239 350.646 219.334 356.555C220.624 359.018 222.718 361.4 223.787 363.972L223.89 364.224C217.68 356.717 214.268 353.44 209.668 344.722C192.324 311.849 216.016 282.634 240.281 261.89C241.974 260.442 253.587 251.436 253.957 250.328L253.398 249.589C253.845 249.885 253.903 249.974 254.436 250.061C255.056 249.676 255.636 249.246 256.21 248.798C259.931 245.899 263.802 243.151 267.28 239.96C296.441 215.758 349.247 180.884 323.061 136.813C321.785 134.666 320.349 132.699 319.024 130.594ZM288.64 330.973C297.692 303.075 285.048 280.649 265.846 261.024C265.302 261.069 264.011 262.229 263.502 262.643C243.238 279.127 215.998 299.345 213.809 327.489L256.495 329.482C267.313 329.927 277.821 330.271 288.64 330.973Z" fill="#4A4A4A"/>
<path d="M223.625 310.784L244.624 311.631C258.746 312.304 273.449 313.083 287.582 313.155L288.226 316.392C287.094 316.498 285.887 316.509 284.745 316.541C270.27 316.754 255.798 317.079 241.328 317.517L227.603 317.729C225.84 317.771 223.036 317.773 221.358 317.981C222.034 315.518 222.815 313.209 223.625 310.784Z" fill="#4A4A4A"/>
<path d="M279.956 293.716L282.779 293.619C283.282 296.007 283.832 298.385 284.429 300.752C269.1 300.57 252.892 300.954 237.603 300.217L232.431 300.093C233.197 298.589 233.992 297.101 234.817 295.628C240.106 295.551 245.52 295.149 250.825 294.912L279.956 293.716Z" fill="#4A4A4A"/>
<path d="M266.179 276.775C268.212 276.627 270.017 276.648 272.046 276.688C273.392 278.824 274.99 281.243 276.176 283.436C270.452 283.382 264.728 283.362 259.003 283.376C255.733 283.344 252.462 283.356 249.191 283.413C250.508 281.442 252.399 279.165 253.882 277.239C258.078 277.142 261.979 276.985 266.179 276.775Z" fill="#4A4A4A"/>
<path d="M278.24 251.005C280.901 253.951 283.584 256.757 286.068 259.878C296.633 273.15 304.192 289.206 303.241 306.487C302.229 324.859 290.158 341.864 276.889 353.966C275.593 355.148 272.627 357.563 271.2 358.488C273.132 355.802 275.395 353.055 277.416 350.379C281.958 344.362 284.841 339.39 287.942 332.623C288.125 332.303 288.482 331.359 288.64 330.973C297.692 303.075 285.048 280.649 265.846 261.024C266.147 260.467 276.838 252.145 278.24 251.005Z" fill="#E1701F"/>
<path d="M285.894 104.595C288.21 106.381 289.829 107.911 291.806 110.016C293.384 111.616 294.917 113.551 296.707 114.916C298.922 116.605 301.782 117.478 304.062 119.078C309.503 122.895 311.599 129.498 312.984 135.659C313.266 136.917 313.589 138.467 313.968 139.7C319.971 144.831 323.583 148.666 324.533 156.946C325.088 161.78 323.737 162.968 323.233 167.042C322.505 172.929 323.214 174.518 319.679 180.131C316.765 185.243 309.422 195.666 304.969 199.635C304.107 200.703 303.052 201.736 302.085 202.725C299.038 206.123 295.664 209.207 292.297 212.289C290.729 213.685 289.049 215.235 287.446 216.563C285.797 217.986 279.801 223.255 278.286 224.13C275.444 226.739 271.346 229.737 268.218 232.074C265.343 230.135 258.467 225.362 257.419 222.177C255.874 217.487 257.269 208.59 258.15 203.592C258.435 201.977 259.347 199.875 259.334 198.236C259.377 194.423 257.512 190.885 256.986 187.143C256.711 185.191 256.512 183.153 256.692 181.186C256.735 179.329 257.656 175.911 257.418 174.156C256.338 166.213 255.855 165.038 259.36 157.637C256.727 150.315 256.551 145.356 257.632 137.786C257.921 135.76 258.011 133.325 258.327 131.141C259.777 129.745 262.596 127.697 264.291 126.404C270.294 121.7 275.85 116.46 280.889 110.75C282.629 108.757 284.299 106.704 285.894 104.595Z" fill="#E1701F"/>
<path d="M285.626 125.279C288.259 125.859 291.394 126.534 292.673 128.983C296.302 135.986 286.783 141.69 280.605 139.901C276.401 138.683 271.638 134.954 267.376 137.549C261.259 141.273 263.803 149.806 265.403 154.947C274.069 155.875 276.883 157.061 279.672 165.703C275.643 162.13 269.647 156.417 264.679 162.188C263.517 163.545 262.945 165.305 263.088 167.08C263.121 167.485 263.194 167.92 263.262 168.322C266.683 167.957 267.03 167.906 270.173 169.019C265.373 172.909 264.231 174.623 263.429 180.921C262.637 187.149 265.093 191.522 265.693 197.426C265.889 199.351 264.678 203.61 264.414 205.872C265.776 205.737 266.921 205.582 268.274 205.364C271.362 207.651 272.255 209.183 273.894 212.607C272.53 211.356 269.75 208.766 267.79 209.011C261.545 209.792 262.991 222.19 266.717 225.158C271.044 228.604 274.093 224.527 278.286 224.13C275.444 226.739 271.346 229.737 268.218 232.074C265.343 230.135 258.467 225.362 257.419 222.177C255.874 217.487 257.269 208.59 258.15 203.592C258.435 201.977 259.347 199.875 259.334 198.236C259.377 194.423 257.512 190.885 256.986 187.143C256.711 185.191 256.512 183.153 256.692 181.186C256.735 179.329 257.656 175.911 257.418 174.156C256.338 166.213 255.855 165.038 259.36 157.637C256.727 150.315 256.551 145.356 257.632 137.786C257.921 135.76 258.011 133.325 258.327 131.141C259.777 129.745 262.596 127.697 264.291 126.404C264.367 127.96 264.315 131.193 265.293 132.275C266.657 132.461 268.576 130.971 271.387 131.505C276.923 132.558 282.802 139.196 288.374 135.326C293.636 131.671 288.77 127.791 285.626 125.279Z" fill="#C34F1C"/>
<path d="M285.894 104.595C288.21 106.381 289.829 107.911 291.806 110.016C293.384 111.616 294.917 113.551 296.707 114.916C298.922 116.605 301.782 117.478 304.062 119.078C309.503 122.895 311.599 129.498 312.984 135.659C313.266 136.917 313.589 138.467 313.968 139.7C319.971 144.831 323.583 148.666 324.533 156.946C325.088 161.78 323.737 162.968 323.233 167.042C322.505 172.929 323.214 174.518 319.679 180.131C319.451 179.647 318.951 176.364 318.879 175.652C318.261 169.516 314.564 165.449 312.309 160.022C313.813 160.584 315.371 161.739 316.989 161.782C317.323 161.635 317.8 161.449 317.897 161.007C319.108 155.502 315.416 148.034 310.609 145.387C307.742 143.809 305.776 149.967 304.776 152.006C302.687 156.265 300.301 157.477 295.962 159.207C296.482 165.127 296.064 166.659 294.657 172.461C297.511 174.937 302.47 177.891 305.726 179.927C298.457 179.956 298.642 178.709 292.081 176.67C284.004 180.571 285.093 182.883 275.803 182.644C276.965 181.993 278.12 181.328 279.266 180.651C284.16 177.753 289.974 173.035 291.449 167.269C292.951 161.402 288.568 155.289 285.555 150.475C287.854 151.621 294.259 155.551 296.766 154.666C299.826 153.355 300.98 148.541 302.423 146.329C306.628 139.843 306.969 137.336 304.156 130.383C300.628 121.662 292.41 123.526 288.377 116.224C286.858 113.475 283.637 111.786 280.889 110.75C282.629 108.757 284.299 106.704 285.894 104.595Z" fill="#C34F1C"/>
<path d="M274.868 196.079C278.583 196.176 279.855 197.295 282.851 199.055C289.026 202.683 297.478 200.085 302.081 195.091C304.284 192.702 305.767 189.586 307.403 186.788C307.058 190.865 305.791 194.894 304.821 198.843C304.751 199.129 304.854 199.382 304.969 199.635C304.107 200.703 303.052 201.736 302.085 202.725C301.07 202.283 296.386 204.153 294.791 204.501C293.294 204.84 291.759 204.985 290.225 204.934C283.889 204.702 279.017 200.458 274.868 196.079Z" fill="#C34F1C"/>
<path d="M287.446 216.563C288.132 213.063 288.855 212.306 289.123 208.403C290.245 209.581 291.301 210.994 292.297 212.289C290.729 213.685 289.049 215.235 287.446 216.563Z" fill="#C34F1C"/>
<path d="M284.26 145.394C285.341 145.356 287.095 145.421 287.909 146.163L287.818 146.484C286.047 147.765 277.758 149.099 275.112 149.688C273.857 150.04 272.494 150.578 271.259 151.035C275.227 147.186 278.85 145.777 284.26 145.394Z" fill="#C34F1C"/>
<path d="M282.105 189.995C283.353 189.882 284.889 189.931 286.167 189.94C283.911 192.096 280.497 193.683 277.648 194.878C276.774 195.254 275.06 195.742 274.091 196.045C276.026 192.191 277.871 190.872 282.105 189.995Z" fill="#C34F1C"/>
<path d="M282.681 212.553L282.806 212.741C282.581 215.443 279.452 217.228 277.256 218.361C274.992 217.81 274.109 217.278 272.371 215.851L271.286 214.562C276.771 216.895 278.477 217.493 282.681 212.553Z" fill="#C34F1C"/>
<path d="M281.511 16.5789C289.963 24.7741 294.498 30.8615 298.313 42.0693C312.258 83.0335 270.77 114.466 243.07 136.704C236.73 141.862 230.47 147.116 224.291 152.462C216.953 158.712 209.524 164.607 203.036 171.766C201.277 173.707 199.377 175.561 197.636 177.522C210.579 193.983 225.898 205.954 242.094 218.99C250.573 225.88 258.969 232.871 267.28 239.96C263.802 243.151 259.931 245.899 256.21 248.798C255.636 249.246 255.056 249.676 254.436 250.061C253.903 249.974 253.845 249.885 253.398 249.589C231.956 229.179 206.949 214.192 187.807 190.801C185.442 195.29 182.796 201.506 181.669 206.415C179.562 215.223 180.655 224.486 184.754 232.572C186.217 235.507 188.722 239.406 190.506 242.225C184.022 235.912 179.477 230.761 176.139 222.021C170.654 207.658 173.552 193.657 179.759 180.17C170.754 164.887 168.265 146.972 174.382 130.193C180.304 113.952 191.594 101.54 205.818 91.8945C210.693 88.5888 214.777 85.9624 220.13 83.4452C216.932 86.3224 213.281 88.8341 210.045 91.8661C199.128 102.094 188.98 114.783 185.085 129.396C181.767 141.513 183.49 154.445 189.868 165.29C198.762 152.926 213.034 141.251 224.912 131.715C233.157 125.165 241.268 118.451 249.241 111.577C263.895 98.8797 278.788 85.0572 286.848 66.9716C288.812 62.5629 289.865 57.3381 290.779 52.6226C291.242 51.3819 291.287 44.8124 291.03 43.3475C290.136 36.5154 289.571 31.4474 286.287 25.0964C284.808 22.2362 282.911 19.3196 281.511 16.5789Z" fill="#E1701F"/>
<path d="M245.544 142.036C247.311 140.344 249.465 138.537 251.341 136.943C252.07 141.404 252.71 145.322 251.831 149.871C251.387 152.17 250.267 155.084 250.402 157.362C250.578 160.352 252.386 163.313 252.782 166.309C253.121 168.875 251.051 171.316 251.111 173.612C251.208 177.36 253.052 180.571 252.832 184.484C252.585 188.882 249.932 192.589 249.931 196.88C249.93 199.127 250.86 202.276 251.292 204.564C252.295 209.877 252.217 214.346 251.435 219.638C250.405 218.819 245.401 214.808 244.827 213.985C243.305 213.018 240.588 210.54 239.208 209.314L237.561 207.907C234.782 205.483 231.395 202.823 228.511 200.41L225.997 198.231C219.687 192.641 213.628 186.777 207.838 180.657C206.87 179.598 206.067 178.705 205.18 177.582C206.063 176.597 206.766 175.869 207.72 174.952C208.954 173.463 211.199 171.444 212.646 170.081C214.166 168.671 215.695 167.272 217.233 165.882C226.459 157.69 235.899 149.738 245.544 142.036Z" fill="#E1701F"/>
<path d="M245.544 142.036C247.311 140.344 249.465 138.537 251.341 136.943C252.07 141.404 252.71 145.322 251.831 149.871C251.387 152.17 250.267 155.084 250.402 157.362C250.578 160.352 252.386 163.313 252.782 166.309C253.121 168.875 251.051 171.316 251.111 173.612C251.208 177.36 253.052 180.571 252.832 184.484C252.585 188.882 249.932 192.589 249.931 196.88C249.93 199.127 250.86 202.276 251.292 204.564C252.295 209.877 252.217 214.346 251.435 219.638C250.405 218.819 245.401 214.808 244.827 213.985C243.305 213.018 240.588 210.54 239.208 209.314L237.561 207.907C240.176 206.025 241.655 205.659 244.817 205.385C244.137 202.874 243.368 200.447 243.361 197.828C243.329 195.476 244.223 193.28 244.842 191.037C246.217 186.054 246.56 180.471 244.387 175.653C243.163 172.941 241.223 171.169 238.861 169.448C239.93 168.785 240.646 168.378 241.772 167.82C243.36 168.029 244.41 168.224 245.971 168.587C246.01 164.75 245.089 160.422 240.322 160.246C236.013 160.088 231.828 163.89 228.789 166.532C232.194 157.425 234.761 156.71 244.045 155.283C244.726 151.619 245.9 145.59 245.544 142.036Z" fill="#C34F1C"/>
<path d="M239.208 209.314C242.161 207.941 245.606 211.6 244.827 213.985C243.305 213.018 240.588 210.54 239.208 209.314Z" fill="#E1701F"/>
<path d="M212.646 170.081C214.166 168.671 215.695 167.272 217.233 165.882C217.53 167.253 218.06 170.062 218.629 171.221C219.288 172.565 222.259 174.213 223.3 175.282C224.86 176.886 225.525 178.477 227.545 179.729C229.25 180.785 231.636 181.549 233.182 182.676C229.945 182.717 227.001 182.815 224.093 181.112C221.658 179.685 219.619 177.914 216.853 177.123C214.262 177.888 210.226 179.409 207.838 180.657C206.87 179.598 206.067 178.705 205.18 177.582C206.063 176.597 206.766 175.869 207.72 174.952C208.954 173.463 211.199 171.444 212.646 170.081Z" fill="#C34F1C"/>
<path d="M212.646 170.081L213.855 172.475C212.145 173.647 209.9 175.447 207.72 174.952C208.954 173.463 211.199 171.444 212.646 170.081Z" fill="#E1701F"/>
<path d="M222.998 189.573C229.804 189.613 233.323 190.286 236.337 197.069L233.73 196.096C231.812 197.289 229.857 198.554 228.511 200.41L225.997 198.231C227.704 198.076 230.185 196.523 231.558 195.521C229.055 193.664 225.045 191.393 222.998 189.573Z" fill="#C34F1C"/>
<path d="M208.906 23.7271C209.172 25.7958 209.312 28.0353 209.606 30.2304C210.432 36.3799 211.756 40.9075 213.824 46.6981C215.717 46.4455 219.544 46.4065 221.514 46.3511L232.765 45.9683L273.8 44.5242L284.352 44.1435C286.009 44.0831 289.327 44.0205 290.862 43.7339L291.03 43.3475C291.287 44.8124 291.242 51.3819 290.78 52.6226C285.268 52.5344 279.535 52.1573 274.002 51.9336L241.097 50.7046C236.265 50.5088 231.429 50.3939 226.592 50.36C223.947 50.3344 218.089 50.3525 215.673 50.0084C217.972 54.6905 220.814 59.09 224.143 63.1171C229.115 63.2337 234.782 62.9441 239.773 62.7502L260.379 62.0597C266.698 61.8994 273.019 61.9107 279.336 61.7427C280.604 61.7092 281.877 61.715 283.133 61.5259C282.302 64.1177 281.352 66.2723 280.294 68.7723C275.292 68.2607 267.687 68.389 262.446 68.2236C251.085 67.8647 239.506 67.4037 228.151 67.5786C229.702 69.4322 231.354 71.2002 233.1 72.8745C235.322 74.9919 238.02 77.7135 240.904 78.8409C245.448 80.6176 267.54 78.9116 274.027 78.7713C272.017 81.3784 270.25 83.2266 267.923 85.5572C262.198 85.6698 256.13 86.1263 250.228 86.2608C252.497 88.544 257.087 92.0676 259.708 94.3468C258.094 96.2113 253.76 99.9641 251.735 101.913C236.444 87.7606 218.337 78.2021 211.63 57.1344C207.831 45.2019 207.513 36.0928 208.906 23.7271Z" fill="#4A4A4A"/>
<path d="M187.111 206.838C187.61 204.89 188.064 203.143 188.788 201.253C191.816 204.151 194.811 207.082 197.773 210.045C198.606 210.846 199.431 211.683 200.341 212.392L207.225 218.461C209.976 220.72 212.707 223.003 215.417 225.31C224.187 232.602 233.284 239.467 242.071 246.905C243.251 247.864 244.452 248.941 245.605 249.941C240.147 256.393 234.642 260.096 226.051 257.73C215.579 254.846 213.31 251.932 208.115 243.143C196.36 240.017 192.722 233.986 191.3 222.416C189.903 220.729 187.499 218.587 185.819 216.68C185.743 213.217 186.449 210.212 187.111 206.838Z" fill="#C34F1C"/>
<path d="M200.341 212.392L207.225 218.461C209.976 220.72 212.707 223.003 215.417 225.31C224.187 232.602 233.284 239.466 242.071 246.905C236.998 251.998 231.217 252.485 224.629 250.159C217.722 247.72 215.537 242.168 212.702 236.023C205.196 235.877 200.182 233.386 198.369 225.516C197.233 220.584 197.626 216.725 200.341 212.392Z" fill="#E1701F"/>
<path d="M207.225 218.461C209.976 220.72 212.707 223.003 215.417 225.31C213.472 225.624 209.856 225.596 208.441 224.088C207.038 222.593 207.204 220.346 207.225 218.461Z" fill="#C34F1C"/>
<path d="M187.111 206.838C187.61 204.89 188.064 203.143 188.788 201.253C191.816 204.151 194.811 207.082 197.773 210.045C196.712 211.642 195.553 213.172 194.301 214.627C192.052 213.104 190.488 212.025 188.976 209.712C188.359 208.77 187.911 207.88 187.226 206.984L187.111 206.838Z" fill="#E1701F"/>
<path d="M195.556 138.63C195.88 137.243 196.115 135.823 196.394 134.443C197.892 127.037 201.641 119.603 209.127 116.727C211.302 115.891 213.309 114.888 214.762 112.988C218.601 108.042 223.531 103.936 229.963 103.129C236.416 102.319 240.101 104.264 244.956 108.043C243.091 109.457 241.485 110.765 239.696 112.274C234.533 116.503 229.343 120.7 224.127 124.865C221.648 126.985 217.956 130.332 215.406 132.196L203.431 142.742C202.261 143.846 201.06 145.014 199.861 146.078C198.466 147.561 197.204 148.708 195.7 150.072C194.615 151.41 192.624 152.997 191.227 154.738C190.112 151.525 189.164 148.817 188.792 145.388C190.421 142.847 193.361 140.838 195.556 138.63Z" fill="#C34F1C"/>
<path d="M203.431 142.742C201.925 138.47 204.187 131.974 206.366 128.283C209.469 123.027 213.253 123.224 217.949 120.288C218.846 119.728 220.072 117.579 220.708 116.599C222.723 113.45 225.916 111.224 229.585 110.41C233.264 109.607 236.547 110.293 239.696 112.274C234.533 116.503 229.343 120.7 224.127 124.865C221.648 126.985 217.956 130.332 215.406 132.196L203.431 142.742Z" fill="#E1701F"/>
<path d="M215.406 132.196C216.412 127.428 218.747 124.027 224.127 124.865C221.648 126.985 217.956 130.332 215.406 132.196Z" fill="#C34F1C"/>
<path d="M195.7 150.072C194.869 148.291 197.805 145.811 199.861 146.078C198.466 147.561 197.204 148.708 195.7 150.072Z" fill="#E1701F"/>
<path d="M317.705 224.013C318.794 225.891 315.973 231.827 314.924 233.582C311.681 239.012 307.869 241.526 301.824 243.079C297.672 249.225 296.095 250.969 290.217 255.543L288.433 253.862L286.289 251.827C287.389 250.79 289.714 249.061 290.977 248.036C293.795 245.727 296.593 243.394 299.37 241.037C305.686 235.582 311.801 229.904 317.705 224.013Z" fill="#C34F1C"/>
<path d="M308.562 187.375H257.188V171H308.562V187.375ZM315.812 150.625H250.688V224H234.438V142.562C234.438 141.438 234.646 140.375 235.062 139.375C235.479 138.375 236.042 137.5 236.75 136.75C237.5 136 238.375 135.417 239.375 135C240.375 134.583 241.458 134.375 242.625 134.375H315.812V150.625ZM415.625 224H399.375V202H342.25V224H326V179.188C326 172.646 327.125 166.625 329.375 161.125C331.625 155.625 334.75 150.896 338.75 146.938C342.75 142.979 347.479 139.896 352.938 137.688C358.396 135.479 364.354 134.375 370.812 134.375H407.438C408.562 134.375 409.625 134.583 410.625 135C411.625 135.417 412.5 136 413.25 136.75C414 137.5 414.583 138.375 415 139.375C415.417 140.375 415.625 141.438 415.625 142.562V224ZM342.25 185.75H399.375V150.625H370.812C370.312 150.625 369.25 150.708 367.625 150.875C366.042 151 364.188 151.354 362.062 151.938C359.979 152.521 357.771 153.417 355.438 154.625C353.104 155.833 350.958 157.5 349 159.625C347.042 161.75 345.417 164.417 344.125 167.625C342.875 170.792 342.25 174.646 342.25 179.188V185.75ZM511.25 139.25C511.875 140.708 512.062 142.25 511.812 143.875C511.562 145.458 510.896 146.812 509.812 147.938L456.188 207.75H511.125V224H437.875C436.292 224 434.812 223.562 433.438 222.688C432.104 221.771 431.104 220.583 430.438 219.125C429.729 217.667 429.5 216.146 429.75 214.562C430.042 212.979 430.708 211.604 431.75 210.438L485.5 150.625H430.438V134.375H503.812C505.396 134.375 506.854 134.833 508.188 135.75C509.562 136.625 510.583 137.792 511.25 139.25ZM599.625 187.375H548.312V171H599.625V187.375ZM606.938 224H548.312C546.062 224 543.604 223.604 540.938 222.812C538.271 222.021 535.792 220.729 533.5 218.938C531.25 217.104 529.354 214.75 527.812 211.875C526.312 208.958 525.562 205.396 525.562 201.188V142.562C525.562 141.438 525.771 140.375 526.188 139.375C526.604 138.375 527.167 137.5 527.875 136.75C528.625 136 529.5 135.417 530.5 135C531.5 134.583 532.583 134.375 533.75 134.375H606.938V150.625H541.812V201.188C541.812 203.312 542.375 204.938 543.5 206.062C544.625 207.188 546.271 207.75 548.438 207.75H606.938V224ZM712.25 217.062C712.25 218.229 712.021 219.312 711.562 220.312C711.146 221.312 710.562 222.188 709.812 222.938C709.104 223.646 708.25 224.208 707.25 224.625C706.25 225.042 705.188 225.25 704.062 225.25C703.062 225.25 702.042 225.062 701 224.688C700 224.312 699.104 223.708 698.312 222.875L638.938 160.875V224H622.688V141.312C622.688 139.646 623.146 138.146 624.062 136.812C625.021 135.438 626.229 134.417 627.688 133.75C629.229 133.125 630.812 132.979 632.438 133.312C634.062 133.604 635.458 134.354 636.625 135.562L696 197.5V134.375H712.25V217.062ZM819.125 224H802.875V202H745.75V224H729.5V179.188C729.5 172.646 730.625 166.625 732.875 161.125C735.125 155.625 738.25 150.896 742.25 146.938C746.25 142.979 750.979 139.896 756.438 137.688C761.896 135.479 767.854 134.375 774.312 134.375H810.938C812.062 134.375 813.125 134.583 814.125 135C815.125 135.417 816 136 816.75 136.75C817.5 137.5 818.083 138.375 818.5 139.375C818.917 140.375 819.125 141.438 819.125 142.562V224ZM745.75 185.75H802.875V150.625H774.312C773.812 150.625 772.75 150.708 771.125 150.875C769.542 151 767.688 151.354 765.562 151.938C763.479 152.521 761.271 153.417 758.938 154.625C756.604 155.833 754.458 157.5 752.5 159.625C750.542 161.75 748.917 164.417 747.625 167.625C746.375 170.792 745.75 174.646 745.75 179.188V185.75Z" fill="#E6DFDA"/>
</g>
<defs>
<clipPath id="clip0_0_1">
<rect width="965" height="321" rx="24" fill="white"/>
</clipPath>
</defs>
</svg>
