<?xml version="1.0" encoding="utf-8" ?><svg xmlns="http://www.w3.org/2000/svg" xmlns:xlink="http://www.w3.org/1999/xlink" width="138" height="37" viewBox="0 0 138 37"><path transform="scale(0.0705882 0.0722656)" d="M48.9072 0L1905.88 0C1935.1 7.00667 1948.63 20.6294 1955 49.9661L1955 462.079C1948.33 491.232 1935.11 505.264 1906.03 512L49.0653 512C20.2458 505.436 6.91551 491.861 0 462.95L0 49.0752C6.40651 20.3285 20.1382 6.97913 48.9072 0Z"/><path fill="#E4DFDB" transform="scale(0.0705882 0.0722656)" d="M1707.6 147.5L1766.06 147.336C1781.18 147.304 1814.29 142.516 1815.27 164.437C1816.13 183.747 1815.51 203.836 1815.51 223.254L1815.55 356.21L1777.66 356.212L1777.68 304.786L1715.88 304.782L1644.74 304.788L1644.75 356.214L1607.02 356.216L1606.93 289.128C1606.9 249.005 1603.56 214.17 1632.14 181.51C1652.39 158.369 1677.74 149.561 1707.6 147.5Z"/><path transform="scale(0.0705882 0.0722656)" d="M1705.67 185.668C1710.52 184.966 1725.12 185.209 1730.43 185.211L1777.68 185.283L1777.68 267.062L1717.78 267.05L1644.74 267.076C1644.19 221.642 1654.59 192.028 1705.67 185.668Z"/><path fill="#E4DFDB" transform="scale(0.0705882 0.0722656)" d="M768.779 147.502L826.426 147.349C837.399 147.331 862.951 145.189 870.612 152.747C873.619 155.684 875.546 159.551 876.08 163.721C877.267 172.516 876.471 212.855 876.469 224.045L876.426 356.209L838.823 356.213L838.842 304.787L777.513 304.782L705.635 304.788L705.651 356.217L667.931 356.213L667.877 287.783C667.868 247.751 664.659 213.974 693.282 181.253C713.323 158.343 739.183 149.457 768.779 147.502Z"/><path transform="scale(0.0705882 0.0722656)" d="M766.847 185.656C770.836 185.002 786.453 185.196 791.054 185.199L838.83 185.285L838.834 267.064L779.423 267.05L705.63 267.08C705.105 221.62 715.997 191.518 766.847 185.656Z"/><path fill="#E4DFDB" transform="scale(0.0705882 0.0722656)" d="M1376 144.423C1387.03 144.95 1390.74 150.017 1397.95 157.493C1409.83 169.816 1421.52 182.331 1433.34 194.717L1529.09 294.595L1529.08 147.438L1566.78 147.469L1566.83 277.654C1566.86 299.164 1567.29 320.929 1566.43 342.396C1566.03 352.479 1557.55 357.245 1548.89 359.131C1545.26 358.694 1540.23 358.341 1537.6 355.933C1522.31 341.935 1506.76 324.566 1492.44 309.559L1396.35 209.328L1396.34 356.216L1358.39 356.204L1358.33 228.454C1358.31 208.296 1358.26 188.141 1358.4 167.983C1358.5 154.575 1362.26 147.557 1376 144.423Z"/><path fill="#E4DFDB" transform="scale(0.0705882 0.0722656)" d="M910.962 147.434L1030.78 147.449C1047.96 147.448 1066.64 147.018 1083.79 147.864C1087.34 148.039 1091.37 149.98 1094.1 152.331C1097.88 155.622 1100.19 160.289 1100.5 165.291C1100.71 168.841 1099.79 173.489 1097.58 176.217C1085.39 191.28 1071.13 206.545 1058.18 220.972L971.05 318.206L1098.74 318.207L1098.71 356.216L984.466 356.234C971.463 356.235 925.419 358.433 917.288 352.438C912.988 349.223 910.135 344.435 909.352 339.121C907.638 326.839 934.674 301.411 943.668 291.427L1005.93 222.322C1015 212.256 1030.89 195.575 1038.7 185.288L910.962 185.282L910.962 147.434Z"/><path fill="#E4DFDB" transform="scale(0.0705882 0.0722656)" d="M1149.07 147.516C1205.85 146.653 1264.84 147.48 1321.8 147.472L1321.8 185.283L1170.22 185.278L1170.11 262.944C1170.06 325.579 1163.68 318.704 1225.22 318.212L1321.81 318.208L1321.8 356.217L1229.7 356.246C1178.92 356.256 1130.88 362.956 1132.31 291.855C1133.16 249.859 1131.06 205.977 1132.76 163.867C1133.14 154.524 1140.86 149.498 1149.07 147.516Z"/><path fill="#E4DFDB" transform="scale(0.0705882 0.0722656)" d="M472.244 147.491L644.298 147.482L644.299 185.283L492.609 185.276L492.593 221.134L492.604 356.207L454.865 356.217L454.804 227.168C454.802 206.494 454.486 185.675 455.16 165.03C455.503 154.561 462.789 149.384 472.244 147.491Z"/><defs><linearGradient id="gradient_0" gradientUnits="userSpaceOnUse" x1="326.67676" y1="285.323" x2="303.90393" y2="198.57962"><stop offset="0" stop-color="#AA341E"/><stop offset="1" stop-color="#E17426"/></linearGradient></defs><path fill="url(#gradient_0)" transform="scale(0.0705882 0.0722656)" d="M309.377 129.421C315.686 133.83 318.112 138.431 321.287 140.799C337.256 152.708 342.588 152.389 346.397 173.72C346.585 174.751 346.743 175.786 346.872 176.825C355.313 184.331 360.957 190.368 361.744 202.598C362.322 211.595 359.401 225.235 355.073 233.162C348.752 242.839 344.471 249.634 336.351 258.075C334.127 260.852 332.115 263.609 329.31 265.803C319.923 275.39 295.98 296.899 284.869 304.21C279.96 300.389 274.62 296.519 270.476 291.91C270.412 287.653 270.253 283.047 270.419 278.822C270.674 272.916 273.261 261.624 273.035 258.208C271.975 242.183 266.348 217.141 273.54 202.384C268.965 187.211 270.339 180.982 272.068 165.628L279.02 160.166C287.362 153.538 295.974 144.795 303.361 137.083L309.377 129.421Z"/><path fill="#E27827" transform="scale(0.0705882 0.0722656)" d="M303.361 137.083C307.369 139.031 308.988 139.901 311.809 143.468C319.386 153.045 331.027 154.812 335.828 167.461C339.526 177.199 330.825 192.384 323.813 198.901C319.509 197.215 316.752 196.343 313.187 193.294L312.09 191.735L309.32 191.469C307.63 193.287 308 192.41 307.961 195.01C309.111 196.179 310.292 197.339 311.352 198.589C309.278 202.722 302.491 203.628 298.249 202.894C296.497 202.59 296.456 200.258 293.086 200.07C289.452 198.878 285.187 198.744 281.34 198.468C265.723 150.083 313.697 193.066 319.433 168.422C320.233 164.989 316.214 158.51 312.095 158.315C315.191 162.981 316.896 165.543 314.392 170.807C306.423 177.737 299.543 169.213 291.776 166.681C290.143 166.148 282.871 166.816 280.797 167.004C279.172 165.338 279.254 162.577 279.02 160.166C287.362 153.538 295.974 144.795 303.361 137.083Z"/><path fill="#B9551E" transform="scale(0.0705882 0.0722656)" d="M308.103 184.693C310.344 184.73 310.686 184.714 312.619 185.818L312.08 186.883C307.735 188.638 300.91 189.645 296.14 190.523L293.417 191.025L293.432 189.804C298.712 185.637 301.484 185.073 308.103 184.693Z"/><path fill="#B63A1A" transform="scale(0.0705882 0.0722656)" d="M309.377 129.421C315.686 133.83 318.112 138.431 321.287 140.799C337.256 152.708 342.588 152.389 346.397 173.72C346.585 174.751 346.743 175.786 346.872 176.825C355.313 184.331 360.957 190.368 361.744 202.598C362.322 211.595 359.401 225.235 355.073 233.162C354.925 229.246 354.641 226.62 353.554 222.847C352.669 219.776 346.522 209.253 347.144 206.512L352.272 207.381L353.667 206.238C354.513 201.077 349.497 186.735 344.295 184.99C337.264 186.396 335.902 194.35 331.623 199.494C330.667 200.644 326.088 203.212 324.658 203.995C324.186 204.686 322.382 219.418 321.656 222.366C325.566 225.789 334.266 231.231 338.932 234.312C329.522 232.765 326.157 231.737 317.725 228.06C312.967 231.398 303.331 238.565 297.554 237.003L297.376 235.963C300.079 232.38 307.015 228.266 310.658 225.756C325.85 215.287 310.18 196.431 310.728 193.266L313.187 193.294C316.752 196.343 319.509 197.215 323.813 198.901C330.825 192.384 339.526 177.199 335.828 167.461C331.027 154.812 319.386 153.045 311.809 143.468C308.988 139.901 307.369 139.031 303.361 137.083L309.377 129.421Z"/><path fill="#B63A1A" transform="scale(0.0705882 0.0722656)" d="M279.02 160.166C279.254 162.577 279.172 165.338 280.797 167.004C282.871 166.816 290.143 166.148 291.776 166.681C299.543 169.213 306.423 177.737 314.392 170.807C316.896 165.543 315.191 162.981 312.095 158.315C316.214 158.51 320.233 164.989 319.433 168.422C313.697 193.066 265.723 150.083 281.34 198.468C285.187 198.744 289.452 198.878 293.086 200.07L293.294 200.385C296.262 204.819 297.914 204.745 300.389 210.381L299.462 210.886C291.733 206.605 285.036 200.729 278.17 210.213C277.731 213.239 277.479 212.084 279.498 214.821C281.836 215.828 283.779 216.646 286.21 217.479C286.093 220.757 279.385 222.562 278.66 231.968C277.945 241.247 280.53 245.996 281.677 255.002C281.894 256.707 280.566 265.421 280.327 267.889C284.89 268.603 286.635 268.248 289.745 271.042L290.226 273.073C285.557 274.929 281.683 271.927 280.277 275.021C278.64 278.621 276.642 286.671 277.713 290.608C279.037 295.475 285.462 294.941 287.359 298.755C285.71 301.042 286.291 301.018 284.099 301.592C274.482 297.505 272.686 287.192 270.419 278.822C270.674 272.916 273.261 261.624 273.035 258.208C271.975 242.183 266.348 217.141 273.54 202.384C268.965 187.211 270.339 180.982 272.068 165.628L279.02 160.166Z"/><path fill="#B63A1A" transform="scale(0.0705882 0.0722656)" d="M292.664 252.404C304.418 258.437 314.86 266.934 328.035 256.815C333.742 252.432 335.873 248.172 339.379 242.097C338.152 246.769 336.006 253.445 336.351 258.075C334.127 260.852 332.115 263.609 329.31 265.803C325.963 265.287 318.327 267.424 314.661 268.262C303.518 264.551 299.788 261.241 292.664 252.404Z"/><path fill="#B63A1A" transform="scale(0.0705882 0.0722656)" d="M302.893 246.319C305.711 246.444 305.933 245.986 307.905 247.469C306.8 249.733 301.128 252.158 298.584 253.468C296.836 253.736 296.502 253.738 294.738 253.573L294.554 252.13C297.25 249.063 299.272 248.22 302.893 246.319Z"/><path fill="#B63A1A" transform="scale(0.0705882 0.0722656)" d="M304.647 278.086C303.503 287.057 297.249 286.603 290.831 283.352L290.747 282.865L291.49 282.122L296.852 283.438C299.947 282.993 302.262 280.283 304.647 278.086Z"/><path fill="#E27827" transform="scale(0.0705882 0.0722656)" d="M306.659 10.2455C352.449 62.1519 324.146 109.902 278.797 148.978C248.708 174.904 214.559 200.038 187.833 229.192C191.551 234.053 201.111 243.88 203.438 247.74C229.865 272.164 257.167 292.496 283.33 315.928C277.905 321.345 271.504 325.219 266.706 329.866C252.316 316.934 237.379 305.142 222.589 292.759C217.504 288.502 203.098 276.908 199.378 272.148C190.674 265.662 181.272 255.146 174.784 246.404C166.159 265.475 160.924 277.968 167.83 299.151L163.8 300.083C163.503 299.521 163.218 298.953 162.943 298.38C150.049 271.658 155.657 257.501 164.414 232.339C167.117 225.746 173.252 218.297 177.785 212.837C219.863 162.31 306.859 120.251 317.086 54.4271L316.95 44.8046C316.228 29.5504 313.11 24.0663 306.659 10.2455Z"/><path fill="#E88C3F" transform="scale(0.0705882 0.0722656)" d="M187.145 231.566C190.21 235.884 198.359 247.416 203.438 247.74C229.865 272.164 257.167 292.496 283.33 315.928C277.905 321.345 271.504 325.219 266.706 329.866C252.316 316.934 237.379 305.142 222.589 292.759C217.504 288.502 203.098 276.908 199.378 272.148C197.457 266.324 182.772 254.742 177.741 247.066C177.694 244.098 184.914 234.771 187.145 231.566Z"/><path fill="#4C4D4A" transform="scale(0.0705882 0.0722656)" d="M355.959 165.853C418.274 230.939 348.954 290.312 298.261 331.081C292.958 335.463 287.443 340.231 281.78 344.089C250.112 368.954 216.013 395.332 209.8 437.112C218.83 437.486 247.227 437.961 254.261 439.169C247.858 438.96 242.721 438.145 237.79 442.736C238.839 447.123 245.621 446.082 249.335 446.247C241.494 447.582 218.797 447.911 209.793 448.235C211.876 463.407 214.03 469.342 221.019 482.818C220.064 481.817 219.145 480.783 218.263 479.717C166.989 417.889 218.449 369.714 266.706 329.866C271.504 325.219 277.905 321.345 283.33 315.928C286.687 314.908 296.989 306.086 300.187 303.345C322.856 283.916 347.67 264.439 362.237 237.757C376.4 211.816 371.506 189.025 355.959 165.853Z"/><path fill="#E4DFDB" transform="scale(0.0705882 0.0722656)" d="M507.773 232.841L627.307 232.837L627.297 270.858L507.787 270.878L507.773 232.841Z"/><path fill="#E4DFDB" transform="scale(0.0705882 0.0722656)" d="M1185.35 232.825L1304.81 232.834L1304.81 270.873L1185.36 270.862L1185.35 232.825Z"/><path fill="#E88C3F" transform="scale(0.0705882 0.0722656)" d="M254.304 180.657C256.944 178.352 259.338 176.193 262.213 174.178C263.002 186.417 262.721 189.805 259.543 201.62C260.72 205.275 262.563 210.473 263.4 214.078C257.974 233.15 267.28 232.134 258.965 254.324C261.187 266.86 262.891 274.048 262.343 286.963C255.477 281.268 248.673 275.5 241.931 269.658C238.525 267.088 234.23 263.147 230.916 260.284L227.718 257.617C219.215 250.082 210.918 242.317 202.835 234.332C202.092 233.29 200.442 231.37 200.5 230.358C200.756 225.835 210.942 218.11 214.738 214.621C225.491 204.088 242.421 190.594 254.304 180.657Z"/><path fill="#D96A1D" transform="scale(0.0705882 0.0722656)" d="M254.304 180.657C256.944 178.352 259.338 176.193 262.213 174.178C263.002 186.417 262.721 189.805 259.543 201.62C260.72 205.275 262.563 210.473 263.4 214.078C257.974 233.15 267.28 232.134 258.965 254.324C261.187 266.86 262.891 274.048 262.343 286.963C255.477 281.268 248.673 275.5 241.931 269.658C244.746 269.211 249.587 268.791 251.626 267.107C252.636 264.635 250.843 260.644 249.933 257.891C254.125 243.265 256.556 241.09 252.386 225.345C250.361 223.309 247.507 221.07 247.286 218.367C250.267 214.865 251.837 217.513 255.94 214.632C255.634 208.78 248.299 203.597 242.607 205.855C239.754 206.987 236.283 209.709 233.735 211.57L233.211 210.715C233.877 201.487 244.956 199.825 252.527 199.318C253.613 192.124 254.141 187.905 254.304 180.657Z"/><path fill="#D96A1D" transform="scale(0.0705882 0.0722656)" d="M214.738 214.621C219.112 226.777 232.937 232.304 233.701 236.59C228.501 238.16 219.716 231.323 215.494 228.456C212.19 229.846 205.513 232.411 202.835 234.332C202.092 233.29 200.442 231.37 200.5 230.358C200.756 225.835 210.942 218.11 214.738 214.621Z"/><path fill="#D96A1D" transform="scale(0.0705882 0.0722656)" d="M221.649 244.933C227.486 245.605 236.279 247.221 240.291 251.929C241.878 257.448 235.735 256.278 230.916 260.284L227.718 257.617C230.864 256.118 231.567 256.463 232.844 253.785C231.575 250.911 225.221 247.773 221.649 244.933Z"/><path fill="#D96A1D" transform="scale(0.0705882 0.0722656)" d="M174.226 270.605L175.851 265.85C180.207 263.726 185.012 271.645 188.362 274.821L190.712 277.301C209.456 294.161 229.794 310.204 249.413 326.115C250.334 326.719 251.372 328.093 252.12 328.977C251.455 338.778 232.442 342.315 224.449 339.087C212.877 334.413 208.783 330.51 203.048 319.784C186.237 314.223 182.375 308.128 179.924 290.499L172.65 283.254L174.226 270.605Z"/><path fill="#B9551E" transform="scale(0.0705882 0.0722656)" d="M174.226 270.605L175.851 265.85C180.207 263.726 185.012 271.645 188.362 274.821L190.712 277.301C188.588 285.434 186.566 293.204 190.621 301.565C192.638 307.745 205.297 308.585 207.788 310.993C214.527 317.507 218.704 329.58 229.464 332.135C235.559 333.582 244.85 330.081 249.413 326.115C250.334 326.719 251.372 328.093 252.12 328.977C251.455 338.778 232.442 342.315 224.449 339.087C212.877 334.413 208.783 330.51 203.048 319.784C186.237 314.223 182.375 308.128 179.924 290.499L172.65 283.254L174.226 270.605Z"/><path fill="#E27827" transform="scale(0.0705882 0.0722656)" d="M174.226 270.605L175.851 265.85C180.207 263.726 185.012 271.645 188.362 274.821C186.139 278.597 185.84 279.482 181.655 279.339C178.567 277.591 176.275 273.62 174.226 270.605Z"/><path fill="#D96A1D" transform="scale(0.0705882 0.0722656)" d="M298.261 331.081C318.208 352.633 333.359 375.358 332.484 405.954C331.76 431.276 313.735 461.233 293.137 475.298C309.937 453.428 320.601 436.147 317.055 407.122C313.922 381.481 299.342 362.187 281.78 344.089C287.443 340.231 292.958 335.463 298.261 331.081Z"/><defs><linearGradient id="gradient_1" gradientUnits="userSpaceOnUse" x1="248.58327" y1="61.663925" x2="221.04597" y2="84.509361"><stop offset="0" stop-color="#5D4B3E"/><stop offset="1" stop-color="#424748"/></linearGradient></defs><path fill="url(#gradient_1)" transform="scale(0.0705882 0.0722656)" d="M262.507 124.419C228.331 96.4681 197.684 73.9238 203.976 24.4282C205.732 33.8231 207.216 39.6705 210.191 48.7194C221.367 48.6345 232.266 47.7769 243.886 47.7731C243.515 49.2742 242.678 52.2537 242.478 53.6464C233.286 53.4361 222.065 52.9321 212.992 53.2461C217.031 60.9071 219.367 64.767 224.601 71.7073C233.499 71.4137 247.763 70.5 256.28 70.7969C250.27 72.0538 248.844 71.049 246.925 77.3667C242.373 77.6009 234.223 77.2397 229.404 77.1831C235.748 83.6848 242.152 90.1932 250.101 94.7075C260.352 94.5934 277.562 92.0469 286.686 94.3495L287.724 96.2461C286.575 105.06 266.498 103.065 258.89 103.208L273.346 114.632C270.051 117.128 265.639 121.497 262.507 124.419Z"/><path fill="#E27827" transform="scale(0.0705882 0.0722656)" d="M186.209 176.403C189.983 154.011 193.582 153.132 211.664 140.817C215.556 137.529 219.135 132.223 223.669 129.853C230.813 126.118 245.997 124.783 250.722 132.776C250.073 136.211 249.224 136.005 246.152 138.819C228.848 151.711 212.767 165.807 196.771 180.261C190.617 185.549 185.33 191.087 179.684 196.879C178.583 193.387 177.518 188.505 176.608 184.852C178.809 182.36 183.497 178.668 186.209 176.403Z"/><path fill="#E88C3F" transform="scale(0.0705882 0.0722656)" d="M216.532 151C223.496 138.451 232.25 132.388 246.152 138.819C228.848 151.711 212.767 165.807 196.771 180.261C194.901 176.537 196.051 169.15 197.977 165.5C202.513 156.905 207.905 154.17 216.532 151Z"/><path fill="#D96A1D" transform="scale(0.0705882 0.0722656)" d="M164.414 232.339C163.743 231.248 163.097 230.14 162.477 229.018C152.296 210.612 149.815 188.919 155.576 168.687C164.005 139.574 187.485 117.318 213.375 103.061C193.745 121.435 174.81 140.735 169.544 168.366C166.759 182.982 169.242 200.464 177.785 212.837C173.252 218.297 167.117 225.746 164.414 232.339Z"/><path fill="#4C4D4A" transform="scale(0.0705882 0.0722656)" d="M316.95 44.8046L317.086 54.4271C308.981 57.0436 278.124 55.8189 269.141 54.5869C260.365 54.4308 251.276 53.971 242.478 53.6464C242.678 52.2537 243.515 49.2742 243.886 47.7731C253.54 47.175 263.207 46.8196 272.878 46.7071C279.135 45.3084 308.21 45.2245 316.95 44.8046Z"/><path fill="#D96A1D" transform="scale(0.0705882 0.0722656)" d="M272.878 46.7071C276.787 46.7649 281.414 46.3733 284.479 48.6636L285.359 50.3899C281.099 55.6586 275.31 54.3478 269.141 54.5869C260.365 54.4308 251.276 53.971 242.478 53.6464C242.678 52.2537 243.515 49.2742 243.886 47.7731C253.54 47.175 263.207 46.8196 272.878 46.7071Z"/><path fill="#4C4D4A" transform="scale(0.0705882 0.0722656)" d="M274.773 391.223C283.053 390.711 298.102 388.243 304.551 392.452C306.303 394.677 307.724 397.103 305.495 399.399C297.591 400.605 276.426 399.6 267.047 399.454C260.457 399.435 241.308 400.269 237.293 396.55C241.164 391.44 267.77 391.491 274.773 391.223Z"/><path fill="#4C4D4A" transform="scale(0.0705882 0.0722656)" d="M258.152 422.394C250.79 423.591 226.469 425.386 221.53 419.655C223.891 410.976 252.489 414.382 259.925 415.33C267.883 415.824 276.533 416.524 284.444 416.532C285.648 418.059 286.094 418.039 285.638 420.154C281.353 421.989 277.074 421.13 272.838 422.07L258.152 422.394Z"/><path fill="#D96A1D" transform="scale(0.0705882 0.0722656)" d="M259.925 415.33C267.883 415.824 276.533 416.524 284.444 416.532C285.648 418.059 286.094 418.039 285.638 420.154C281.353 421.989 277.074 421.13 272.838 422.07L258.152 422.394C253.903 422.315 251.757 422.916 249.269 419.219L250.488 417.154C253.189 414.945 256.381 415.356 259.925 415.33Z"/><path fill="#4C4D4A" transform="scale(0.0705882 0.0722656)" d="M269.652 70.5554C279.694 69.4096 294.934 69.5668 305.41 69.4384C304.218 72.4285 303.021 75.6528 301.579 78.5134C292.767 78.5059 263.436 78.8582 256.579 77.5325L246.925 77.3667C248.844 71.049 250.27 72.0538 256.28 70.7969L269.652 70.5554Z"/><path fill="#D96A1D" transform="scale(0.0705882 0.0722656)" d="M269.652 70.5554C272.612 70.6908 277.848 70.4948 279.918 72.2377L280.37 74.6069C276.711 79.7667 262.847 77.3049 256.579 77.5325L246.925 77.3667C248.844 71.049 250.27 72.0538 256.28 70.7969L269.652 70.5554Z"/><path fill="#B9551E" transform="scale(0.0705882 0.0722656)" d="M249.335 446.247C245.621 446.082 238.839 447.123 237.79 442.736C242.721 438.145 247.858 438.96 254.261 439.169C265.814 439.552 300.028 440.446 309.48 443.485C289.612 444.364 269.086 445.893 249.335 446.247Z"/><path fill="#B63A1A" transform="scale(0.0705882 0.0722656)" d="M351.158 295.964L351.909 296.765C354.073 306.579 339.318 317.062 331.118 319.884C325.499 326.737 322.345 332.973 314.21 336.922C312.931 335.193 312.587 334.548 311.652 332.606C311.949 331.361 346.667 300.653 351.158 295.964Z"/><path fill="#674F41" transform="scale(0.0705882 0.0722656)" d="M284.444 416.532C289.438 416.662 309.463 416.436 311.94 418.777L311.74 420.44C306.711 421.625 279.207 422.422 272.838 422.07C277.074 421.13 281.353 421.989 285.638 420.154C286.094 418.039 285.648 418.059 284.444 416.532Z"/><path fill="#B9551E" transform="scale(0.0705882 0.0722656)" d="M167.83 299.151C170.222 304.582 172.766 309.944 175.459 315.231C171.092 310.663 166.547 305.869 163.8 300.083L167.83 299.151Z"/></svg>