<?xml version="1.0" encoding="utf-8" ?><svg xmlns="http://www.w3.org/2000/svg" xmlns:xlink="http://www.w3.org/1999/xlink" width="338" height="320" viewBox="0 0 338 320"><path fill="#1C78B3" d="M93.5356 16.3858C99.3621 16.0244 105.929 16.31 111.835 16.3474L141 16.4752L215.968 16.4454L269.778 16.4518C278.546 16.3877 287.191 16.0489 295.991 16.3797C299.885 16.5261 303.489 16.4346 307.414 16.8322C308.058 19.354 308.005 27.6679 308.014 30.6069L308.008 52.178L307.991 136.048L307.993 204.809L307.995 226.299C307.995 230.292 308.135 235.788 307.769 239.675C306.312 241.556 301.997 244.979 300.035 246.622L289.754 255.378L266.558 275.15C262.728 278.443 247.339 292.235 243.954 293.466C239.446 293.85 234.094 293.821 229.526 293.891C219.009 293.992 208.493 294.01 197.976 293.945L115.89 293.915L61.3261 293.903C54.8209 293.925 48.3156 293.91 41.8106 293.857C38.0247 293.814 32.9638 293.857 29.2819 293.288C27.7171 291.516 28.2281 279.301 28.2254 276.152L28.2158 251.694L28.2119 177.618L28.1898 106.872L28.1573 83.7181C28.1466 79.5688 28.1088 75.3793 28.1583 71.2309C28.1702 70.2328 28.4898 69.8361 29.2134 69.1305C32.2554 66.164 35.8038 63.3606 39.0471 60.5997L58.7817 43.7377L78.51 26.7295C82.0896 23.616 85.7917 20.2712 89.5328 17.3479C90.6453 16.4787 92.1751 16.4415 93.5356 16.3858ZM87.9319 73.4797C86.2477 73.8059 74.213 73.5946 71.83 73.589L33.212 73.5004C33.6166 76.1846 33.5044 80.322 33.5045 83.154L33.4967 98.3261L33.5129 148.981L33.5407 226.669L33.5335 250.001C33.5342 253.896 33.6748 258.94 33.4792 262.709C33.6083 268.149 33.8077 279.662 33.4002 284.869L33.2148 285.136L33.4731 285.766C35.6807 285.39 83.0444 242.522 89.2774 237.519C88.9882 224.415 89.1052 211.191 89.1863 198.08C89.2202 192.597 88.448 181.175 89.2198 176.139C89.9398 179.032 93.6136 186.596 93.6418 187.983C93.9605 203.646 94.5475 220.946 93.9815 236.532C103.773 236.315 114.202 236.815 123.863 236.479C123.706 237.966 123.546 239.999 123.326 241.439C116.401 241.547 109.421 241.305 102.5 241.319C99.891 241.325 94.4287 241.09 92.1935 241.586C78.9865 252.135 64.6726 265.451 51.7736 276.734C48.4303 279.633 45.0642 282.505 41.6758 285.351C40.6346 286.24 38.222 288.123 37.4845 289.06C39.6675 288.894 42.9316 288.998 45.2111 288.996L59.402 288.986L104.74 288.998L241.255 289.014C240.946 286.666 241.023 282.515 241.007 280.044C240.975 274.446 240.973 268.848 241.001 263.25L241.027 248.808C241.047 246.585 240.981 243.353 241.286 241.21C239.909 241.376 237.098 241.28 235.602 241.281L224.233 241.29C220.167 241.291 201.658 241.973 199.233 241.035L199.381 240.773C203.516 239.719 206.452 237.772 210.204 236.634C212.478 235.945 217.79 236.449 220.367 236.306C224.327 236.176 228.276 236.165 232.232 236.181C234.89 236.191 238.717 236.608 241.276 236.262C240.794 234.506 240.977 225.085 240.981 222.845L241.017 195.748L240.996 159.51C240.991 153.284 240.862 146.508 241.069 140.323C241.018 138.294 240.926 136.73 241.225 134.715C237.724 136.631 233.24 139.16 230.304 141.836C221.719 149.661 218.323 154.437 206.143 156.012C209.758 158.351 223.538 168.122 224.51 171.915C222.955 174.797 208.134 176.694 205.147 175.827C200.382 174.444 192.347 167.027 189.559 162.83C190.833 158.895 194.002 151.424 195.73 147.528C197.477 149.079 199.535 150.52 201.418 152.174C214.586 151.282 216.661 148.278 226.048 139.886C228.493 137.715 231.081 135.712 233.795 133.889C234.946 133.127 241.136 130.396 241.33 130.075C240.732 125.082 240.963 115.1 240.957 109.845L240.918 73.3975C240.372 73.5462 238.782 73.7602 238.066 73.8954C238.881 75.4869 240.417 77.1409 239.433 79.0512C236.793 81.6811 230.618 78.636 235.979 73.6131C234.347 73.5756 232.716 73.5247 231.086 73.4604C228.568 73.4898 226.051 73.4799 223.534 73.4306C217.859 72.9203 209.434 73.2944 203.536 73.302C197.905 73.3093 189.245 72.9305 183.871 73.4631C183.368 73.5688 177.97 73.515 177.167 73.5144L159.229 73.5136C142.645 73.5352 125.941 73.7216 109.373 73.5526C106.347 73.5217 96.1681 73.7381 93.7719 73.3199C94.1235 75.8201 94.0159 79.954 94.0183 82.5711L94.0274 98.9299L94.0814 128.25C94.1371 139.513 94.302 151.836 93.9878 163.086C92.8275 165.318 90.4296 167.736 88.8618 170.143C89.1875 164.685 89.0544 158.181 89.0384 152.634L89.0094 127.067C89.0115 123.563 88.802 115.735 89.1185 112.509C88.3966 112.313 87.2952 113.927 86.516 113.933C82.2695 113.967 83.1216 104.447 89.1461 109.679C88.9639 106.16 89.2321 74.2119 88.8677 73.6276L87.9319 73.4797ZM123.697 68.3712C127.101 67.9505 137.063 68.2367 140.93 68.2512C150.028 68.2852 159.985 67.9874 169.044 68.3456C168.498 62.4676 175.188 62.6288 174.309 68.4373C177.223 68.0491 186.088 68.3092 189.499 68.2634L231.116 67.9911C245.414 68.0158 240.092 69.9926 251.485 60.6705C262.868 51.3646 274.152 41.9376 285.335 32.3909C287.632 30.4684 289.923 28.5476 292.184 26.5833C294.139 24.885 295.945 23.0468 298.05 21.5411C282.446 21.1579 265.695 21.5093 249.983 21.5343L150.792 21.6514L115.714 21.6089C111.926 21.6104 101.751 21.8646 98.4147 21.5104C96.9436 21.5717 95.2895 21.6894 93.8377 21.565C94.2306 25.4481 93.9422 31.122 94.031 35.1832C94.2673 45.98 93.7421 57.2793 94.0362 68.0172C94.3925 68.2781 94.2729 68.2527 94.6741 68.3614C98.6318 68.168 102.874 68.224 106.855 68.2022C111.449 68.1771 116.63 67.9905 121.181 68.295C121.088 67.7403 121.033 67.6725 120.661 67.2499C119.977 66.4833 119.61 65.4859 119.632 64.459C120.453 61.8272 123.988 61.722 125.38 64.0389C125.712 65.5116 124.468 66.9121 123.49 67.8658L123.697 68.3712ZM245.993 124.014C246.149 125.589 246.081 126.724 246.017 128.289C247.724 127.481 249.811 126.623 250.827 128.81C250.75 131.459 248.048 131.96 246.005 132.402C246.024 134.76 246.154 138.056 246.042 140.337C246.455 143.268 246.174 153.541 246.153 156.962L246.059 189.501C246.052 198.312 246.285 207.167 246.115 215.971C246.08 217.76 246.251 223.444 246.025 224.877C246.108 228.746 246.132 232.616 246.098 236.485C251.868 236.287 257.56 236.456 263.334 236.437L303.093 236.463C302.879 235.129 302.975 230.26 302.972 228.698L302.936 212.139C302.831 190.195 302.841 168.25 302.968 146.307L302.978 60.1513L302.976 37.0632C302.963 33.176 302.739 27.5316 303.078 23.795C301.706 25.2267 300.135 26.5649 298.61 27.8356C283.657 40.2946 268.754 52.813 253.805 65.2784C251.182 67.4656 248.497 69.6279 246.063 72.0222C246.011 73.4223 245.991 74.8477 246.016 76.2498C246.257 89.9311 246.026 103.607 246.197 117.287C246.225 119.459 246.292 121.881 245.993 124.014ZM245.88 286.377C249.487 283.136 253.331 280.048 257.037 276.902C270.054 265.851 283.015 254.734 295.994 243.639C296.882 242.88 297.801 242.189 298.576 241.309C294.599 241.015 287.798 241.17 283.709 241.185L259.518 241.268C256.137 241.285 248.817 241.514 245.732 241.143C246.206 243.817 246.017 255.619 246.024 258.888L246.029 276.102C246.022 279.236 246.115 283.318 245.88 286.377ZM88.8087 68.3642C88.8951 68.2433 89.0296 68.1451 89.068 68.0015C89.1921 67.5378 89.1607 25.9149 88.925 24.2125C85.1744 28 79.2006 32.8285 75.0015 36.4214C67.4074 42.9783 59.7742 49.4898 52.1022 55.9554C48.4098 59.0607 40.9895 64.95 38.0453 68.242C41.2562 68.0051 44.7517 68.2228 48.0005 68.2432L64.3115 68.2474C71.2534 68.26 82.4701 67.7791 88.8087 68.3642ZM214.765 74.2207C218.439 76.9579 213.545 81.129 210.6 78.4588C209.34 77.3155 210.528 75.0049 211.412 73.8713L211.662 74.154C212.401 74.1139 214.631 74.2813 214.765 74.2207Z"/><path fill="#409BCB" d="M108.691 158.161C109.621 158.822 110.581 162.602 111.113 163.923C116.225 176.616 124.866 188.504 133.249 199.259C134.316 200.628 137.007 203.18 137.531 204.584C137.074 206.248 133.774 208.697 132.31 209.852C134.146 211.67 135.463 214.347 136.357 216.658C140.26 226.747 134.069 233.827 134.741 243.485C134.847 245.02 135.783 247.349 137.145 248.213C146.498 253.88 157.587 242.321 164.312 236.904C172.687 230.158 178.623 226.094 189.386 224.753C188.808 222.647 188.418 219.206 188.104 216.94C195.246 216.134 202.152 215.635 208.68 212.448C210.179 211.716 212.235 210.35 213.78 209.978L214.078 210.223C214.137 211.044 209.169 223.542 208.452 225.123C205.721 233.122 199.075 234.896 191.508 235.051C189 235.102 190.394 230.423 189.363 229.326C188.082 229.225 186.274 229.62 184.994 229.936C171.678 233.214 163.338 245.611 151.628 251.733C145.512 254.93 137.212 255.595 132.49 249.782C126.154 241.982 133.695 231.832 133.123 223.142C132.86 219.139 131.161 216.1 129.428 212.659C128.259 214.219 125.377 216.986 123.912 218.331C114.275 207.891 99.0926 186.953 95.9522 173.487C97.2666 169.079 105.205 161.59 108.691 158.161Z"/><path fill="#409BCB" d="M163.831 88.2196C163.976 88.2754 164.231 88.4628 164.375 88.5582C165.956 92.6688 167.273 95.7967 169.35 99.6663C175.464 111.051 192.003 129.033 192.277 141.876C191.348 143.578 181.667 153.64 179.665 155.804L179.186 155.584C178.385 154.41 177.309 150.991 176.741 149.427C172.439 137.584 164.509 127.748 157.908 117.179C155.922 113.88 151.203 106.539 151.522 102.631C151.809 99.1076 161.247 90.5407 163.831 88.2196Z"/><path fill="#409BCB" d="M135.793 123.939L136.261 123.984C136.634 124.289 140.334 133.349 141.222 134.953C146.68 144.808 154.31 153.375 159.592 163.33C161.72 167.339 163.153 171.242 164.158 175.664C162.588 180.165 155.025 187.482 151.419 190.943C150.963 190.89 151.119 190.878 150.655 190.538C150.278 189.755 150.004 188.949 149.786 188.109C148.615 183.597 146.636 179.345 144.459 175.238C142.953 172.38 141.319 169.592 139.562 166.882C135.671 160.967 123.749 145.633 123.43 138.063C123.328 135.644 133.337 125.747 135.793 123.939Z"/><path fill="#409BCB" d="M167.723 86.0231C178.89 86.6016 189.71 95.0121 199.723 99.4389C206.343 102.366 208.621 103.243 216.035 102.396C214.55 105.228 211.986 108.149 209.881 110.587C215.392 110.998 222.194 114.135 228.072 111.977C230.612 111.045 233.984 108.305 236.262 107.865C237.097 108.005 237.236 108.011 237.83 108.6C238.499 110.092 237.63 111.249 236.546 112.219C234.565 113.904 232.256 115.16 229.765 115.909C223.885 117.663 212.207 116.241 207.055 113.506C201.7 124.707 191.706 122.371 183.735 115.323C179.707 111.761 165.644 90.4144 167.723 86.0231Z"/><path fill="#409BCB" d="M224.635 175.345C225.596 175.125 225.312 175.04 226.048 175.386C226.229 176.002 226.169 176.605 225.983 177.193C224.875 180.571 220.591 192.57 217.452 193.91C206.967 198.384 189.321 195.277 179.022 192.802C177.864 192.577 176.172 192.451 175.551 191.538C175.447 188.784 180.022 180.033 182.112 177.602C186.214 176.134 195.674 178.464 200.869 178.481C206.316 178.687 211.81 178.043 217.181 177.172C219.663 176.77 221.946 175.535 224.635 175.345Z"/><path fill="#1C78B3" d="M140.15 121.733C141.27 121.682 144.283 122.335 145.256 122.717C154.533 126.344 164.268 129.215 168.836 138.931C171.2 143.959 177.009 153.248 175.202 158.852C170.034 159.344 161.975 154.99 157.772 152.181C152.957 148.962 136.934 126.016 140.15 121.733Z"/><path fill="#1C78B3" d="M112.728 156.207C116.216 156.739 118.363 157.391 121.572 158.774C134.847 164.495 139.522 169.432 144.954 182.792C146.035 185.45 148.375 191.061 147.195 193.799C141.8 194.534 131.63 189.806 127.897 186.018C124.085 182.15 110.193 160.842 112.728 156.207Z"/><path fill="#1C78B3" d="M177.691 195.112C181.603 195.336 184.728 196.741 188.5 197.467C194.613 198.644 200.753 198.805 206.943 199.115C209.698 201.693 211.377 204.224 213.28 207.423C212.066 208.219 211.279 208.772 209.924 209.344C207.63 210.652 198.691 212.887 195.952 213.127C194.111 211.206 192.189 209.366 190.19 207.61C186.879 204.724 179.01 198.979 177.691 195.112Z"/><path fill="#409BCB" d="M163.318 265.274C165.843 265.516 166.603 265.762 168.231 267.68C170.02 274.93 165.056 276.107 159.724 272.791L159.18 272.963C158.891 273.179 158.434 273.502 158.122 273.673C157.357 274.095 156.454 274.188 155.619 273.93C154.053 273.442 152.993 272.198 153.536 270.401C154.424 267.46 158.606 269.35 158.817 269.115C160.727 266.984 160.148 266.436 163.318 265.274ZM164.361 271.833C165.371 271.645 166.059 270.703 165.931 269.685C165.804 268.666 164.905 267.923 163.88 267.989C163.16 268.036 162.526 268.477 162.233 269.136C161.939 269.795 162.035 270.562 162.482 271.128C162.929 271.694 163.652 271.966 164.361 271.833Z"/><path fill="#409BCB" d="M195.262 75.7322C197.248 75.4368 199.208 76.407 200.178 78.1652C201.147 79.9234 200.921 82.0989 199.611 83.6205C198.9 84.4464 197.93 85.0061 196.859 85.2078C195.15 85.5297 193.401 84.9033 192.284 83.5699C191.168 82.2365 190.86 80.4042 191.477 78.7786C192.095 77.1531 193.542 75.9881 195.262 75.7322ZM196.471 82.3968C197.149 82.2368 197.687 81.7241 197.88 81.0555C198.073 80.3868 197.891 79.666 197.403 79.1696C196.915 78.6732 196.198 78.4784 195.526 78.6599C194.51 78.9344 193.902 79.9732 194.16 80.9937C194.418 82.0141 195.447 82.6387 196.471 82.3968Z"/><path fill="#409BCB" d="M150.438 220.285C152.008 220.275 152.512 220.47 154.038 220.924C157.265 224.224 156.759 227.929 152.23 229.617C148.316 230.178 147.391 228.556 146.375 225.138C147.189 222.153 147.462 221.458 150.438 220.285ZM151.624 226.643C152.738 225.964 152.569 226.264 153.176 225.216C153.218 223.455 152.369 223.094 150.734 222.912C149.884 224.102 149.054 225.251 150.223 226.51C150.9 226.717 150.943 226.754 151.624 226.643Z"/><path fill="#409BCB" d="M62.2847 88.5644C63.389 88.4596 64.495 88.7462 65.4094 89.3741C66.724 90.2768 67.4953 91.7811 67.4609 93.3754C67.4108 95.7026 65.675 97.6474 63.3685 97.9608C62.0328 98.1422 60.6832 97.7452 59.6585 96.8694C58.6338 95.9937 58.0314 94.7223 58.0025 93.3747C57.9799 92.3142 58.3143 91.2769 58.952 90.4294C59.7515 89.367 60.9611 88.6901 62.2847 88.5644ZM63.4123 95.0078C64.358 94.6386 64.8536 93.5975 64.5438 92.6306C64.234 91.6638 63.2257 91.1045 62.2415 91.3537C61.548 91.5292 61.0094 92.0752 60.8434 92.771C60.6774 93.4667 60.9114 94.1972 61.4508 94.6669C61.9903 95.1366 62.7459 95.268 63.4123 95.0078Z"/><path fill="#409BCB" d="M129.715 90.3516C131.053 90.1823 132.401 90.5938 133.416 91.4821C134.432 92.3704 135.019 93.6508 135.029 95.0001C135.048 97.4025 133.26 99.436 130.875 99.7247C129.57 99.8826 128.258 99.4894 127.255 98.6397C126.252 97.79 125.648 96.5607 125.59 95.2475C125.48 92.7903 127.275 90.6603 129.715 90.3516ZM131.141 96.801C132.12 96.287 132.51 95.0854 132.019 94.0949C131.527 93.1043 130.335 92.6873 129.333 93.1557C128.665 93.4684 128.218 94.1187 128.165 94.8551C128.113 95.5915 128.464 96.2985 129.082 96.7025C129.7 97.1065 130.488 97.1442 131.141 96.801Z"/><path fill="#409BCB" d="M187.761 274.412C190.342 273.94 192.813 275.664 193.261 278.249C193.71 280.835 191.964 283.29 189.375 283.716C187.703 283.99 186.012 283.348 184.944 282.033C183.592 280.368 183.532 278 184.798 276.269C185.512 275.293 186.572 274.629 187.761 274.412ZM189.419 280.964C190.989 279.108 190.444 277.527 188 277.136C186.824 278.326 186.539 279.173 187.495 280.616C188.237 281.127 188.526 281.04 189.419 280.964Z"/><path fill="#409BCB" d="M118.427 108.534C119.432 108.491 120.491 108.651 121.361 109.174C122.483 109.854 123.278 110.964 123.56 112.245C123.852 113.513 123.616 114.845 122.907 115.936C121.986 117.347 120.996 117.637 119.499 117.966C114.73 118.162 113.937 114.217 114.746 110.422C115.997 109.444 116.934 109 118.427 108.534ZM119.377 115.27C120.495 115.082 121.254 114.03 121.079 112.909C120.904 111.789 119.859 111.018 118.737 111.181C118 111.288 117.377 111.782 117.106 112.476C116.835 113.171 116.958 113.957 117.428 114.535C117.898 115.113 118.642 115.394 119.377 115.27Z"/><path fill="#409BCB" d="M203.333 255.592C205.185 255.277 207.047 256.091 208.073 257.665C208.943 259 209.08 260.684 208.437 262.142C207.794 263.6 206.458 264.635 204.885 264.892C203.725 265.082 202.536 264.832 201.551 264.19C199.925 263.131 199.113 261.184 199.507 259.283C199.901 257.383 201.419 255.918 203.333 255.592ZM204.863 261.898C205.8 261.511 206.261 260.452 205.907 259.502C205.552 258.553 204.508 258.056 203.548 258.379C202.897 258.598 202.418 259.154 202.297 259.829C202.176 260.505 202.433 261.193 202.967 261.623C203.502 262.054 204.228 262.159 204.863 261.898Z"/><path fill="#409BCB" d="M47.8513 163.856C50.3925 163.712 52.586 165.619 52.796 168.155C53.0061 170.692 51.1563 172.934 48.6259 173.209C47.719 173.308 46.8029 173.14 45.9898 172.727C44.099 171.765 43.0881 169.655 43.5238 167.579C43.9595 165.502 45.7334 163.977 47.8513 163.856ZM48.8087 170.32C49.486 170.041 49.9592 169.417 50.0454 168.69C50.1315 167.962 49.8172 167.245 49.2238 166.816C48.6305 166.386 47.8511 166.311 47.1868 166.62C46.1909 167.083 45.7474 168.257 46.1884 169.263C46.6293 170.269 47.7932 170.739 48.8087 170.32Z"/><path fill="#409BCB" d="M78.7722 103.694C78.1723 101.234 79.6343 98.7409 82.075 98.0635C84.5156 97.3861 87.0532 98.7686 87.8075 101.187C88.5617 103.605 87.2601 106.185 84.8672 107.015C82.4743 107.845 79.8543 106.626 78.9488 104.26C78.878 104.076 78.8191 103.887 78.7722 103.694ZM83.8722 104.126C84.795 103.734 85.2473 102.686 84.8996 101.746C84.552 100.806 83.527 100.305 82.5713 100.607C81.9116 100.816 81.4203 101.371 81.2928 102.052C81.1654 102.732 81.4224 103.427 81.9617 103.861C82.501 104.294 83.2352 104.396 83.8722 104.126Z"/><path fill="#409BCB" d="M227.336 225.592C228.386 225.437 229.457 225.642 230.375 226.174C232.093 227.17 232.998 229.14 232.633 231.092C232.269 233.044 230.715 234.555 228.753 234.865C226.186 235.27 223.779 233.51 223.386 230.94C222.993 228.371 224.765 225.972 227.336 225.592ZM228.592 231.889C229.538 231.559 230.042 230.529 229.722 229.579C229.402 228.629 228.378 228.114 227.425 228.423C226.799 228.627 226.33 229.151 226.198 229.795C226.066 230.44 226.29 231.106 226.785 231.539C227.281 231.972 227.971 232.106 228.592 231.889Z"/><path fill="#409BCB" d="M229.481 80.8619C230.864 80.6309 232.278 81.0312 233.335 81.9531C234.392 82.875 234.981 84.2216 234.94 85.6235C234.873 87.9177 233.155 89.8263 230.881 90.1336C229.521 90.3174 228.148 89.896 227.126 88.9806C226.103 88.0651 225.533 86.7476 225.565 85.3754C225.619 83.1265 227.262 81.2325 229.481 80.8619ZM230.628 87.3653C231.614 87.0592 232.178 86.0253 231.903 85.0304C231.627 84.0356 230.612 83.4394 229.609 83.684C228.932 83.8491 228.398 84.3696 228.217 85.0423C228.035 85.715 228.234 86.4332 228.736 86.9166C229.238 87.4 229.963 87.572 230.628 87.3653Z"/><path fill="#409BCB" d="M82.276 152.074C84.8017 151.481 87.3287 153.052 87.9133 155.58C88.4979 158.108 86.9175 160.629 84.3878 161.205C81.8705 161.778 79.3638 160.207 78.7821 157.692C78.2003 155.176 79.7627 152.664 82.276 152.074ZM83.6747 158.431C84.7444 158.099 85.3403 156.96 85.0043 155.891C84.6682 154.823 83.528 154.23 82.4603 154.569C81.397 154.907 80.8075 156.042 81.1421 157.106C81.4768 158.17 82.6094 158.763 83.6747 158.431Z"/><path fill="#409BCB" d="M55.9097 121.328C57.2533 120.976 58.6837 121.239 59.8146 122.045C60.9455 122.851 61.6602 124.118 61.7657 125.503C61.9345 127.717 60.5244 129.746 58.3897 130.359C56.7688 130.825 55.0227 130.384 53.8181 129.203C52.6135 128.023 52.1366 126.286 52.5695 124.656C53.0024 123.026 54.2782 121.755 55.9097 121.328ZM57.6312 127.888C58.3173 127.711 58.8549 127.178 59.038 126.494C59.2211 125.809 59.0214 125.079 58.5153 124.583C58.0092 124.087 57.2752 123.902 56.5945 124.099C55.5633 124.398 54.9626 125.469 55.246 126.505C55.5293 127.54 56.5916 128.156 57.6312 127.888Z"/><path fill="#409BCB" d="M222.793 251.948C225.328 251.443 227.793 253.09 228.297 255.625C228.801 258.16 227.153 260.624 224.618 261.127C222.549 261.538 220.461 260.514 219.52 258.626C218.783 257.15 218.879 255.394 219.771 254.006C220.458 252.939 221.549 252.196 222.793 251.948ZM223.744 258.604C225.974 257.275 226.698 255.526 223.893 254.159C221.662 255.626 220.792 257.231 223.744 258.604Z"/><path fill="#409BCB" d="M113.221 247.347C114.86 246.973 116.573 247.514 117.7 248.76C118.828 250.007 119.194 251.765 118.659 253.358C118.123 254.951 116.769 256.131 115.118 256.444C113.779 256.697 112.396 256.35 111.336 255.494C110.276 254.638 109.644 253.36 109.609 251.998C109.551 249.785 111.063 247.839 113.221 247.347ZM114.872 253.998C115.966 253.724 116.639 252.623 116.385 251.524C116.13 250.424 115.042 249.731 113.938 249.966C113.206 250.121 112.615 250.659 112.392 251.374C112.169 252.089 112.349 252.868 112.864 253.412C113.378 253.956 114.146 254.18 114.872 253.998Z"/><path fill="#409BCB" d="M107.535 131.161C109.964 130.311 112.621 131.599 113.458 134.033C114.295 136.466 112.993 139.117 110.555 139.941C108.135 140.759 105.509 139.469 104.678 137.053C103.847 134.638 105.123 132.005 107.535 131.161ZM109.868 137.446C110.85 137.03 111.347 135.93 111.011 134.919C110.675 133.908 109.618 133.324 108.583 133.578C107.836 133.762 107.255 134.349 107.08 135.099C106.905 135.848 107.166 136.632 107.754 137.128C108.343 137.623 109.16 137.746 109.868 137.446Z"/><path fill="#409BCB" d="M146.799 76.0313C149.236 75.7822 151.334 76.2392 152.472 78.6481C152.997 79.7448 153.035 81.0121 152.577 82.1384C151.945 83.7182 151.07 84.2418 149.63 84.873C145.979 85.5409 142.804 83.3531 143.702 79.2245C144.085 77.4599 145.33 76.857 146.799 76.0313ZM148.62 82.3967C149.665 82.0686 150.251 80.9591 149.933 79.9104C149.614 78.8617 148.51 78.2656 147.459 78.5745C146.394 78.8874 145.788 80.009 146.111 81.0714C146.433 82.1338 147.56 82.7291 148.62 82.3967Z"/><path fill="#409BCB" d="M113.927 262.575C115.537 262.102 117.277 262.536 118.478 263.709C119.678 264.882 120.151 266.611 119.715 268.232C119.28 269.853 118.003 271.112 116.377 271.525C113.925 272.148 111.426 270.692 110.758 268.252C110.09 265.812 111.5 263.287 113.927 262.575ZM115.63 269.007C116.749 268.739 117.45 267.627 117.208 266.502C116.965 265.377 115.869 264.651 114.739 264.868C113.985 265.013 113.368 265.554 113.127 266.283C112.886 267.012 113.059 267.815 113.579 268.38C114.098 268.946 114.883 269.185 115.63 269.007Z"/><path fill="#409BCB" d="M185.914 254.296C188.429 253.739 190.916 255.337 191.455 257.856C191.993 260.375 190.377 262.85 187.854 263.37C185.357 263.884 182.914 262.288 182.381 259.795C181.848 257.303 183.426 254.847 185.914 254.296ZM186.874 260.865C187.963 260.837 188.826 259.934 188.803 258.845C188.78 257.755 187.881 256.889 186.792 256.907C185.695 256.925 184.822 257.831 184.845 258.927C184.868 260.024 185.778 260.892 186.874 260.865Z"/><path fill="#409BCB" d="M54.174 208.841C55.8231 208.555 57.4986 209.179 58.5585 210.475C59.6184 211.77 59.8984 213.536 59.2911 215.095C58.6839 216.655 57.2836 217.767 55.6268 218.005C53.1169 218.365 50.7829 216.643 50.3859 214.139C49.9889 211.635 51.6759 209.275 54.174 208.841ZM55.8538 215.099C56.9073 214.657 57.4134 213.453 56.9926 212.391C56.5717 211.329 55.3785 210.799 54.3082 211.198C53.5964 211.464 53.0838 212.093 52.9681 212.844C52.8523 213.595 53.1513 214.35 53.75 214.818C54.3486 215.285 55.1533 215.393 55.8538 215.099Z"/><path fill="#409BCB" d="M106.86 87.0665C109.405 86.7011 111.761 88.4778 112.11 91.0253C112.458 93.5728 110.666 95.9169 108.116 96.2485C105.59 96.577 103.273 94.8051 102.927 92.2813C102.582 89.7576 104.339 87.4284 106.86 87.0665ZM107.822 94.0763C110.176 92.0547 110.157 89.344 106.74 89.4167C104.672 91.2997 104.888 93.7812 107.822 94.0763Z"/><path fill="#409BCB" d="M79.1234 129.143C80.2032 129.014 81.294 129.269 82.2045 129.864C83.8247 130.922 84.6153 132.877 84.1864 134.764C83.7574 136.651 82.1996 138.072 80.2811 138.326C77.7361 138.663 75.4032 136.864 75.0821 134.317C74.7609 131.77 76.5744 129.448 79.1234 129.143ZM80.0918 135.804C81.2266 135.622 81.9994 134.555 81.8185 133.42C81.6376 132.286 80.5714 131.512 79.4364 131.692C78.3 131.872 77.5251 132.94 77.7062 134.076C77.8873 135.212 78.9557 135.986 80.0918 135.804Z"/><path fill="#409BCB" d="M62.5791 241.375C65.078 240.857 67.5232 242.465 68.0374 244.964C68.5516 247.464 66.9396 249.907 64.439 250.417C61.9444 250.926 59.5089 249.318 58.9959 246.824C58.4829 244.331 60.0862 241.892 62.5791 241.375ZM64.1055 247.675C64.7742 247.444 65.2604 246.862 65.3689 246.163C65.4774 245.464 65.1904 244.762 64.6231 244.34C64.0558 243.917 63.3012 243.843 62.6624 244.147C61.7476 244.582 61.332 245.656 61.7155 246.593C62.0989 247.531 63.1479 248.006 64.1055 247.675Z"/><path fill="#409BCB" d="M69.9108 211.345C72.3254 210.563 74.9184 211.878 75.7147 214.288C76.5109 216.698 75.2116 219.298 72.8064 220.109C70.3809 220.926 67.7536 219.614 66.9506 217.183C66.1477 214.753 67.4758 212.134 69.9108 211.345ZM71.6239 217.584C72.3575 217.446 72.9551 216.915 73.1778 216.202C73.4004 215.49 73.2118 214.713 72.6872 214.182C72.1627 213.651 71.3879 213.452 70.6728 213.666C69.6442 213.974 69.0365 215.033 69.2898 216.076C69.5431 217.12 70.5688 217.782 71.6239 217.584Z"/><path fill="#409BCB" d="M125.939 277.801C128.434 277.445 130.754 279.159 131.145 281.65C131.537 284.14 129.856 286.484 127.372 286.911C125.733 287.193 124.069 286.571 123.017 285.282C121.966 283.993 121.689 282.238 122.294 280.689C122.9 279.14 124.292 278.036 125.939 277.801ZM127.45 283.932C128.377 283.461 128.769 282.344 128.339 281.398C127.909 280.451 126.81 280.011 125.846 280.399C125.184 280.666 124.722 281.274 124.642 281.984C124.563 282.693 124.878 283.389 125.465 283.795C126.051 284.202 126.814 284.254 127.45 283.932Z"/><path fill="#409BCB" d="M60.673 173.113C61.9036 172.865 63.1823 173.129 64.2131 173.846C65.7474 174.912 66.4855 176.8 66.0815 178.624C65.6775 180.449 64.2114 181.848 62.3703 182.167C59.8881 182.597 57.521 180.953 57.0568 178.477C56.5926 176.001 58.2036 173.611 60.673 173.113ZM62.4825 179.325C63.4791 178.86 63.9141 177.678 63.457 176.677C62.9999 175.677 61.8217 175.233 60.8177 175.682C59.8023 176.136 59.3515 177.33 59.8139 178.342C60.2762 179.354 61.4744 179.795 62.4825 179.325Z"/><path fill="#409BCB" d="M78.1086 171.669C80.5711 171.477 82.7424 173.272 83.016 175.727C83.2895 178.181 81.5666 180.411 79.1222 180.765C77.4678 181.004 75.8144 180.323 74.8087 178.988C73.803 177.653 73.605 175.876 74.292 174.352C74.9791 172.828 76.4421 171.8 78.1086 171.669ZM78.8945 178.103C79.9956 177.81 80.647 176.676 80.345 175.578C80.0429 174.479 78.9033 173.838 77.8074 174.149C76.7249 174.457 76.0928 175.58 76.3912 176.665C76.6895 177.75 77.8068 178.392 78.8945 178.103Z"/><path fill="#409BCB" d="M101.171 207.649C102.785 207.314 104.455 207.875 105.539 209.117C106.623 210.359 106.953 212.09 106.402 213.644C105.851 215.198 104.505 216.334 102.88 216.616C100.425 217.042 98.0823 215.421 97.6157 212.973C97.1491 210.525 98.7315 208.156 101.171 207.649ZM102.612 214.178C103.733 213.849 104.374 212.673 104.043 211.553C103.712 210.433 102.535 209.794 101.415 210.127C100.298 210.459 99.661 211.632 99.9911 212.75C100.321 213.867 101.494 214.506 102.612 214.178Z"/><path fill="#409BCB" d="M100.554 225.319C102.972 224.597 105.517 225.978 106.229 228.399C106.942 230.821 105.55 233.36 103.126 234.063C101.331 234.582 99.4017 233.955 98.2567 232.479C97.1116 231.003 96.9831 228.978 97.9325 227.369C98.5164 226.38 99.4526 225.647 100.554 225.319ZM102.441 231.671C103.526 231.326 104.134 230.174 103.807 229.082C103.48 227.991 102.338 227.364 101.241 227.672C100.515 227.876 99.9557 228.457 99.7779 229.19C99.6 229.923 99.8315 230.695 100.383 231.209C100.935 231.724 101.722 231.9 102.441 231.671Z"/><path fill="#409BCB" d="M92.2734 254.564C94.6875 253.939 97.1544 255.375 97.8045 257.782C98.4546 260.189 97.0455 262.671 94.6452 263.347C93.0697 263.79 91.3774 263.353 90.2138 262.202C89.0501 261.051 88.5945 259.364 89.0206 257.784C89.4467 256.203 90.6889 254.974 92.2734 254.564ZM93.8963 260.903C94.6055 260.676 95.1309 260.075 95.2618 259.342C95.3926 258.609 95.1074 257.864 94.5205 257.406C93.9337 256.947 93.1415 256.851 92.4619 257.155C91.4885 257.591 91.0251 258.711 91.4064 259.708C91.7876 260.704 92.8806 261.229 93.8963 260.903Z"/><path fill="#409BCB" d="M226.934 272.841C228.289 272.554 229.701 272.901 230.768 273.784C231.835 274.667 232.44 275.989 232.412 277.374C232.369 279.462 230.906 281.252 228.868 281.709C226.412 282.261 223.976 280.707 223.44 278.248C222.904 275.789 224.471 273.362 226.934 272.841ZM228.394 279.037C229.466 278.826 230.168 277.789 229.964 276.714C229.761 275.64 228.729 274.931 227.653 275.127C226.566 275.324 225.848 276.369 226.054 277.455C226.259 278.54 227.31 279.251 228.394 279.037Z"/><path fill="#409BCB" d="M74.284 224.847C76.6907 224.23 79.1464 225.663 79.793 228.062C80.4397 230.461 79.0368 232.934 76.6459 233.609C75.0731 234.054 73.3827 233.618 72.2206 232.469C71.0585 231.32 70.6042 229.634 71.0313 228.057C71.4584 226.479 72.7008 225.253 74.284 224.847ZM76.418 231.02C77.3601 230.478 77.7161 229.296 77.2295 228.325C76.7429 227.353 75.5828 226.93 74.5852 227.361C73.8873 227.662 73.4133 228.325 73.3539 229.082C73.2945 229.84 73.6594 230.569 74.3019 230.975C74.9444 231.381 75.7589 231.398 76.418 231.02Z"/><path fill="#409BCB" d="M63.3909 272.814C65.8388 272.24 68.2858 273.77 68.8419 276.222C69.3979 278.674 67.8501 281.109 65.394 281.647C62.9635 282.179 60.5588 280.651 60.0086 278.225C59.4583 275.798 60.9686 273.382 63.3909 272.814ZM65.1404 279.019C65.8455 278.796 66.375 278.209 66.5247 277.485C66.6744 276.761 66.4208 276.012 65.8618 275.528C65.3028 275.043 64.5257 274.899 63.8302 275.151C62.7847 275.529 62.2335 276.674 62.5902 277.727C62.9469 278.78 64.0803 279.354 65.1404 279.019Z"/><path fill="#409BCB" d="M147.656 232.724C150.574 232.925 150.621 234.214 151.595 236.672L155.36 235.708C153.424 237.776 150.428 239.827 147.865 241.027C146.728 241.428 142.859 241.781 141.928 240.903C140.755 239.796 141.168 237.675 142.223 236.643C143.277 236.22 144.524 236.474 145.672 236.601C146.026 234.419 145.893 234.044 147.656 232.724Z"/><path fill="#409BCB" d="M82.0354 197.088C84.4238 196.924 86.5231 198.657 86.8138 201.033C87.1045 203.41 85.4849 205.598 83.1273 206.014C80.9772 206.394 78.8645 205.176 78.115 203.126C77.6291 201.796 77.7967 200.315 78.5677 199.128C79.3386 197.941 80.623 197.185 82.0354 197.088ZM83.144 203.49C84.1539 203.082 84.6649 201.952 84.3046 200.924C83.9443 199.896 82.8399 199.333 81.7961 199.644C81.0757 199.859 80.5318 200.453 80.3808 201.189C80.2298 201.926 80.4961 202.685 81.0738 203.167C81.6515 203.648 82.447 203.772 83.144 203.49Z"/><path fill="#409BCB" d="M60.676 198.775C65.8832 194.671 70.1579 198.433 68.0732 204.535C62.831 208.479 58.2678 204.263 60.676 198.775ZM65.1204 203.466C65.8275 203.267 66.3699 202.699 66.5353 201.983C66.7007 201.267 66.4627 200.518 65.9146 200.029C65.3665 199.54 64.5954 199.389 63.9031 199.634C62.8806 199.997 62.33 201.105 62.6584 202.139C62.9869 203.173 64.0761 203.76 65.1204 203.466Z"/><path fill="#409BCB" d="M224.026 125.254C226.072 125.25 226.011 125.38 227.655 126.774C227.99 126.245 228.308 125.534 228.899 125.367C232.65 124.306 235.494 129.108 230.233 130.855C228.585 130.505 228.612 130.131 227.648 128.843L227.274 128.866C225.27 133.645 218.7 128.982 224.026 125.254Z"/><path fill="#409BCB" d="M169.002 207.017C169.364 206.98 169.728 206.96 170.092 206.955C174.304 206.936 172.79 209.986 171.925 212.159C171.434 213.389 175.507 214.588 171.833 217.971C170.745 218.093 169.504 217.785 168.566 217.215C167.165 215.198 169.081 213.264 168.643 212.136C167.723 209.761 166.001 209.386 169.002 207.017Z"/><path fill="#409BCB" d="M96.0139 127.005C99.8167 126.669 100.066 127.208 100.051 130.355C100.047 131.177 107.618 130.447 102.797 136C98.1216 137.229 99.4984 132.687 98.1569 132.491C94.9471 132.02 92.7642 129.614 96.0139 127.005Z"/><path fill="#409BCB" d="M220.238 244.254C224.734 243.887 225.169 247.145 222.442 250.151C218.659 250.645 216.784 246.766 220.238 244.254Z"/><path fill="#409BCB" d="M236.599 210.381C238.117 210.128 239.569 211.103 239.908 212.604C240.248 214.105 239.357 215.61 237.878 216.034C236.843 216.331 235.729 216.031 234.983 215.255C234.237 214.478 233.983 213.352 234.322 212.33C234.661 211.309 235.537 210.558 236.599 210.381Z"/><path fill="#409BCB" d="M161.493 215.341C163.027 215.097 164.479 216.108 164.782 217.63C165.084 219.153 164.13 220.643 162.62 221.004C161.59 221.25 160.508 220.913 159.801 220.126C159.093 219.339 158.872 218.228 159.225 217.23C159.578 216.232 160.448 215.508 161.493 215.341Z"/><path fill="#409BCB" d="M234.271 141.627C235.792 141.231 237.35 142.124 237.778 143.636C238.206 145.149 237.347 146.726 235.844 147.186C234.843 147.492 233.755 147.233 232.999 146.509C232.243 145.784 231.939 144.708 232.203 143.695C232.467 142.682 233.258 141.891 234.271 141.627Z"/><path fill="#409BCB" d="M189.138 244.633C190.725 244.505 192.116 245.687 192.248 247.274C192.379 248.861 191.201 250.255 189.615 250.39C188.022 250.526 186.622 249.343 186.491 247.75C186.359 246.158 187.545 244.761 189.138 244.633Z"/><path fill="#409BCB" d="M234.707 168.412C235.671 167.969 236.8 168.091 237.647 168.73C238.494 169.368 238.923 170.42 238.764 171.468C238.604 172.517 237.883 173.394 236.884 173.751C235.429 174.273 233.822 173.555 233.238 172.124C232.655 170.693 233.302 169.056 234.707 168.412Z"/><path fill="#409BCB" d="M224.274 197.151C225.857 197.126 227.161 198.388 227.188 199.971C227.215 201.553 225.956 202.859 224.373 202.889C222.787 202.918 221.478 201.655 221.45 200.069C221.423 198.483 222.688 197.176 224.274 197.151Z"/><path fill="#409BCB" d="M226.228 148.731C230.277 148.982 231.74 152.327 228.189 154.469C224.143 154.482 222.866 150.594 226.228 148.731Z"/><path fill="#409BCB" d="M234.105 94.3104C235.632 94.1799 236.991 95.2755 237.188 96.7956C237.384 98.3158 236.348 99.7208 234.838 99.9826C233.801 100.162 232.749 99.7589 232.099 98.9319C231.448 98.105 231.304 96.9878 231.723 96.0227C232.142 95.0575 233.057 94.4 234.105 94.3104Z"/><path fill="#409BCB" d="M233.569 244.383C235.107 244.015 236.652 244.965 237.017 246.503C237.382 248.042 236.429 249.585 234.889 249.947C233.354 250.308 231.817 249.358 231.453 247.824C231.089 246.289 232.036 244.75 233.569 244.383Z"/><path fill="#409BCB" d="M166.707 252.321C168.228 252.142 169.619 253.193 169.863 254.704C170.107 256.215 169.118 257.65 167.619 257.96C166.589 258.173 165.526 257.803 164.85 256.998C164.175 256.193 163.995 255.082 164.383 254.105C164.771 253.128 165.663 252.443 166.707 252.321Z"/><path fill="#409BCB" d="M80.375 87.2125C81.8314 86.7615 83.385 87.5361 83.9013 88.9707C84.4176 90.4053 83.7139 91.9922 82.3041 92.5728C81.3337 92.9724 80.2223 92.8066 79.4108 92.1413C78.5992 91.476 78.2187 90.4187 78.4201 89.3888C78.6216 88.359 79.3725 87.523 80.375 87.2125Z"/><path fill="#409BCB" d="M231.266 216.061C232.247 215.754 233.317 215.999 234.067 216.702C234.817 217.405 235.13 218.457 234.887 219.456C234.644 220.455 233.883 221.246 232.894 221.526C231.393 221.95 229.83 221.091 229.385 219.596C228.939 218.102 229.778 216.527 231.266 216.061Z"/><path fill="#409BCB" d="M198.983 265.223C202.888 265.066 203.716 270.203 199.732 271.012C196.639 271.171 195.178 267.079 198.983 265.223Z"/><path fill="#409BCB" d="M204.303 130.871C205.242 130.456 206.332 130.578 207.155 131.192C207.979 131.806 208.408 132.815 208.278 133.834C208.149 134.852 207.481 135.722 206.53 136.11C205.089 136.699 203.443 136.021 202.834 134.589C202.225 133.156 202.88 131.501 204.303 130.871Z"/><path fill="#409BCB" d="M99.3802 101.132C100.366 100.745 101.486 100.938 102.286 101.633C103.086 102.328 103.433 103.409 103.187 104.44C102.942 105.471 102.143 106.28 101.116 106.539C99.6603 106.906 98.1698 106.079 97.711 104.65C97.2521 103.22 97.9828 101.68 99.3802 101.132Z"/><path fill="#409BCB" d="M227.178 202.751C230.995 202.931 231.597 206.965 227.858 208.661C225.656 208.392 224.14 206.775 224.961 204.464C225.348 203.375 226.153 203.192 227.178 202.751Z"/><path fill="#409BCB" d="M221.618 84.1915C223.17 84.0749 224.528 85.2277 224.664 86.7783C224.801 88.3289 223.665 89.7011 222.116 89.8573C221.097 89.9601 220.101 89.5065 219.509 88.6699C218.917 87.8333 218.821 86.7431 219.258 85.816C219.694 84.8889 220.596 84.2683 221.618 84.1915Z"/><path fill="#409BCB" d="M183.275 237.186C184.246 237.3 186.636 240.481 187.304 241.372C185.235 241.515 182.735 241.476 180.626 241.49C179.505 241.487 178.133 241.635 177.251 241.065L177.333 240.655C177.881 240.126 182.208 237.821 183.275 237.186Z"/><path fill="#409BCB" d="M228.298 156.959C229.77 156.422 231.4 157.178 231.939 158.65C232.478 160.122 231.724 161.752 230.253 162.293C228.779 162.836 227.145 162.079 226.605 160.605C226.064 159.13 226.823 157.497 228.298 156.959Z"/><path fill="#409BCB" d="M38.1526 131.351C39.1528 131.099 40.2107 131.411 40.915 132.165C41.6192 132.918 41.8586 133.995 41.5401 134.976C41.2217 135.957 40.3956 136.687 39.383 136.884C37.8756 137.176 36.4095 136.215 36.0761 134.716C35.7428 133.217 36.6633 131.725 38.1526 131.351Z"/><path fill="#409BCB" d="M143.964 279.097C145.405 278.547 147.022 279.25 147.602 280.68C148.182 282.11 147.513 283.741 146.095 284.351C145.152 284.757 144.063 284.62 143.248 283.995C142.434 283.37 142.021 282.353 142.17 281.336C142.318 280.32 143.004 279.464 143.964 279.097Z"/><path fill="#409BCB" d="M56.9512 108.116C58.5139 107.917 59.9394 109.03 60.125 110.594C60.3106 112.159 59.1851 113.574 57.6191 113.746C56.0725 113.916 54.6781 112.807 54.4948 111.262C54.3115 109.717 55.4078 108.313 56.9512 108.116Z"/><path fill="#409BCB" d="M78.9488 104.26C78.4207 111.688 70.7828 105.881 73.7407 102.787C75.2298 101.229 77.3416 102.193 78.7722 103.694C78.8191 103.887 78.878 104.076 78.9488 104.26Z"/><path fill="#409BCB" d="M212.235 258.637C213.181 258.18 214.303 258.286 215.148 258.911C215.992 259.537 216.421 260.579 216.261 261.617C216.101 262.656 215.379 263.52 214.385 263.863C212.968 264.351 211.416 263.649 210.846 262.263C210.276 260.877 210.885 259.287 212.235 258.637Z"/><path fill="#409BCB" d="M46.3279 147.603C47.3271 147.402 48.3569 147.755 49.0237 148.526C49.6904 149.296 49.8912 150.366 49.5491 151.326C49.2071 152.286 48.3752 152.988 47.3713 153.164C45.8456 153.43 44.389 152.421 44.1034 150.898C43.8177 149.376 44.8093 147.907 46.3279 147.603Z"/><path fill="#409BCB" d="M111.509 143.872C112.484 143.56 113.552 143.8 114.3 144.498C115.048 145.197 115.361 146.245 115.116 147.24C114.872 148.234 114.109 149.018 113.122 149.29C111.639 149.699 110.1 148.846 109.661 147.371C109.222 145.896 110.043 144.341 111.509 143.872Z"/><path fill="#409BCB" d="M60.3534 222.048C61.3429 221.804 62.3869 222.112 63.0858 222.853C63.7846 223.595 64.0301 224.655 63.7281 225.629C63.4262 226.602 62.6236 227.337 61.6277 227.553C60.1176 227.88 58.6246 226.934 58.2761 225.429C57.9277 223.923 58.853 222.417 60.3534 222.048Z"/><path fill="#409BCB" d="M160.408 224.385C161.397 224.116 162.455 224.404 163.171 225.138C163.886 225.872 164.148 226.936 163.855 227.918C163.561 228.9 162.758 229.646 161.757 229.867C160.26 230.196 158.774 229.272 158.408 227.784C158.042 226.296 158.93 224.787 160.408 224.385Z"/><path fill="#409BCB" d="M154.502 211.811C155.96 211.333 157.532 212.109 158.039 213.557C158.546 215.005 157.802 216.592 156.365 217.129C155.409 217.485 154.335 217.297 153.557 216.637C152.779 215.977 152.419 214.948 152.615 213.947C152.811 212.946 153.533 212.129 154.502 211.811Z"/><path fill="#409BCB" d="M141.153 105.836C142.149 105.626 143.181 105.969 143.852 106.735C144.524 107.5 144.73 108.568 144.392 109.528C144.054 110.489 143.225 111.192 142.222 111.369C140.707 111.635 139.259 110.638 138.967 109.128C138.675 107.618 139.648 106.153 141.153 105.836Z"/><path fill="#409BCB" d="M235.034 193.368C236.022 193.101 237.077 193.391 237.79 194.124C238.503 194.857 238.763 195.92 238.468 196.9C238.174 197.879 237.371 198.623 236.372 198.841C234.878 199.168 233.396 198.243 233.033 196.758C232.669 195.272 233.558 193.768 235.034 193.368Z"/><path fill="#409BCB" d="M126.062 83.6163C127.568 83.2735 129.069 84.2077 129.426 85.7101C129.783 87.2125 128.863 88.7222 127.365 89.0938C125.845 89.4704 124.31 88.5354 123.948 87.0125C123.586 85.4896 124.536 83.9638 126.062 83.6163Z"/><path fill="#409BCB" d="M202.941 274.592C204.402 274.194 205.915 275.024 206.367 276.469C206.818 277.914 206.045 279.458 204.617 279.962C203.646 280.305 202.564 280.09 201.798 279.401C201.032 278.712 200.703 277.66 200.941 276.657C201.179 275.655 201.946 274.863 202.941 274.592Z"/><path fill="#409BCB" d="M39.0571 209.334C40.0298 209.033 41.0892 209.281 41.8275 209.982C42.5659 210.683 42.868 211.729 42.6177 212.715C42.3673 213.702 41.6035 214.477 40.6203 214.742C39.1388 215.14 37.611 214.279 37.185 212.805C36.7589 211.331 37.5915 209.788 39.0571 209.334Z"/><path fill="#409BCB" d="M121.625 101.11C123.09 100.588 124.7 101.352 125.222 102.817C125.744 104.281 124.979 105.891 123.515 106.413C122.051 106.934 120.442 106.169 119.92 104.706C119.399 103.242 120.162 101.633 121.625 101.11Z"/><path fill="#409BCB" d="M118.603 75.6387C120.135 75.5204 121.479 76.6532 121.622 78.1834C121.765 79.7136 120.654 81.0754 119.126 81.2426C118.116 81.3532 117.124 80.9106 116.532 80.0847C115.94 79.2587 115.839 78.1777 116.268 77.2565C116.697 76.3352 117.59 75.7169 118.603 75.6387Z"/><path fill="#409BCB" d="M98.3227 217.866C99.8375 217.766 101.158 218.886 101.307 220.397C101.456 221.908 100.379 223.264 98.8735 223.461C97.8557 223.595 96.8459 223.163 96.2391 222.335C95.6322 221.507 95.5246 220.415 95.9584 219.484C96.3922 218.554 97.2984 217.934 98.3227 217.866Z"/><path fill="#409BCB" d="M84.3395 214.809C85.7756 214.277 87.3732 214.992 87.9336 216.417C88.4941 217.842 87.8113 219.454 86.3977 220.043C85.4577 220.434 84.3795 220.287 83.5788 219.658C82.778 219.029 82.3798 218.017 82.5376 217.011C82.6954 216.005 83.3846 215.162 84.3395 214.809Z"/><path fill="#409BCB" d="M231.242 178.351C232.19 177.998 233.254 178.181 234.029 178.831C234.803 179.48 235.169 180.496 234.986 181.491C234.804 182.486 234.1 183.305 233.145 183.637C231.691 184.142 230.102 183.383 229.58 181.935C229.059 180.486 229.8 178.888 231.242 178.351Z"/><path fill="#409BCB" d="M66.5129 102.158C68.0343 102.026 69.3825 103.134 69.5481 104.652C69.7136 106.17 68.6359 107.542 67.1218 107.741C66.1124 107.874 65.1103 107.449 64.5027 106.633C63.8951 105.816 63.7771 104.734 64.1944 103.805C64.6116 102.877 65.4987 102.247 66.5129 102.158Z"/><path fill="#409BCB" d="M133.635 271.026C134.631 270.828 135.656 271.182 136.317 271.954C136.978 272.725 137.17 273.793 136.821 274.747C136.472 275.7 135.635 276.391 134.633 276.553C133.121 276.798 131.692 275.787 131.42 274.28C131.147 272.773 132.133 271.325 133.635 271.026Z"/><path fill="#409BCB" d="M98.3937 83.6417C99.3606 83.2789 100.449 83.4764 101.226 84.1557C102.004 84.8351 102.346 85.8867 102.116 86.8935C101.887 87.9003 101.123 88.6998 100.128 88.9749C98.6804 89.3749 97.1747 88.5652 96.7105 87.1373C96.2463 85.7095 96.988 84.1692 98.3937 83.6417Z"/><path fill="#409BCB" d="M70.2611 162.635C71.7608 162.278 73.2678 163.197 73.6358 164.694C74.0039 166.192 73.0951 167.705 71.6007 168.084C70.0908 168.467 68.5581 167.547 68.1862 166.034C67.8144 164.521 68.7458 162.995 70.2611 162.635Z"/><path fill="#409BCB" d="M149.42 262.066C150.393 261.79 151.438 262.059 152.157 262.77C152.875 263.482 153.155 264.525 152.889 265.5C152.623 266.475 151.852 267.232 150.872 267.48C149.386 267.855 147.874 266.968 147.477 265.488C147.081 264.008 147.946 262.484 149.42 262.066Z"/><path fill="#409BCB" d="M71.5568 141.875C73.0558 141.519 74.5607 142.441 74.9257 143.937C75.2907 145.434 74.379 146.945 72.8846 147.319C71.3767 147.697 69.8494 146.775 69.4811 145.265C69.1127 143.755 70.0442 142.233 71.5568 141.875Z"/><path fill="#409BCB" d="M212.911 88.3481C213.908 88.1023 214.959 88.4211 215.651 89.1792C216.344 89.9372 216.566 91.013 216.231 91.9834C215.896 92.9539 215.058 93.6635 214.045 93.8332C212.559 94.0822 211.143 93.112 210.837 91.6367C210.532 90.1613 211.448 88.7088 212.911 88.3481Z"/><path fill="#409BCB" d="M136.443 78.8935C137.91 78.4576 139.455 79.2789 139.914 80.7384C140.374 82.1979 139.577 83.7558 138.125 84.2381C137.165 84.5569 136.108 84.3335 135.359 83.6536C134.61 82.9737 134.285 81.9428 134.51 80.9565C134.735 79.9703 135.474 79.1818 136.443 78.8935Z"/><path fill="#409BCB" d="M173.544 167.334C174.463 166.867 175.564 166.943 176.411 167.53C177.258 168.117 177.715 169.122 177.6 170.147C177.484 171.171 176.816 172.05 175.86 172.434C174.468 172.994 172.882 172.359 172.262 170.993C171.641 169.626 172.207 168.014 173.544 167.334Z"/><path fill="#409BCB" d="M44.0611 78.8566C45.5591 78.6196 46.9737 79.6177 47.2526 81.1085C47.5314 82.5993 46.5733 84.0412 45.0909 84.3617C44.0944 84.5772 43.0595 84.2342 42.3889 83.4662C41.7182 82.6983 41.5178 81.6266 41.8655 80.6682C42.2132 79.7098 43.0541 79.0159 44.0611 78.8566Z"/><path fill="#409BCB" d="M68.0732 204.535C68.6887 203.131 70.3191 202.483 71.7306 203.082C73.1421 203.68 73.8096 205.303 73.228 206.721C72.8455 207.654 71.991 208.309 70.9908 208.437C69.9906 208.564 68.9993 208.143 68.3955 207.336C67.7916 206.529 67.6685 205.459 68.0732 204.535Z"/><path fill="#409BCB" d="M210.876 122.801C211.866 122.613 212.881 122.971 213.533 123.74C214.186 124.509 214.374 125.57 214.026 126.516C213.678 127.462 212.847 128.148 211.852 128.312C210.341 128.56 208.911 127.547 208.644 126.039C208.377 124.531 209.371 123.088 210.876 122.801Z"/><path fill="#409BCB" d="M83.9965 232.561C85.0008 232.361 86.0341 232.726 86.69 233.512C87.3459 234.299 87.5195 235.381 87.1426 236.333C86.7656 237.285 85.8984 237.955 84.882 238.079C83.3894 238.262 82.0196 237.231 81.7813 235.746C81.5431 234.262 82.5217 232.854 83.9965 232.561Z"/><path fill="#409BCB" d="M90.6381 272.363C91.6363 272.198 92.6459 272.585 93.2775 273.375C93.9091 274.166 94.0639 275.236 93.6822 276.173C93.3005 277.11 92.4419 277.767 91.4378 277.891C89.929 278.078 88.5481 277.023 88.3304 275.519C88.1128 274.014 89.1383 272.612 90.6381 272.363Z"/><path fill="#409BCB" d="M142.201 91.3779C143.174 91.0959 144.224 91.3635 144.944 92.0771C145.664 92.7907 145.941 93.8384 145.668 94.8145C145.394 95.7907 144.614 96.5421 143.628 96.7779C142.152 97.1309 140.665 96.2416 140.277 94.7748C139.889 93.3081 140.743 91.8 142.201 91.3779Z"/><path fill="#409BCB" d="M176.925 246.847C177.922 246.706 178.917 247.113 179.529 247.912C180.141 248.711 180.275 249.778 179.88 250.704C179.485 251.629 178.622 252.27 177.621 252.381C176.106 252.549 174.738 251.469 174.547 249.957C174.357 248.445 175.416 247.06 176.925 246.847Z"/><path fill="#409BCB" d="M71.0095 83.6186C72.4662 83.222 73.9738 84.0571 74.4104 85.5022C74.847 86.9473 74.0539 88.4774 72.6214 88.9538C71.6589 89.2738 70.5985 89.0459 69.8526 88.3585C69.1067 87.6711 68.793 86.6328 69.0335 85.6474C69.274 84.662 70.0308 83.885 71.0095 83.6186Z"/><path fill="#409BCB" d="M72.246 190.071C73.7466 189.949 75.0731 191.04 75.2421 192.536C75.4111 194.032 74.3614 195.392 72.8713 195.608C71.8653 195.753 70.8599 195.339 70.2477 194.528C69.6355 193.717 69.5134 192.636 69.9293 191.709C70.3451 190.781 71.2329 190.154 72.246 190.071Z"/><path fill="#409BCB" d="M66.5279 124.864C67.9989 124.435 69.5407 125.274 69.9779 126.743C70.415 128.212 69.5832 129.758 68.1166 130.203C66.6395 130.65 65.08 129.811 64.6397 128.332C64.1995 126.853 65.0464 125.297 66.5279 124.864Z"/><path fill="#409BCB" d="M110.347 103.581C111.825 103.269 113.281 104.192 113.63 105.662C113.978 107.131 113.091 108.61 111.631 108.995C110.653 109.252 109.613 108.959 108.914 108.23C108.214 107.501 107.965 106.449 108.262 105.484C108.56 104.518 109.358 103.789 110.347 103.581Z"/><path fill="#409BCB" d="M44.172 181.071C45.6331 180.584 47.2117 181.378 47.6915 182.842C48.1713 184.305 47.3692 185.88 45.9032 186.352C44.4478 186.821 42.887 186.026 42.4107 184.573C41.9344 183.12 42.7215 181.555 44.172 181.071Z"/><path fill="#409BCB" d="M232.531 268.807C233.987 268.395 235.504 269.224 235.945 270.67C236.387 272.117 235.59 273.651 234.152 274.122C233.196 274.435 232.145 274.207 231.404 273.525C230.664 272.843 230.35 271.814 230.584 270.835C230.818 269.857 231.563 269.081 232.531 268.807Z"/><path fill="#409BCB" d="M204.687 246.117C205.665 245.883 206.694 246.195 207.376 246.934C208.058 247.673 208.288 248.723 207.976 249.679C207.665 250.635 206.861 251.349 205.875 251.544C204.391 251.838 202.944 250.89 202.621 249.413C202.298 247.935 203.216 246.47 204.687 246.117Z"/><path fill="#409BCB" d="M52.7039 141.142C54.1324 140.633 55.7046 141.364 56.2362 142.784C56.7677 144.204 56.0622 145.788 54.651 146.343C53.7175 146.71 52.6588 146.545 51.8811 145.911C51.1035 145.278 50.7279 144.274 50.8984 143.286C51.0689 142.298 51.759 141.478 52.7039 141.142Z"/><path fill="#409BCB" d="M131.481 103.077C132.393 102.661 133.458 102.769 134.268 103.358C135.079 103.948 135.508 104.928 135.393 105.924C135.278 106.919 134.635 107.775 133.712 108.164C132.312 108.753 130.7 108.11 130.09 106.719C129.481 105.329 130.1 103.707 131.481 103.077Z"/><path fill="#409BCB" d="M96.4569 145.144C97.3743 144.73 98.4438 144.845 99.2522 145.445C100.061 146.044 100.481 147.034 100.352 148.032C100.223 149.03 99.5634 149.88 98.6289 150.254C97.2266 150.814 95.6334 150.152 95.0426 148.762C94.4519 147.372 95.0801 145.765 96.4569 145.144Z"/><path fill="#409BCB" d="M53.3402 150.888C54.8046 150.491 56.3164 151.344 56.733 152.803C57.1497 154.262 56.3164 155.785 54.863 156.221C53.9055 156.508 52.8676 156.258 52.1463 155.566C51.425 154.874 51.1319 153.847 51.3791 152.879C51.6262 151.91 52.3755 151.15 53.3402 150.888Z"/><path fill="#409BCB" d="M38.3947 189.601C39.3966 189.631 40.304 190.2 40.7682 191.088C41.2324 191.977 41.1812 193.046 40.6342 193.886C40.0872 194.726 39.1296 195.206 38.1295 195.14C36.6199 195.041 35.468 193.751 35.5403 192.24C35.6127 190.729 36.8827 189.555 38.3947 189.601Z"/><path fill="#409BCB" d="M97.9992 200.146C98.9297 199.785 99.9829 199.952 100.756 200.584C101.528 201.216 101.901 202.215 101.731 203.199C101.561 204.182 100.874 204.998 99.9343 205.334C98.5083 205.844 96.9374 205.113 96.4082 203.695C95.879 202.276 96.5878 200.695 97.9992 200.146Z"/><path fill="#409BCB" d="M68.1358 180.11C69.5938 179.62 71.171 180.414 71.6471 181.876C72.1232 183.339 71.3155 184.909 69.849 185.372C68.4009 185.829 66.8551 185.033 66.385 183.59C65.9149 182.146 66.6962 180.593 68.1358 180.11Z"/><path fill="#409BCB" d="M46.3427 114.654C47.7698 114.337 49.1972 115.185 49.6004 116.591C50.0036 117.996 49.2433 119.472 47.8652 119.96C46.896 120.303 45.8165 120.08 45.0624 119.381C44.3084 118.682 44.0044 117.623 44.2731 116.631C44.5419 115.638 45.339 114.877 46.3427 114.654Z"/><path fill="#409BCB" d="M220.894 216.137C222.338 215.682 223.879 216.472 224.352 217.91C224.825 219.347 224.054 220.898 222.622 221.389C221.68 221.711 220.638 221.503 219.893 220.842C219.147 220.182 218.815 219.172 219.022 218.198C219.23 217.224 219.945 216.437 220.894 216.137Z"/><path fill="#409BCB" d="M217.3 230.376C218.296 230.268 219.272 230.706 219.853 231.523C220.434 232.339 220.527 233.405 220.098 234.311C219.669 235.216 218.783 235.818 217.784 235.885C216.283 235.985 214.977 234.866 214.845 233.368C214.713 231.869 215.804 230.54 217.3 230.376Z"/><path fill="#409BCB" d="M45.814 264.582C46.7767 264.323 47.8039 264.603 48.5025 265.314C49.2011 266.025 49.4628 267.057 49.1875 268.015C48.9122 268.973 48.1426 269.709 47.1731 269.941C45.7024 270.292 44.2221 269.397 43.8504 267.932C43.4786 266.466 44.3534 264.973 45.814 264.582Z"/><path fill="#409BCB" d="M99.2704 115.106C100.246 114.885 101.265 115.21 101.934 115.954C102.603 116.697 102.818 117.745 102.495 118.692C102.173 119.639 101.365 120.338 100.381 120.52C98.9004 120.793 97.4734 119.832 97.1709 118.357C96.8685 116.882 97.8018 115.437 99.2704 115.106Z"/><path fill="#409BCB" d="M176.158 258.129C177.152 257.9 178.191 258.238 178.86 259.007C179.529 259.776 179.72 260.851 179.357 261.804C178.994 262.756 178.135 263.431 177.123 263.559C175.664 263.744 174.316 262.752 174.058 261.303C173.801 259.854 174.724 258.458 176.158 258.129Z"/><path fill="#409BCB" d="M44.3569 235.141C45.7888 234.811 47.2281 235.662 47.6296 237.075C48.0311 238.489 47.2538 239.969 45.8621 240.441C44.8976 240.768 43.8314 240.537 43.0888 239.84C42.3463 239.143 42.0482 238.093 42.3136 237.11C42.5789 236.127 43.3645 235.37 44.3569 235.141Z"/><path fill="#409BCB" d="M73.322 115.385C74.7667 114.922 76.3139 115.714 76.7842 117.156C77.2545 118.598 76.4712 120.15 75.0313 120.628C73.5808 121.109 72.0155 120.318 71.5417 118.865C71.0679 117.412 71.8665 115.851 73.322 115.385Z"/><path fill="#409BCB" d="M182.077 77.298C183.047 77.0244 184.089 77.3019 184.794 78.0215C185.499 78.7411 185.756 79.7882 185.463 80.7522C185.17 81.7163 184.374 82.4436 183.387 82.6491C181.934 82.9519 180.501 82.0486 180.148 80.6063C179.795 79.164 180.648 77.7011 182.077 77.298Z"/><path fill="#409BCB" d="M60.3506 165.324C61.8704 165.169 63.2258 166.281 63.3708 167.802C63.5159 169.322 62.395 170.67 60.8734 170.805C59.3658 170.939 58.0329 169.831 57.8892 168.324C57.7455 166.818 58.8449 165.478 60.3506 165.324Z"/><path fill="#409BCB" d="M67.2317 137.125C68.1487 136.688 69.2319 136.792 70.0493 137.395C70.8666 137.998 71.2851 139.002 71.1379 140.008C70.9907 141.013 70.3017 141.855 69.3456 142.198C67.9658 142.694 66.4396 142.02 65.8757 140.667C65.3118 139.314 65.9082 137.756 67.2317 137.125Z"/><path fill="#409BCB" d="M114.26 276.857C115.216 276.598 116.238 276.873 116.935 277.578C117.632 278.283 117.896 279.308 117.626 280.261C117.356 281.215 116.595 281.95 115.632 282.185C114.169 282.543 112.69 281.657 112.315 280.199C111.939 278.74 112.806 277.251 114.26 276.857Z"/><path fill="#409BCB" d="M78.2064 79.6571C79.6304 79.1129 81.2254 79.8306 81.7626 81.2573C82.2997 82.684 81.5741 84.2754 80.1448 84.8055C78.7254 85.3319 77.1475 84.6125 76.6141 83.1957C76.0807 81.7789 76.7923 80.1975 78.2064 79.6571Z"/><path fill="#409BCB" d="M105.215 122.401C106.125 121.937 107.217 122.016 108.051 122.606C108.886 123.196 109.324 124.199 109.19 125.212C109.056 126.225 108.372 127.08 107.414 127.433C106.048 127.936 104.526 127.287 103.943 125.953C103.36 124.619 103.918 123.062 105.215 122.401Z"/><path fill="#409BCB" d="M156.811 200.88C157.744 200.525 158.796 200.704 159.559 201.347C160.322 201.989 160.677 202.995 160.487 203.974C160.297 204.954 159.591 205.753 158.643 206.064C157.223 206.528 155.692 205.775 155.195 204.366C154.697 202.958 155.415 201.41 156.811 200.88Z"/><path fill="#409BCB" d="M66.8261 149.127C68.2854 148.902 69.6619 149.87 69.9437 151.319C70.2256 152.768 69.312 154.181 67.8747 154.519C66.8939 154.75 65.8655 154.426 65.1946 153.674C64.5237 152.922 64.3179 151.864 64.6582 150.915C64.9985 149.967 65.8303 149.281 66.8261 149.127Z"/><path fill="#409BCB" d="M173.544 268.806C174.505 268.54 175.534 268.814 176.234 269.523C176.935 270.232 177.197 271.264 176.919 272.221C176.641 273.178 175.867 273.91 174.896 274.133C173.44 274.469 171.983 273.579 171.615 272.131C171.248 270.683 172.105 269.206 173.544 268.806Z"/><path fill="#409BCB" d="M165 192.089C166.402 191.504 168.012 192.167 168.594 193.57C169.176 194.973 168.507 196.582 167.102 197.16C165.703 197.735 164.103 197.07 163.524 195.672C162.944 194.275 163.605 192.673 165 192.089Z"/><path fill="#409BCB" d="M97.8635 246.792C99.3329 246.633 100.663 247.669 100.869 249.133C101.075 250.596 100.083 251.959 98.6266 252.212C97.6419 252.384 96.6422 252.005 96.0182 251.224C95.3942 250.443 95.2452 249.384 95.6293 248.462C96.0135 247.539 96.8698 246.899 97.8635 246.792Z"/><path fill="#409BCB" d="M125.687 116.805C127.105 116.273 128.685 116.994 129.214 118.413C129.743 119.832 129.019 121.411 127.599 121.937C126.183 122.461 124.61 121.74 124.083 120.325C123.555 118.91 124.273 117.335 125.687 116.805Z"/><path fill="#409BCB" d="M61.7739 186.877C62.6841 186.475 63.7407 186.598 64.5337 187.199C65.3267 187.8 65.7314 188.784 65.5907 189.769C65.4501 190.754 64.7862 191.585 63.8566 191.94C62.4692 192.47 60.9125 191.797 60.3475 190.423C59.7826 189.05 60.4154 187.477 61.7739 186.877Z"/><path fill="#409BCB" d="M53.7161 250.435C55.1292 249.899 56.7086 250.613 57.2404 252.028C57.7723 253.442 57.0545 255.02 55.6386 255.548C54.2279 256.074 52.6574 255.359 52.1275 253.95C51.5976 252.541 52.3082 250.968 53.7161 250.435Z"/><path fill="#409BCB" d="M62.005 77.8698C62.9291 77.502 63.9802 77.6661 64.7482 78.2982C65.5162 78.9302 65.8795 79.9301 65.6965 80.9077C65.5134 81.8854 64.8129 82.686 63.8682 82.9973C62.4672 83.459 60.9529 82.7238 60.4491 81.3374C59.9453 79.951 60.6344 78.4152 62.005 77.8698Z"/><path fill="#409BCB" d="M51.5391 92.8394C52.496 92.6186 53.4978 92.9291 54.1622 93.6524C54.8265 94.3756 55.051 95.4001 54.7499 96.3349C54.4488 97.2697 53.6686 97.9706 52.707 98.1701C51.2429 98.4739 49.807 97.5429 49.487 96.0823C49.167 94.6217 50.0821 93.1756 51.5391 92.8394Z"/><path fill="#409BCB" d="M123.671 260.85C124.588 260.473 125.638 260.624 126.412 261.244C127.187 261.864 127.564 262.856 127.397 263.833C127.23 264.811 126.545 265.621 125.609 265.949C124.213 266.438 122.682 265.726 122.157 264.344C121.631 262.961 122.303 261.412 123.671 260.85Z"/><path fill="#409BCB" d="M54.1293 239.344C55.0863 239.099 56.1007 239.393 56.7787 240.112C57.4566 240.83 57.6912 241.86 57.3912 242.801C57.0913 243.742 56.3042 244.446 55.3356 244.64C53.8919 244.929 52.4811 244.015 52.1541 242.579C51.8272 241.144 52.7031 239.709 54.1293 239.344Z"/><path fill="#409BCB" d="M76.1089 280.105C77.564 279.754 79.0292 280.646 79.3839 282.101C79.7386 283.555 78.849 285.022 77.3953 285.38C75.9373 285.739 74.4648 284.846 74.1091 283.387C73.7533 281.928 74.6493 280.458 76.1089 280.105Z"/><path fill="#409BCB" d="M176.208 281.091C177.602 280.516 179.197 281.187 179.761 282.586C180.324 283.984 179.64 285.574 178.237 286.126C176.85 286.672 175.283 285.998 174.726 284.615C174.168 283.233 174.83 281.66 176.208 281.091Z"/><path fill="#409BCB" d="M145.57 207.144C146.95 206.591 148.517 207.256 149.078 208.632C149.64 210.009 148.985 211.58 147.612 212.15C146.227 212.724 144.639 212.062 144.073 210.674C143.507 209.286 144.178 207.702 145.57 207.144Z"/><path fill="#409BCB" d="M84.1102 186.832C85.043 186.461 86.1042 186.639 86.8648 187.294C87.6255 187.949 87.9599 188.971 87.7328 189.949C87.5057 190.926 86.7546 191.697 85.7833 191.949C84.4041 192.307 82.9843 191.531 82.5416 190.177C82.0988 188.822 82.7859 187.357 84.1102 186.832Z"/><path fill="#409BCB" d="M51.5283 190.87C52.9684 190.606 54.3555 191.54 54.6531 192.974C54.9507 194.407 54.0501 195.816 52.6241 196.148C51.671 196.37 50.6726 196.057 50.0155 195.332C49.3584 194.607 49.1457 193.583 49.4599 192.656C49.774 191.73 50.5657 191.046 51.5283 190.87Z"/><path fill="#409BCB" d="M52.5627 225.66C53.4554 225.264 54.4928 225.381 55.2744 225.967C56.0561 226.552 56.4597 227.515 56.3296 228.483C56.1994 229.451 55.5558 230.273 54.6471 230.632C53.2827 231.17 51.7382 230.519 51.1711 229.166C50.6039 227.814 51.2223 226.256 52.5627 225.66Z"/><path fill="#409BCB" d="M110.99 216.859C111.928 216.59 112.938 216.849 113.63 217.536C114.323 218.224 114.589 219.232 114.327 220.171C114.065 221.111 113.316 221.836 112.368 222.066C110.943 222.411 109.504 221.554 109.129 220.137C108.754 218.72 109.581 217.263 110.99 216.859Z"/><path fill="#409BCB" d="M114.552 127.153C115.943 126.677 117.458 127.404 117.956 128.787C118.454 130.17 117.751 131.696 116.376 132.216C115.467 132.56 114.444 132.387 113.698 131.764C112.953 131.141 112.601 130.164 112.778 129.209C112.955 128.253 113.633 127.467 114.552 127.153Z"/><path fill="#409BCB" d="M115.009 225.843C115.919 225.453 116.97 225.596 117.743 226.214C118.516 226.833 118.886 227.826 118.706 228.8C118.526 229.773 117.825 230.569 116.882 230.869C115.516 231.305 114.05 230.591 113.549 229.248C113.049 227.906 113.692 226.406 115.009 225.843Z"/><path fill="#409BCB" d="M44.1601 251.071C45.5689 250.614 47.0809 251.391 47.5282 252.803C47.9755 254.215 47.1869 255.721 45.7716 256.158C44.3708 256.591 42.8836 255.812 42.441 254.415C41.9983 253.017 42.7659 251.524 44.1601 251.071Z"/><path fill="#409BCB" d="M77.0474 263.874C77.9269 263.468 78.9578 263.572 79.7387 264.145C80.5196 264.719 80.9271 265.671 80.8026 266.632C80.678 267.593 80.0411 268.41 79.1398 268.765C77.8002 269.294 76.2835 268.66 75.7171 267.337C75.1508 266.013 75.7403 264.478 77.0474 263.874Z"/><path fill="#409BCB" d="M100.208 268.089C101.11 267.746 102.128 267.925 102.86 268.554C103.592 269.183 103.921 270.162 103.718 271.106C103.515 272.049 102.813 272.806 101.887 273.079C100.528 273.479 99.0968 272.734 98.6453 271.392C98.1939 270.05 98.884 268.591 100.208 268.089Z"/><path fill="#409BCB" d="M210.433 138.303C214.477 139.213 214.798 141.607 211.155 143.61C207.96 144.044 207.018 139.931 210.433 138.303Z"/><path fill="#409BCB" d="M196.551 85.6539C200.253 85.7201 201.656 89.0561 199.109 91.3535C196.403 90.3158 192.916 88.4155 196.551 85.6539Z"/><path fill="#409BCB" d="M158.729 77.1916C162.45 77.2838 162.916 80.5411 159.716 82.5142C158.738 82.7953 158.161 82.6861 157.296 82.167C155.787 80.3531 157.307 78.4075 158.729 77.1916Z"/><path fill="#409BCB" d="M198.594 128.031C200.084 127.957 202.891 127.76 201.867 130.588C201.516 131.556 200.519 131.914 199.578 132.279C196.769 133.214 194.621 129.39 198.594 128.031Z"/><path fill="#409BCB" d="M288.782 47.5577C291.35 46.9675 293.918 48.54 294.56 51.0956C295.202 53.6512 293.681 56.2507 291.139 56.9439C289.722 57.3302 288.206 57.0523 287.019 56.1883C285.831 55.3244 285.1 53.9678 285.031 52.5007C284.981 51.4185 285.295 50.3506 285.923 49.468C286.61 48.5028 287.627 47.8231 288.782 47.5577ZM289.549 53.4689C290.436 53.1579 290.791 53.1054 291.344 52.3157C291.52 51.4369 291.559 51.8052 291.11 50.9174C290.526 50.505 290.454 50.4344 289.789 50.2044C288.628 50.947 287.449 51.81 288.512 53.1921C288.899 53.3164 289.144 53.422 289.549 53.4689Z"/><path fill="#409BCB" d="M286.188 69.0755C287.602 68.7796 289.075 69.1328 290.201 70.038C291.327 70.9432 291.988 72.3053 292.003 73.75C292.026 75.9643 290.54 77.9102 288.398 78.4704C286.702 78.9138 284.898 78.4029 283.687 77.1357C282.476 75.8685 282.047 74.0441 282.566 72.3698C283.086 70.6955 284.472 69.4345 286.188 69.0755ZM287.863 75.4513C288.801 75.0007 289.212 73.8873 288.793 72.9347C288.374 71.982 287.275 71.5334 286.309 71.9207C285.655 72.1829 285.196 72.7809 285.111 73.4805C285.027 74.1802 285.33 74.8703 285.903 75.2807C286.476 75.6911 287.227 75.7565 287.863 75.4513Z"/><path fill="#409BCB" d="M277.077 110.946C279.597 110.215 282.236 111.65 282.993 114.163C283.75 116.675 282.343 119.329 279.838 120.112C278.195 120.626 276.402 120.218 275.143 119.043C273.884 117.867 273.353 116.106 273.753 114.431C274.153 112.756 275.423 111.425 277.077 110.946ZM278.696 117.888C280.938 116.462 280.779 114.402 278.333 113.357C276.42 115.136 275.792 116.77 278.696 117.888Z"/><path fill="#409BCB" d="M255.937 131.328C258.509 131.057 260.825 132.892 261.151 135.457C261.476 138.023 259.692 140.378 257.134 140.758C255.43 141.011 253.722 140.323 252.67 138.959C251.618 137.595 251.386 135.769 252.064 134.185C252.742 132.601 254.224 131.508 255.937 131.328ZM256.889 137.767C257.561 137.527 258.048 136.939 258.16 136.235C258.272 135.53 257.992 134.821 257.429 134.383C256.865 133.946 256.108 133.85 255.454 134.133C254.485 134.552 254.024 135.664 254.411 136.645C254.799 137.626 255.896 138.123 256.889 137.767Z"/><path fill="#409BCB" d="M271.209 66.6333C273.719 65.8385 276.396 67.2447 277.166 69.763C277.936 72.2813 276.504 74.9441 273.978 75.6893C272.005 76.2712 269.883 75.5135 268.725 73.8141C267.567 72.1147 267.638 69.8621 268.901 68.2392C269.49 67.4826 270.295 66.9226 271.209 66.6333ZM273.402 72.8342C274.351 72.4422 274.822 71.3715 274.47 70.4069C274.118 69.4423 273.068 68.9269 272.089 69.2384C271.419 69.4518 270.919 70.0155 270.788 70.7066C270.657 71.3977 270.915 72.1051 271.461 72.5493C272.006 72.9934 272.752 73.1028 273.402 72.8342Z"/><path fill="#409BCB" d="M277.43 146.099C278.661 145.855 279.939 146.113 280.98 146.815C282.586 147.898 283.365 149.855 282.943 151.746C282.522 153.638 280.985 155.078 279.07 155.376C278.114 155.525 277.135 155.376 276.267 154.949C274.453 154.058 273.41 152.11 273.673 150.107C273.937 148.104 275.448 146.491 277.43 146.099ZM278.773 152.573C279.856 152.384 280.579 151.35 280.383 150.268C280.187 149.187 279.148 148.471 278.067 148.675C276.998 148.877 276.291 149.903 276.485 150.974C276.679 152.045 277.701 152.759 278.773 152.573Z"/><path fill="#409BCB" d="M255.087 188.121C256.46 187.783 257.912 188.079 259.042 188.928C260.172 189.777 260.861 191.089 260.918 192.501C261.008 194.725 259.53 196.707 257.373 197.255C254.847 197.896 252.28 196.363 251.648 193.835C251.015 191.307 252.557 188.745 255.087 188.121ZM256.407 194.844C258.702 193.258 258.676 191.153 255.838 190.387C253.721 192.136 253.332 193.979 256.407 194.844Z"/><path fill="#409BCB" d="M259.154 148.054C261.706 147.681 264.083 149.433 264.48 151.981C264.877 154.53 263.146 156.922 260.602 157.342C258.024 157.768 255.594 156.01 255.192 153.429C254.789 150.847 256.569 148.433 259.154 148.054ZM260.549 154.69C261.534 154.306 262.05 153.222 261.726 152.215C261.402 151.209 260.35 150.63 259.326 150.893C258.607 151.078 258.05 151.646 257.879 152.369C257.709 153.091 257.953 153.849 258.513 154.336C259.073 154.823 259.857 154.959 260.549 154.69Z"/><path fill="#409BCB" d="M264.564 77.7386C265.554 77.7164 266.332 77.856 267.203 78.3141C268.344 78.9099 269.187 79.953 269.529 81.1942C269.883 82.4421 269.723 83.78 269.084 84.9089C268.215 86.4664 267.106 86.8156 265.521 87.2397C262.059 87.4571 259.462 84.8247 260.64 81.3395C261.387 79.13 262.616 78.6665 264.564 77.7386ZM265.659 84.1285C266.628 83.7411 267.1 82.6422 266.714 81.6728C266.328 80.7034 265.23 80.2299 264.26 80.6146C263.288 81.0001 262.814 82.1009 263.2 83.0721C263.587 84.0434 264.689 84.5165 265.659 84.1285Z"/><path fill="#409BCB" d="M254.516 113.336C256.197 113.044 257.904 113.688 258.974 115.017C260.044 116.346 260.308 118.152 259.664 119.732C259.02 121.312 257.57 122.418 255.875 122.621C253.349 122.923 251.042 121.158 250.673 118.64C250.305 116.123 252.009 113.77 254.516 113.336ZM255.873 119.979C256.859 119.644 257.413 118.598 257.137 117.594C256.861 116.589 255.851 115.973 254.832 116.189C254.116 116.34 253.543 116.875 253.344 117.579C253.145 118.283 253.353 119.04 253.883 119.543C254.414 120.047 255.18 120.215 255.873 119.979Z"/><path fill="#409BCB" d="M253.939 85.3301C255.863 84.8728 257.867 85.6715 258.95 87.3268C259.779 88.5944 259.945 90.1842 259.396 91.5957C258.846 93.0072 257.65 94.0668 256.182 94.4409C253.657 95.0845 251.091 93.5467 250.468 91.0163C249.845 88.4859 251.403 85.9326 253.939 85.3301ZM255.37 91.4534C256.262 91.2309 256.842 90.3702 256.713 89.4598C256.584 88.5494 255.788 87.8837 254.869 87.9177C254.183 87.9431 253.572 88.3569 253.294 88.9839C253.016 89.6109 253.12 90.3415 253.561 90.8666C254.002 91.3917 254.704 91.6194 255.37 91.4534Z"/><path fill="#409BCB" d="M279.43 178.862C281.964 178.31 284.464 179.924 285.004 182.461C285.543 184.998 283.917 187.49 281.377 188.016C278.856 188.539 276.385 186.927 275.85 184.408C275.314 181.889 276.914 179.411 279.43 178.862ZM281.142 185.056C282.133 184.68 282.643 183.581 282.29 182.581C281.937 181.581 280.849 181.046 279.842 181.377C279.169 181.597 278.669 182.165 278.534 182.86C278.4 183.554 278.652 184.268 279.193 184.724C279.734 185.18 280.48 185.307 281.142 185.056Z"/><path fill="#409BCB" d="M261.055 222.358C263.585 222.128 265.837 223.959 266.127 226.483C266.417 229.008 264.64 231.302 262.123 231.652C260.441 231.886 258.765 231.19 257.743 229.834C256.721 228.478 256.514 226.675 257.201 225.123C257.889 223.57 259.364 222.512 261.055 222.358ZM262.101 228.896C263.128 228.525 263.659 227.392 263.289 226.364C262.92 225.337 261.788 224.803 260.759 225.171C259.729 225.54 259.193 226.675 259.564 227.705C259.935 228.736 261.071 229.269 262.101 228.896Z"/><path fill="#409BCB" d="M290.567 223.873C293.137 223.56 295.47 225.4 295.765 227.972C296.06 230.544 294.204 232.864 291.63 233.142C290.779 233.234 289.92 233.09 289.145 232.726C287.263 231.841 286.194 229.818 286.524 227.764C286.853 225.711 288.502 224.124 290.567 223.873ZM291.868 230.241C292.87 229.852 293.376 228.732 293.005 227.724C292.634 226.715 291.524 226.189 290.509 226.541C289.836 226.775 289.341 227.354 289.215 228.055C289.089 228.757 289.352 229.472 289.902 229.925C290.452 230.378 291.204 230.499 291.868 230.241Z"/><path fill="#409BCB" d="M259.311 201.159C261.838 200.985 264.04 202.867 264.26 205.391C264.48 207.914 262.638 210.149 260.119 210.415C258.845 210.55 257.572 210.153 256.6 209.317C255.629 208.481 255.046 207.282 254.989 206.002C254.877 203.482 256.795 201.333 259.311 201.159ZM260.361 207.429C261.317 206.996 261.751 205.876 261.336 204.911C260.921 203.946 259.81 203.49 258.837 203.886C258.191 204.15 257.737 204.741 257.651 205.434C257.564 206.127 257.859 206.812 258.421 207.226C258.983 207.639 259.725 207.717 260.361 207.429Z"/><path fill="#409BCB" d="M259 171.603C260.615 171.135 262.357 171.578 263.553 172.76C264.75 173.942 265.212 175.679 264.763 177.3C264.313 178.921 263.022 180.171 261.388 180.569C258.936 181.165 256.457 179.693 255.808 177.254C255.158 174.816 256.576 172.306 259 171.603ZM260.873 177.775C261.525 177.605 262.035 177.096 262.204 176.443C262.374 175.791 262.177 175.098 261.69 174.632C261.203 174.166 260.502 174 259.857 174.198C258.891 174.496 258.339 175.511 258.616 176.484C258.892 177.456 259.895 178.03 260.873 177.775Z"/><path fill="#409BCB" d="M268.855 86.9938C273.815 86.7877 271.74 88.4414 272.208 91.2671C272.245 91.4909 277.843 95.7264 272.689 97.2761C268.94 97.3675 268.949 95.6055 268.451 92.488C266.301 90.3762 266.167 88.5611 268.855 86.9938Z"/><path fill="#409BCB" d="M296.953 62.486C301.034 62.4146 303.184 65.3961 299.476 67.8583C295.618 68.658 293.725 65.0252 296.953 62.486Z"/><path fill="#409BCB" d="M275.551 50.3901C277.022 49.8499 278.655 50.5787 279.236 52.0342C279.816 53.4897 279.133 55.1429 277.694 55.7632C276.727 56.18 275.61 56.0389 274.778 55.3947C273.945 54.7504 273.528 53.7048 273.689 52.6644C273.85 51.624 274.563 50.753 275.551 50.3901Z"/><path fill="#409BCB" d="M267.677 56.474C271.744 56.7034 273.323 59.9047 270.029 62.3098C266.084 62.418 264.395 59.1553 267.677 56.474Z"/><path fill="#409BCB" d="M253.539 142.621C254.554 142.352 255.635 142.656 256.361 143.415C257.087 144.173 257.343 145.267 257.029 146.269C256.716 147.271 255.882 148.024 254.853 148.233C253.324 148.545 251.826 147.584 251.47 146.065C251.114 144.546 252.031 143.02 253.539 142.621Z"/><path fill="#409BCB" d="M268.508 180.062C270.055 179.685 271.615 180.636 271.988 182.185C272.361 183.733 271.406 185.291 269.857 185.66C268.312 186.029 266.761 185.078 266.389 183.534C266.017 181.99 266.965 180.437 268.508 180.062Z"/><path fill="#409BCB" d="M250.19 210.369C251.215 210.109 252.301 210.432 253.017 211.212C253.732 211.991 253.963 213.1 253.617 214.1C253.27 215.1 252.403 215.829 251.359 215.998C249.839 216.245 248.394 215.251 248.081 213.743C247.767 212.236 248.697 210.748 250.19 210.369Z"/><path fill="#409BCB" d="M266.65 100.01C266.788 100.05 266.926 100.091 267.064 100.135C270.895 101.377 270.182 104.571 266.835 106.127C265.688 105.846 264.513 105.135 264.089 103.977C263.814 103.206 263.878 102.355 264.266 101.635C264.837 100.555 265.578 100.349 266.65 100.01Z"/><path fill="#409BCB" d="M276.208 103.601C277.199 103.261 278.297 103.488 279.071 104.195C279.845 104.901 280.171 105.974 279.922 106.992C279.673 108.01 278.888 108.81 277.875 109.079C276.384 109.475 274.848 108.62 274.399 107.145C273.95 105.669 274.749 104.103 276.208 103.601Z"/><path fill="#409BCB" d="M264.826 136.488C268.69 136.47 269.914 140.482 265.876 142.291C262.134 141.746 261.098 138.5 264.826 136.488Z"/><path fill="#409BCB" d="M270.047 144.134C271.551 143.713 273.115 144.577 273.561 146.075C274.006 147.572 273.168 149.15 271.677 149.62C270.692 149.93 269.615 149.685 268.861 148.978C268.106 148.272 267.792 147.213 268.038 146.209C268.283 145.205 269.051 144.412 270.047 144.134Z"/><path fill="#409BCB" d="M277.045 125.865C278.035 125.551 279.117 125.797 279.873 126.509C280.629 127.222 280.939 128.287 280.685 129.294C280.43 130.301 279.649 131.09 278.646 131.357C277.145 131.755 275.6 130.883 275.165 129.392C274.73 127.901 275.565 126.336 277.045 125.865Z"/><path fill="#409BCB" d="M293.534 81.3417C295.03 81.0533 296.489 81.9909 296.847 83.4715C297.206 84.9521 296.338 86.4532 294.876 86.8811C293.867 87.1764 292.777 86.8928 292.04 86.1431C291.303 85.3934 291.038 84.2991 291.35 83.2953C291.663 82.2914 292.502 81.5407 293.534 81.3417Z"/><path fill="#409BCB" d="M293.178 112.334C294.156 112.004 295.236 112.228 296.001 112.921C296.766 113.615 297.095 114.668 296.862 115.673C296.629 116.679 295.87 117.479 294.878 117.765C293.392 118.193 291.836 117.356 291.374 115.88C290.912 114.405 291.713 112.83 293.178 112.334Z"/><path fill="#409BCB" d="M267.153 119.603C268.152 119.362 269.203 119.68 269.9 120.434C270.598 121.189 270.833 122.261 270.514 123.238C270.196 124.215 269.374 124.943 268.366 125.142C266.852 125.44 265.378 124.473 265.048 122.966C264.718 121.459 265.653 119.965 267.153 119.603Z"/><path fill="#409BCB" d="M278.465 95.377C279.401 94.9695 280.484 95.098 281.299 95.7131C282.113 96.3282 282.533 97.3345 282.397 98.3462C282.262 99.3578 281.591 100.218 280.643 100.597C279.208 101.17 277.579 100.485 276.984 99.0593C276.389 97.6333 277.049 95.9938 278.465 95.377Z"/><path fill="#409BCB" d="M249.165 180.319C250.161 179.986 251.26 180.233 252.018 180.96C252.776 181.687 253.068 182.775 252.776 183.785C252.484 184.794 251.656 185.558 250.627 185.768C249.163 186.067 247.719 185.175 247.332 183.731C246.945 182.288 247.748 180.793 249.165 180.319Z"/><path fill="#409BCB" d="M297.02 168.009C301.039 167.838 302.684 170.858 299.086 173.315C295.033 173.838 293.848 170.185 297.02 168.009Z"/><path fill="#409BCB" d="M295.543 196.095C296.549 195.922 297.571 196.306 298.213 197.1C298.855 197.894 299.017 198.974 298.637 199.921C298.257 200.869 297.395 201.537 296.382 201.668C294.861 201.864 293.463 200.808 293.235 199.292C293.006 197.776 294.032 196.356 295.543 196.095Z"/><path fill="#409BCB" d="M268.282 205.6C269.813 205.413 271.209 206.493 271.412 208.022C271.615 209.55 270.549 210.957 269.022 211.176C268.021 211.32 267.019 210.914 266.4 210.114C265.78 209.314 265.638 208.243 266.027 207.309C266.417 206.375 267.278 205.723 268.282 205.6Z"/><path fill="#409BCB" d="M268.676 193.408C269.662 193.178 270.695 193.497 271.381 194.242C272.066 194.987 272.298 196.043 271.986 197.007C271.675 197.97 270.87 198.691 269.878 198.895C268.373 199.204 266.898 198.246 266.57 196.744C266.241 195.243 267.179 193.756 268.676 193.408Z"/><path fill="#409BCB" d="M261.686 108.554C263.176 108.175 264.693 109.07 265.083 110.558C265.473 112.046 264.59 113.569 263.105 113.97C261.605 114.376 260.061 113.481 259.667 111.978C259.273 110.474 260.179 108.937 261.686 108.554Z"/><path fill="#409BCB" d="M298.683 145.845C300.16 145.376 301.736 146.196 302.199 147.674C302.663 149.152 301.837 150.725 300.357 151.183C298.886 151.638 297.323 150.817 296.862 149.348C296.401 147.878 297.215 146.312 298.683 145.845Z"/><path fill="#409BCB" d="M276.41 161.086C277.867 160.554 279.479 161.309 280.002 162.769C280.525 164.229 279.76 165.836 278.297 166.35C276.846 166.859 275.257 166.102 274.738 164.655C274.22 163.208 274.967 161.614 276.41 161.086Z"/><path fill="#409BCB" d="M280.936 132.906C281.837 132.452 282.913 132.52 283.75 133.084C284.587 133.648 285.054 134.619 284.973 135.625C284.891 136.63 284.273 137.514 283.356 137.935C281.973 138.571 280.335 137.981 279.675 136.61C279.015 135.238 279.576 133.59 280.936 132.906Z"/><path fill="#409BCB" d="M289.81 161.377C290.759 161.002 291.838 161.176 292.62 161.831C293.402 162.487 293.763 163.518 293.559 164.518C293.355 165.518 292.62 166.326 291.643 166.623C290.216 167.057 288.701 166.288 288.209 164.88C287.717 163.472 288.423 161.927 289.81 161.377Z"/><path fill="#409BCB" d="M286.52 98.8578C287.463 98.481 288.536 98.6487 289.319 99.295C290.102 99.9413 290.47 100.963 290.279 101.96C290.088 102.957 289.368 103.771 288.401 104.082C286.976 104.54 285.445 103.787 284.938 102.378C284.43 100.97 285.13 99.4131 286.52 98.8578Z"/><path fill="#409BCB" d="M280.048 211.865C281.004 211.57 282.045 211.811 282.773 212.497C283.501 213.183 283.804 214.207 283.566 215.179C283.328 216.15 282.586 216.919 281.624 217.191C280.161 217.604 278.637 216.764 278.206 215.306C277.774 213.848 278.596 212.314 280.048 211.865Z"/><path fill="#409BCB" d="M273.296 218.402C274.803 218.264 276.141 219.362 276.299 220.866C276.458 222.371 275.377 223.723 273.875 223.902C272.886 224.019 271.909 223.595 271.32 222.791C270.73 221.988 270.619 220.929 271.028 220.02C271.437 219.112 272.304 218.494 273.296 218.402Z"/><path fill="#409BCB" d="M286.219 207.108C287.173 206.821 288.207 207.068 288.927 207.757C289.647 208.445 289.94 209.467 289.696 210.433C289.451 211.398 288.706 212.157 287.745 212.419C286.287 212.818 284.779 211.97 284.361 210.517C283.944 209.064 284.772 207.545 286.219 207.108Z"/><path fill="#409BCB" d="M289.363 125.119C290.877 124.893 292.286 125.941 292.505 127.456C292.723 128.971 291.668 130.375 290.152 130.585C288.647 130.794 287.255 129.748 287.038 128.244C286.821 126.741 287.86 125.344 289.363 125.119Z"/><path fill="#409BCB" d="M268.062 155.703C272.172 156.27 272.393 159.575 268.962 161.349C267.733 161.26 266.644 160.797 266.042 159.648C265.723 159.026 265.667 158.302 265.886 157.638C266.268 156.483 267.052 156.175 268.062 155.703Z"/><path fill="#409BCB" d="M270.626 169.45C272.055 168.989 273.587 169.772 274.052 171.2C274.516 172.627 273.738 174.162 272.311 174.63C270.879 175.101 269.337 174.319 268.871 172.885C268.404 171.452 269.191 169.912 270.626 169.45Z"/><path fill="#409BCB" d="M284.757 196.194C285.73 195.938 286.765 196.24 287.448 196.978C288.131 197.717 288.35 198.773 288.018 199.722C287.686 200.672 286.857 201.361 285.863 201.514C284.433 201.733 283.081 200.795 282.787 199.378C282.492 197.962 283.358 196.563 284.757 196.194Z"/><path fill="#409BCB" d="M255.289 162.098C256.223 161.793 257.25 162.016 257.972 162.683C258.695 163.349 259.001 164.355 258.772 165.311C258.542 166.267 257.814 167.024 256.868 167.29C255.446 167.69 253.965 166.88 253.536 165.467C253.106 164.054 253.885 162.557 255.289 162.098Z"/><path fill="#409BCB" d="M195.04 27.814C197.579 27.339 200.037 28.9605 200.601 31.4811C201.164 34.0018 199.63 36.5157 197.13 37.1667C195.434 37.6086 193.632 37.0895 192.43 35.8131C191.229 34.5366 190.82 32.7063 191.363 31.0398C191.907 29.3733 193.317 28.1364 195.04 27.814ZM196.127 34.2736C197.121 34.1758 197.876 33.3359 197.869 32.337C197.861 31.3381 197.093 30.5098 196.098 30.427C195.368 30.3664 194.667 30.7231 194.287 31.3484C193.907 31.9737 193.913 32.7602 194.303 33.3797C194.692 33.9992 195.398 34.3453 196.127 34.2736Z"/><path fill="#409BCB" d="M108.558 56.5978C111.133 55.9285 113.761 57.486 114.409 60.0666C115.058 62.6471 113.48 65.262 110.894 65.8901C108.337 66.5112 105.758 64.9543 105.117 62.4027C104.475 59.8511 106.012 57.2596 108.558 56.5978ZM110.819 62.874C112.94 61.0311 111.633 59.2015 109.368 59.22L109.08 59.2249C107.962 60.3854 107.48 61.2288 108.417 62.691C109.292 63.2464 109.857 63.1786 110.819 62.874Z"/><path fill="#409BCB" d="M180.167 54.7686C181.186 54.6751 182.412 54.938 183.444 55.1087C187.051 58.0178 186.687 62.7804 181.859 64.0411C178.181 64.1663 177.206 62.9868 176.191 59.6607C176.512 57.855 176.536 57.3571 177.479 55.7743L180.167 54.7686ZM181.459 61.1695C182.509 60.9697 183.198 59.9574 183 58.9074C182.801 57.8573 181.79 57.1666 180.74 57.3638C179.687 57.5613 178.995 58.5749 179.194 59.6268C179.393 60.6787 180.407 61.3697 181.459 61.1695Z"/><path fill="#409BCB" d="M154.889 29.3281C156.553 28.8855 158.327 29.3777 159.525 30.6147C160.724 31.8518 161.159 33.6402 160.664 35.2898C160.169 36.9394 158.82 38.1921 157.138 38.5645C154.613 39.1238 152.103 37.5612 151.491 35.0478C150.879 32.5345 152.389 29.9929 154.889 29.3281ZM156.879 35.8278C157.55 35.5543 158.022 34.94 158.112 34.221C158.202 33.5021 157.897 32.7904 157.314 32.3598C156.732 31.9291 155.962 31.8465 155.301 32.1437C154.304 32.592 153.85 33.7564 154.281 34.7611C154.711 35.7658 155.867 36.2403 156.879 35.8278Z"/><path fill="#409BCB" d="M106.454 29.3122C108.138 28.9082 109.909 29.4533 111.074 30.7346C112.239 32.0159 112.615 33.8301 112.053 35.4685C111.492 37.107 110.083 38.3099 108.377 38.6073C106.795 38.8829 105.181 38.3408 104.087 37.1661C102.936 35.9305 102.528 34.1764 103.015 32.5595C103.502 30.9426 104.812 29.7061 106.454 29.3122ZM108.145 35.8532C109.157 35.5275 109.718 34.4474 109.402 33.4326C109.086 32.4177 108.011 31.8468 106.993 32.1531C105.962 32.4636 105.381 33.5561 105.702 34.5848C106.022 35.6136 107.12 36.1834 108.145 35.8532Z"/><path fill="#409BCB" d="M255.776 35.7493C258.3 35.2395 260.77 36.8356 261.342 39.3461C261.914 41.8566 260.379 44.3653 257.884 44.9994C256.214 45.4237 254.445 44.9092 253.263 43.6553C252.081 42.4014 251.671 40.6052 252.193 38.9629C252.715 37.3207 254.087 36.0905 255.776 35.7493ZM256.528 42.2354C258.664 41.0167 258.999 38.9822 256.419 38.2428C254.978 39.1693 254.441 39.9066 255.186 41.5507C255.785 42.0162 255.807 42.0415 256.528 42.2354Z"/><path fill="#409BCB" d="M220.357 40.6145C221.626 40.6227 222.837 41.1487 223.708 42.0708C224.58 42.9928 225.037 44.2309 224.974 45.4982C224.857 47.8617 222.984 49.7606 220.623 49.9109C219.661 49.9721 218.704 49.7331 217.884 49.227C216.108 48.1314 215.279 45.988 215.855 43.9829C216.431 41.9777 218.271 40.601 220.357 40.6145ZM220.776 46.8177C221.799 46.5246 222.387 45.4537 222.084 44.4338C221.782 43.4139 220.705 42.8365 219.688 43.1485C218.684 43.4564 218.116 44.5156 218.415 45.5222C218.713 46.5288 219.767 47.1068 220.776 46.8177Z"/><path fill="#409BCB" d="M241.106 30.624C242.628 30.1723 244.231 31.0287 244.701 32.5453C245.172 34.062 244.336 35.6753 242.825 36.165C241.831 36.4873 240.74 36.2499 239.97 35.5435C239.2 34.8372 238.869 33.7711 239.104 32.7528C239.339 31.7344 240.104 30.9212 241.106 30.624Z"/><path fill="#409BCB" d="M239.989 41.6004C241.529 41.2347 243.077 42.1774 243.458 43.7137C243.839 45.2501 242.912 46.8069 241.38 47.2038C240.375 47.4641 239.307 47.1646 238.584 46.4194C237.861 45.6741 237.594 44.598 237.885 43.6011C238.175 42.6043 238.979 41.8403 239.989 41.6004Z"/><path fill="#409BCB" d="M183.808 41.879C184.774 41.4725 185.884 41.6237 186.707 42.2735C187.529 42.9233 187.933 43.969 187.761 45.0028C187.589 46.0367 186.868 46.8951 185.879 47.2435C184.412 47.7605 182.8 47.0177 182.24 45.5668C181.679 44.1158 182.374 42.4822 183.808 41.879Z"/><path fill="#409BCB" d="M173.214 49.0899C174.241 48.8139 175.336 49.1282 176.06 49.9067C176.784 50.6852 177.018 51.8001 176.668 52.804C176.319 53.808 175.443 54.5362 174.392 54.6965C172.887 54.9261 171.464 53.94 171.152 52.45C170.839 50.96 171.744 49.4851 173.214 49.0899Z"/><path fill="#409BCB" d="M143.201 29.3866C144.172 28.9961 145.28 29.168 146.087 29.8349C146.895 30.5018 147.273 31.5568 147.073 32.5849C146.874 33.613 146.128 34.4495 145.129 34.7654C143.664 35.229 142.094 34.4512 141.575 33.0045C141.057 31.5578 141.775 29.9598 143.201 29.3866Z"/><path fill="#409BCB" d="M264.172 25.1571C265.71 24.8341 267.219 25.8125 267.552 27.3477C267.885 28.8828 266.917 30.3988 265.384 30.7419C263.837 31.0881 262.304 30.1086 261.968 28.5593C261.631 27.0099 262.621 25.4831 264.172 25.1571Z"/><path fill="#409BCB" d="M223.964 29.3531C224.937 28.9683 226.042 29.1458 226.846 29.8159C227.649 30.4861 228.022 31.5416 227.818 32.5677C227.613 33.5937 226.865 34.4261 225.866 34.7376C224.399 35.1951 222.833 34.4105 222.321 32.9616C221.81 31.5127 222.535 29.9185 223.964 29.3531Z"/><path fill="#409BCB" d="M211.225 59.0719C212.758 58.6813 214.317 59.6112 214.701 61.146C215.085 62.6807 214.149 64.2354 212.612 64.6133C211.085 64.989 209.541 64.0592 209.159 62.5335C208.777 61.0078 209.701 59.4603 211.225 59.0719Z"/><path fill="#409BCB" d="M181.612 25.3422C183.126 25.0494 184.598 26.0139 184.934 27.5187C185.27 29.0234 184.348 30.5225 182.854 30.9015C181.848 31.1565 180.784 30.8448 180.074 30.0878C179.365 29.3307 179.123 28.248 179.443 27.2611C179.763 26.2742 180.594 25.5392 181.612 25.3422Z"/><path fill="#409BCB" d="M197.574 60.8294C198.568 60.5044 199.66 60.75 200.419 61.4692C201.178 62.1884 201.482 63.2656 201.211 64.2755C200.94 65.2853 200.137 66.0655 199.12 66.3081C197.634 66.6624 196.133 65.7812 195.718 64.3107C195.303 62.8402 196.122 61.3042 197.574 60.8294Z"/><path fill="#409BCB" d="M134.431 58.3609C135.954 57.9704 137.503 58.8945 137.883 60.42C138.264 61.9455 137.329 63.4888 135.801 63.8587C134.287 64.225 132.762 63.3012 132.386 61.7902C132.009 60.2793 132.922 58.7477 134.431 58.3609Z"/><path fill="#409BCB" d="M140.075 50.0707C141.553 49.5824 143.148 50.3811 143.642 51.857C144.136 53.333 143.343 54.9306 141.869 55.4303C140.387 55.9328 138.779 55.135 138.282 53.6509C137.785 52.1669 138.589 50.5617 140.075 50.0707Z"/><path fill="#409BCB" d="M278.669 26.8461C279.601 26.3927 280.708 26.4884 281.549 27.0953C282.39 27.7022 282.829 28.7221 282.693 29.7503C282.557 30.7784 281.867 31.6485 280.897 32.0153C279.488 32.548 277.909 31.8784 277.313 30.4952C276.717 29.1121 277.314 27.5046 278.669 26.8461Z"/><path fill="#409BCB" d="M250.723 50.3793C252.252 50.3027 253.561 51.4616 253.67 52.9877C253.78 54.5139 252.649 55.8476 251.126 55.9898C250.111 56.0846 249.124 55.6228 248.546 54.7827C247.969 53.9427 247.891 52.8559 248.343 51.9421C248.794 51.0282 249.705 50.4303 250.723 50.3793Z"/><path fill="#409BCB" d="M101.074 47.6048C102.508 47.0586 104.116 47.7648 104.684 49.191C105.252 50.6171 104.571 52.2354 103.154 52.8255C102.217 53.2154 101.144 53.0705 100.344 52.4463C99.5446 51.822 99.1435 50.8155 99.2946 49.8125C99.4457 48.8095 100.126 47.9658 101.074 47.6048Z"/><path fill="#409BCB" d="M161.448 55.8658C162.983 55.6886 164.373 56.7849 164.559 58.3193C164.745 59.8538 163.657 61.2504 162.123 61.445C160.578 61.6412 159.167 60.5422 158.98 58.9953C158.793 57.4484 159.9 56.0444 161.448 55.8658Z"/><path fill="#409BCB" d="M224.372 53.1021C225.877 52.7608 227.375 53.6999 227.724 55.2032C228.073 56.7066 227.141 58.2091 225.639 58.5653C224.127 58.924 222.612 57.9844 222.261 56.4704C221.91 54.9565 222.857 53.4457 224.372 53.1021Z"/><path fill="#409BCB" d="M167.877 37.1493C168.863 36.8955 169.91 37.1971 170.609 37.937C171.309 38.6769 171.552 39.7384 171.244 40.709C170.936 41.6797 170.125 42.4065 169.127 42.6071C167.639 42.9059 166.184 41.9656 165.845 40.4864C165.506 39.0073 166.407 37.5275 167.877 37.1493Z"/><path fill="#409BCB" d="M229.027 60.8624C229.937 60.4171 231.017 60.4988 231.85 61.076C232.683 61.6532 233.138 62.6356 233.041 63.6443C232.944 64.6529 232.309 65.5301 231.381 65.9374C229.986 66.5495 228.359 65.9341 227.718 64.5528C227.077 63.1715 227.659 61.5315 229.027 60.8624Z"/><path fill="#409BCB" d="M218.922 60.8292C219.879 60.5041 220.936 60.7201 221.688 61.3941C222.44 62.0682 222.77 63.0954 222.551 64.0813C222.332 65.0672 221.598 65.8583 220.631 66.1507C219.172 66.5923 217.627 65.7821 217.161 64.33C216.695 62.8779 217.479 61.3201 218.922 60.8292Z"/><path fill="#409BCB" d="M116.283 51.0855C117.211 50.6899 118.28 50.8257 119.08 51.4406C119.88 52.0556 120.285 53.0541 120.142 54.0526C119.998 55.0511 119.326 55.8944 118.386 56.2585C116.964 56.8085 115.365 56.1175 114.791 54.7058C114.217 53.2941 114.881 51.683 116.283 51.0855Z"/><path fill="#409BCB" d="M203.554 47.8565C204.501 47.5053 205.565 47.6943 206.333 48.3505C207.102 49.0067 207.455 50.0273 207.257 51.0182C207.058 52.0091 206.339 52.8151 205.377 53.1248C203.934 53.5896 202.384 52.8157 201.888 51.3829C201.392 49.95 202.132 48.3834 203.554 47.8565Z"/><path fill="#409BCB" d="M162.968 45.6108C163.97 45.4004 165.006 45.7563 165.668 46.5378C166.33 47.3193 166.51 48.4006 166.137 49.3544C165.765 50.3082 164.899 50.9809 163.883 51.1067C162.4 51.2903 161.035 50.2719 160.79 48.7976C160.544 47.3234 161.505 45.9177 162.968 45.6108Z"/><path fill="#409BCB" d="M152.469 60.086C153.437 59.7668 154.502 60.0099 155.235 60.7175C155.969 61.425 156.25 62.4806 155.966 63.4593C155.682 64.4381 154.879 65.179 153.881 65.3838C152.456 65.6762 151.05 64.8066 150.675 63.401C150.301 61.9954 151.087 60.5416 152.469 60.086Z"/><path fill="#409BCB" d="M131.453 38.1434C132.964 38.1 134.225 39.2882 134.271 40.7992C134.318 42.3102 133.132 43.5735 131.621 43.6229C130.106 43.6724 128.838 42.4827 128.792 40.9674C128.745 39.4522 129.938 38.1869 131.453 38.1434Z"/><path fill="#050005" fill-opacity="0.41960785" d="M179.986 23.0681C181.068 23.0462 184.49 23.0485 185.422 23.2995L185.431 23.6969C183.911 23.6238 180.551 24.1992 179.585 23.4181L179.986 23.0681Z"/><path fill="#050005" fill-opacity="0.14901961" d="M210.91 66.3888C212.079 66.2846 213.544 66.0403 214.618 66.4065L214.686 66.8777C213.262 66.935 212.547 66.9193 211.13 66.7776L210.91 66.3888Z"/><path fill="#409BCB" d="M269.189 246.974C271.649 246.905 273.545 247.489 274.392 250.062C274.83 251.376 274.699 252.813 274.03 254.026C273.247 255.441 272.379 255.867 270.925 256.251C267.502 256.266 264.486 254.258 265.598 250.302C266.166 248.283 267.437 247.827 269.189 246.974ZM270.869 253.358C271.793 252.845 272.142 251.689 271.655 250.751C271.169 249.812 270.024 249.43 269.072 249.89C268.431 250.198 268.009 250.831 267.97 251.542C267.931 252.252 268.281 252.927 268.883 253.305C269.486 253.683 270.247 253.703 270.869 253.358Z"/><path fill="#409BCB" d="M278.56 242.079C280.1 241.723 281.637 242.679 281.998 244.217C282.359 245.755 281.408 247.296 279.871 247.662C278.327 248.03 276.778 247.074 276.415 245.528C276.052 243.983 277.014 242.437 278.56 242.079Z"/><path fill="#409BCB" d="M257.053 251.102C258.426 250.484 260.039 251.088 260.669 252.455C261.299 253.822 260.71 255.441 259.349 256.083C257.97 256.734 256.325 256.135 255.687 254.751C255.049 253.366 255.663 251.727 257.053 251.102Z"/><path fill="#409BCB" d="M251.331 244.767C255.215 244.572 256.12 248.605 253.355 250.139C252.061 250.279 250.719 250.052 249.889 248.938C249.479 248.389 249.323 247.691 249.459 247.019C249.697 245.807 250.39 245.386 251.331 244.767Z"/><path fill="#409BCB" d="M252.03 264.59C253.423 264.007 255.024 264.666 255.603 266.06C256.183 267.455 255.52 269.054 254.124 269.63C252.733 270.204 251.14 269.544 250.562 268.155C249.985 266.765 250.642 265.17 252.03 264.59Z"/><path fill="#409BCB" d="M81.7459 53.1288C83.3505 52.5018 85.1693 52.7989 86.491 53.9038C87.8127 55.0088 88.4275 56.746 88.095 58.4364C87.7625 60.1267 86.5355 61.5016 84.8937 62.0236C82.466 62.7954 79.8638 61.5015 79.0139 59.1C78.164 56.6985 79.3731 54.0558 81.7459 53.1288ZM84.0376 59.0883C84.9582 58.7206 85.4204 57.6884 85.0817 56.7568C84.7429 55.8252 83.7256 55.3309 82.7839 55.6404C82.148 55.8493 81.6763 56.3879 81.553 57.0458C81.4297 57.7038 81.6743 58.3766 82.1914 58.8017C82.7085 59.2268 83.416 59.3366 84.0376 59.0883Z"/><path fill="#409BCB" d="M83.6052 39.105C85.0405 38.5975 86.6192 39.3224 87.1699 40.7416C87.7206 42.1609 87.0439 43.7609 85.6419 44.3543C84.6965 44.7545 83.6083 44.6086 82.8017 43.9735C81.9951 43.3384 81.5979 42.3148 81.7651 41.3019C81.9322 40.2889 82.6373 39.4472 83.6052 39.105Z"/><path fill="#409BCB" d="M65.7964 56.1245C66.7686 55.8066 67.8366 56.043 68.5838 56.7415C69.3309 57.4399 69.6387 58.4896 69.3871 59.4809C69.1354 60.4723 68.3641 61.248 67.3742 61.5054C65.9074 61.8869 64.4029 61.0343 63.9765 59.5799C63.55 58.1256 64.3559 56.5955 65.7964 56.1245Z"/><path fill="#409BCB" d="M89.2774 237.519C88.9882 224.415 89.1052 211.191 89.1863 198.08C89.2202 192.597 88.448 181.175 89.2198 176.139C89.9398 179.032 93.6136 186.596 93.6418 187.983C93.9605 203.646 94.5475 220.946 93.9815 236.532C103.773 236.315 114.202 236.815 123.863 236.479C123.706 237.966 123.546 239.999 123.326 241.439C116.401 241.547 109.421 241.305 102.5 241.319C99.891 241.325 94.4287 241.09 92.1935 241.586C78.9865 252.135 64.6726 265.451 51.7736 276.734C48.4303 279.633 45.0642 282.505 41.6758 285.351C40.6346 286.24 38.222 288.123 37.4845 289.06C36.6336 289.612 33.8904 289.151 32.7579 289.036C32.9678 287.729 32.8083 286.206 33.2148 285.136L33.4731 285.766C35.6807 285.39 83.0444 242.522 89.2774 237.519Z"/><defs><linearGradient id="gradient_0" gradientUnits="userSpaceOnUse" x1="198.61403" y1="171.76624" x2="239.57971" y2="129.86154"><stop offset="0" stop-color="#1671B0"/><stop offset="1" stop-color="#419ED0"/></linearGradient></defs><path fill="url(#gradient_0)" d="M241.33 130.075C241.805 131.372 241.371 138.834 241.069 140.323C241.018 138.294 240.926 136.73 241.225 134.715C237.724 136.631 233.24 139.16 230.304 141.836C221.719 149.661 218.323 154.437 206.143 156.012C209.758 158.351 223.538 168.122 224.51 171.915C222.955 174.797 208.134 176.694 205.147 175.827C200.382 174.444 192.347 167.027 189.559 162.83C190.833 158.895 194.002 151.424 195.73 147.528C197.477 149.079 199.535 150.52 201.418 152.174C214.586 151.282 216.661 148.278 226.048 139.886C228.493 137.715 231.081 135.712 233.795 133.889C234.946 133.127 241.136 130.396 241.33 130.075Z"/><path fill="#409BCB" d="M87.9319 73.4797L87.9977 73.1925C89.0065 73.1503 92.8975 73.1339 93.7719 73.3199C94.1235 75.8201 94.0159 79.954 94.0183 82.5711L94.0274 98.9299L94.0814 128.25C94.1371 139.513 94.302 151.836 93.9878 163.086C92.8275 165.318 90.4296 167.736 88.8618 170.143C89.1875 164.685 89.0544 158.181 89.0384 152.634L89.0094 127.067C89.0115 123.563 88.802 115.735 89.1185 112.509C89.5119 111.92 89.6724 110.25 89.1461 109.679C88.9639 106.16 89.2321 74.2119 88.8677 73.6276L87.9319 73.4797Z"/><path fill="#409BCB" d="M245.732 241.143C245.397 239.92 245.777 226.291 246.025 224.877C246.108 228.746 246.132 232.616 246.098 236.485C251.868 236.287 257.56 236.456 263.334 236.437L303.093 236.463C302.757 238.321 300.324 241.215 298.611 241.622L298.576 241.309C294.599 241.015 287.798 241.17 283.709 241.185L259.518 241.268C256.137 241.285 248.817 241.514 245.732 241.143Z"/><path fill="#409BCB" d="M88.925 24.2125C89.2531 21.2505 96.1661 20.658 98.4147 21.5104C96.9436 21.5717 95.2895 21.6894 93.8377 21.565C94.2306 25.4481 93.9422 31.122 94.031 35.1832C94.2673 45.98 93.7421 57.2793 94.0362 68.0172C94.3925 68.2781 94.2729 68.2527 94.6741 68.3614C93.4607 69.0164 90.1069 68.8218 88.8087 68.3642C88.8951 68.2433 89.0296 68.1451 89.068 68.0015C89.1921 67.5378 89.1607 25.9149 88.925 24.2125Z"/><path fill="#409BCB" d="M241.286 241.21C239.909 241.376 237.098 241.28 235.602 241.281L224.233 241.29C220.167 241.291 201.658 241.973 199.233 241.035L199.381 240.773C203.516 239.719 206.452 237.772 210.204 236.634C212.478 235.945 217.79 236.449 220.367 236.306C224.327 236.176 228.276 236.165 232.232 236.181C234.89 236.191 238.717 236.608 241.276 236.262C241.656 237.254 241.812 240.283 241.286 241.21Z"/><path fill="#409BCB" d="M231.086 73.4604C232.648 72.884 238.527 73.0938 240.511 73.1503L240.918 73.3975C240.372 73.5462 238.782 73.7602 238.066 73.8954C238.881 75.4869 240.417 77.1409 239.433 79.0512C236.793 81.6811 230.618 78.636 235.979 73.6131C234.347 73.5756 232.716 73.5247 231.086 73.4604Z"/><path fill="#409BCB" d="M121.181 68.295C121.088 67.7403 121.033 67.6725 120.661 67.2499C119.977 66.4833 119.61 65.4859 119.632 64.459C120.453 61.8272 123.988 61.722 125.38 64.0389C125.712 65.5116 124.468 66.9121 123.49 67.8658L123.697 68.3712C122.947 68.8227 121.92 68.7244 121.181 68.295Z"/><path fill="#409BCB" d="M89.1185 112.509C88.3966 112.313 87.2952 113.927 86.516 113.933C82.2695 113.967 83.1216 104.447 89.1461 109.679C89.6724 110.25 89.5119 111.92 89.1185 112.509Z"/><path fill="#409BCB" d="M211.412 73.8713L211.662 74.154C212.401 74.1139 214.631 74.2813 214.765 74.2207C218.439 76.9579 213.545 81.129 210.6 78.4588C209.34 77.3155 210.528 75.0049 211.412 73.8713Z"/><path fill="#409BCB" d="M246.042 140.337C245.541 138.877 245.245 125.172 245.993 124.014C246.149 125.589 246.081 126.724 246.017 128.289C247.724 127.481 249.811 126.623 250.827 128.81C250.75 131.459 248.048 131.96 246.005 132.402C246.024 134.76 246.154 138.056 246.042 140.337Z"/><path fill="#409BCB" d="M169.044 68.3456C168.498 62.4676 175.188 62.6288 174.309 68.4373C172.656 68.4686 170.652 68.5748 169.044 68.3456Z"/><path fill="#247FBA" d="M33.4002 284.869C32.5172 283.138 32.8898 277.782 32.7876 275.766C32.6163 272.386 32.0986 268.93 32.9554 265.612C33.2258 264.565 32.8952 263.751 33.4792 262.709C33.6083 268.149 33.8077 279.662 33.4002 284.869Z"/><path fill="#FEFCFE" fill-opacity="0.98431373" d="M183.871 73.4631C189.245 72.9305 197.905 73.3093 203.536 73.302C209.434 73.2944 217.859 72.9203 223.534 73.4306C221.612 73.4195 216.027 73.0338 214.765 74.2207C214.631 74.2813 212.401 74.1139 211.662 74.154L211.412 73.8713C210.119 73.2536 187.502 73.5149 183.871 73.4631Z"/></svg>