<?xml version="1.0" encoding="utf-8" ?><svg xmlns="http://www.w3.org/2000/svg" xmlns:xlink="http://www.w3.org/1999/xlink" width="596" height="552" viewBox="0 0 596 552"><path fill="#BE63B9" d="M103.911 172.424C103.315 183.878 103.776 198.868 103.811 210.472L104.023 280.49C104.085 293.404 104.071 306.319 103.98 319.233C103.902 329.736 103.511 339.942 104.874 350.443C107.013 366.917 122.071 380.932 138.659 381.793C148.874 382.324 158.639 377.969 166.024 371.09C174.941 362.924 177.612 352.597 177.748 340.808C177.91 326.688 177.536 312.422 177.49 298.246L177.443 224.615L177.231 195.175C177.156 172.175 176.705 155.507 194.992 138.125C204.347 129.151 216.932 124.338 229.888 124.78C243.847 125.15 254.915 131.366 264.257 141.391C270.975 148.564 275.497 157.511 277.289 167.174C279.05 177.016 278.733 193.16 278.787 203.466L279.127 254.066L279.025 369.894C278.971 386.112 279.867 402.433 279.358 418.578C278.966 431.052 277.214 450.247 281.104 461.912C282.652 466.498 285.164 470.698 288.472 474.231C302.844 489.866 324.957 490.968 340.569 476.404C349.46 468.111 352.242 458.886 352.436 446.99C352.796 434.032 352.23 421.33 352.084 408.452L351.98 353.712L352.418 172.952C352.369 147.646 351.847 122.321 352.178 97.0256C352.6 86.5949 351.654 76.0956 353.391 65.7655C355.326 54.2575 361.07 45.0137 369.082 37.1675C389.237 17.4305 421.569 19.1553 439.671 40.6768C446.812 49.1672 451.545 57.8506 452.88 69.2728C453.796 76.0756 453.696 82.2394 453.688 89.1171L453.661 110.134L453.571 182.256L453.436 370.177L453.507 441.515C453.548 453.297 453.605 465.116 453.682 476.9C453.69 478.114 453.828 479.937 454.157 481.034C455.67 486.079 462.929 491.749 468.216 491.692C472.807 491.643 478.658 490.841 483.416 490.384L518.97 487.112C523.71 486.658 531.595 485.396 535.977 485.427C536.621 490.066 536.864 494.792 537.106 499.466C527.477 500.49 517.744 501.212 507.777 501.982C492.113 503.117 476.078 505.39 460.4 503.774C457.443 503.469 453.068 500.629 450.781 498.793C438.055 488.576 440.149 476.064 439.816 461.772C439.727 457.964 440.614 436.61 440.051 434.947C437.355 435.101 433.244 434.964 430.472 434.961L413.196 435.003C398.034 435.049 381.137 435.312 366.088 434.875C365.688 435.814 365.619 446.669 365.653 448.374C366.08 469.43 354.237 486.824 335.653 496.162C325.427 501.222 311.727 502.119 301.335 498.293C279.95 490.42 266.765 473.028 265.621 450.386C265.236 442.752 265.079 435.118 265.142 427.45C264.323 414.579 264.209 402.319 264.996 389.448C265.336 383.898 265.109 377.551 265.099 371.932L264.452 219.586C264.399 214.046 264.472 208.505 264.669 202.968C265.09 191.511 266.251 177.732 263.168 166.691C260.011 155.386 251.089 145.335 239.958 141.291C231.186 138.198 221.545 138.718 213.156 142.737C204.513 146.821 196.421 155.852 193.635 164.685C191.088 172.762 192.264 190.75 192.27 200.078L192.23 275.043L192.312 312.697C192.336 328.104 193.477 343.866 188.84 358.72C184.393 372.965 174.185 384.431 160.93 391.157C150.141 396.335 135.278 396.043 124.243 392.079C111.587 387.533 100.555 376.809 95.0483 364.664C89.4603 352.341 90.0825 337.706 90.0891 324.408L90.1713 294.191L90.51 212.116C90.4995 199.213 90.6732 185.164 90.2482 172.332C94.6357 172.62 99.504 172.576 103.911 172.424ZM366.318 427.915C372.872 427.514 380.7 427.628 387.367 427.737C404.715 428.019 422.801 426.93 440.067 427.764C440.114 427.672 440.017 408.545 440.062 406.558C432.352 406.857 422.397 406.55 414.537 406.537L365.748 406.562C365.922 409.799 365.437 426.283 366.318 427.915ZM438.924 115.082L439.321 114.873C439.804 113.901 439.702 83.4831 439.64 79.8872C439.604 77.8014 439.197 72.252 438.911 70.032C437.632 60.116 431.565 49.8332 423.584 43.8227C416.142 38.2174 406.184 36.209 397.035 37.6384C388.273 39.0073 379.918 43.6183 374.713 50.8933C372.021 54.6554 368.205 61.2249 367.226 65.8312C364.853 76.9893 366.039 89.6502 365.776 101.088C365.71 103.971 365.657 112.421 366.001 114.658C366.951 115.088 368.112 115.002 369.181 115.025C372.87 114.878 399.735 115.476 400.641 114.546C401.086 114.09 401.324 113.574 401.603 113.012L402.039 112.875C402.978 113.756 402.341 114.755 403.171 114.782C404.332 114.819 406.27 114.847 407.415 114.862C414.326 114.926 421.238 114.933 428.149 114.884C430.817 114.878 436.57 114.737 438.924 115.082ZM365.805 400.042C371.3 399.885 376.998 400.021 382.51 400.099C401.747 400.371 421.156 399.457 440.37 399.811C440.127 397.259 439.784 379.937 440.317 378.067C421.423 378.603 402.085 377.722 383.157 377.982C377.953 378.053 371.134 378.271 366.042 377.834C365.922 377.98 365.801 378.127 365.68 378.273C365.68 385.53 365.728 392.786 365.805 400.042ZM366.051 342.303C380.573 341.862 396.529 342.152 411.151 342.132L429.793 342.137C432.61 342.147 437.086 342.052 439.778 342.304L439.997 342.122C440.276 341.604 440.039 323.39 440.187 320.786C434.569 321.045 426.878 320.603 420.943 320.704C402.774 321.014 383.922 320.383 365.801 320.925C366.061 322.994 365.95 326.534 365.958 328.758L366.051 342.303ZM366.023 314.246C374.076 314.029 382.542 314.202 390.644 314.187L440.332 314.011C439.736 309.965 440.034 297.357 440.048 292.743C419.487 293.44 398.355 292.383 377.753 292.803C373.899 292.881 369.595 292.877 365.739 292.714C366.207 298.334 365.724 304.267 365.955 309.924C366.011 311.292 366.058 312.881 366.023 314.246ZM365.668 179.564C365.907 183.078 365.342 198.957 366.06 200.765C372.39 200.094 385.283 200.48 392.108 200.487L440.317 200.49C439.83 198.664 439.868 181.521 440.409 179.651C437.803 179.775 434.499 179.613 431.804 179.618L413.627 179.65L365.668 179.564ZM440.267 285.963C439.938 283.299 439.692 266.734 440.458 264.702C434.631 265.061 424.93 264.744 418.715 264.747C401.046 264.595 383.377 264.58 365.709 264.704C365.955 266.572 365.986 268.921 365.906 270.816C365.692 275.843 366.117 281.017 366.041 286.011C370.901 285.717 376.166 285.755 381.047 285.81C400.72 286.031 420.609 285.421 440.267 285.963ZM366.325 349.555L365.891 349.935C365.736 352.731 365.284 369.691 366.219 370.758C366.249 370.792 366.295 370.807 366.334 370.831C369.031 370.563 372.969 370.674 375.756 370.673L390.937 370.638L440.494 370.481C439.844 368.683 439.849 351.778 440.358 349.832C437.44 350.038 431.709 349.762 428.492 349.75L402.712 349.73L379.479 349.745C375.927 349.748 369.64 349.917 366.325 349.555ZM366.032 228.506C369.318 228.139 373.08 228.271 376.427 228.272L392.369 228.267C408.2 228.267 424.552 228.076 440.342 228.34C439.886 226.258 439.835 209.551 440.338 207.508C433.186 207.702 424.975 207.509 417.759 207.51L366.665 207.556L365.981 207.826C365.609 209.264 365.507 227.386 366.032 228.506ZM366.046 171.767C368.868 171.519 372.681 171.608 375.608 171.567C381.737 171.468 387.867 171.408 393.997 171.386C409.355 171.332 425.069 171.154 440.405 171.339C439.926 169.208 439.787 153.036 440.424 151.024L391.32 151.015C383.615 151.015 373.578 151.287 366.046 150.899C365.591 151.724 365.59 170.672 366.046 171.767ZM439.785 235.504C437.706 235.739 433.829 235.622 431.566 235.625L416.943 235.655L365.656 235.656C366.29 240.425 365.215 253.447 366.047 256.778C383.47 256.451 401.131 256.857 418.571 256.662C425.705 256.582 433.226 256.794 440.31 256.518C439.993 254.624 440.06 252.332 440.049 250.398C440.021 245.599 439.988 240.791 440.142 235.994C440.023 235.831 439.904 235.667 439.785 235.504ZM365.573 121.993C365.741 124.871 365.417 142.241 366.039 143.222C372.766 142.607 386.4 143.011 393.504 143.029C409.057 143.07 424.885 142.874 440.405 143.086C439.749 140.545 439.531 124.781 439.933 121.955C434.473 122.077 428.523 121.91 423.004 121.925L365.573 121.993Z"/><path fill="#D06FC8" d="M366.318 427.915C372.872 427.514 380.7 427.628 387.367 427.737C404.715 428.019 422.801 426.93 440.067 427.764C440.986 428.772 441.037 433.856 440.226 434.895L440.051 434.947C437.355 435.101 433.244 434.964 430.472 434.961L413.196 435.003C398.034 435.049 381.137 435.312 366.088 434.875C365.453 434.111 365.637 432.002 365.721 430.936C365.835 429.471 365.462 428.703 366.318 427.915Z"/><path fill="#D06FC8" d="M366.046 171.767C368.868 171.519 372.681 171.608 375.608 171.567C381.737 171.468 387.867 171.408 393.997 171.386C409.355 171.332 425.069 171.154 440.405 171.339C440.994 173.032 441.234 178.153 440.409 179.651C437.803 179.775 434.499 179.613 431.804 179.618L413.627 179.65L365.668 179.564C365.194 178.13 365.314 173.486 365.618 171.995L366.046 171.767Z"/><path fill="#D06FC8" d="M366.047 256.778C383.47 256.451 401.131 256.857 418.571 256.662C425.705 256.582 433.226 256.794 440.31 256.518C440.71 258.207 441.246 263.314 440.458 264.702C434.631 265.061 424.93 264.744 418.715 264.747C401.046 264.595 383.377 264.58 365.709 264.704C365.444 263.229 365.265 257.934 366.047 256.778Z"/><path fill="#D06FC8" d="M440.405 143.086C440.804 144.89 441.32 149.47 440.424 151.024L391.32 151.015C383.615 151.015 373.578 151.287 366.046 150.899C365.899 150.789 365.753 150.68 365.606 150.57C365.411 148.53 365.379 146.477 365.512 144.432C365.583 143.431 365.417 143.765 366.039 143.222C372.766 142.607 386.4 143.011 393.504 143.029C409.057 143.07 424.885 142.874 440.405 143.086Z"/><path fill="#D06FC8" d="M366.051 342.303C380.573 341.862 396.529 342.152 411.151 342.132L429.793 342.137C432.61 342.147 437.086 342.052 439.778 342.304C441.001 343.141 440.745 348.486 440.358 349.832C437.44 350.038 431.709 349.762 428.492 349.75L402.712 349.73L379.479 349.745C375.927 349.748 369.64 349.917 366.325 349.555L365.777 349.418C364.947 348.339 365.221 343.486 366.051 342.303Z"/><path fill="#D06FC8" d="M366.334 370.831C369.031 370.563 372.969 370.674 375.756 370.673L390.937 370.638L440.494 370.481C440.611 372.386 440.855 376.237 440.317 378.067C421.423 378.603 402.085 377.722 383.157 377.982C377.953 378.053 371.134 378.271 366.042 377.834C364.742 377.334 365.432 372.33 365.719 371.132L366.334 370.831Z"/><path fill="#D06FC8" d="M366.032 228.506C369.318 228.139 373.08 228.271 376.427 228.272L392.369 228.267C408.2 228.267 424.552 228.076 440.342 228.34C440.726 230.202 440.695 233.072 440.446 234.973C440.026 235.446 440.26 235.288 439.785 235.504C437.706 235.739 433.829 235.622 431.566 235.625L416.943 235.655L365.656 235.656C365.295 234.233 365.027 229.583 366.032 228.506Z"/><path fill="#D06FC8" d="M366.06 200.765C372.39 200.094 385.283 200.48 392.108 200.487L440.317 200.49C440.751 202.055 440.996 206.131 440.338 207.508C433.186 207.702 424.975 207.509 417.759 207.51L366.665 207.556L365.801 207.349C365.129 206.024 365.073 201.798 366.06 200.765Z"/><path fill="#D06FC8" d="M369.181 115.025C372.87 114.878 399.735 115.476 400.641 114.546C401.086 114.09 401.324 113.574 401.603 113.012L402.039 112.875C402.978 113.756 402.341 114.755 403.171 114.782C404.332 114.819 406.27 114.847 407.415 114.862C414.326 114.926 421.238 114.933 428.149 114.884C430.817 114.878 436.57 114.737 438.924 115.082C440.445 116.242 440.055 120.117 439.933 121.955C434.473 122.077 428.523 121.91 423.004 121.925L365.573 121.993C365.089 120.522 365.471 116.935 365.566 115.244C367.104 115.331 367.643 115.415 369.181 115.025Z"/></svg>