<?xml version="1.0" encoding="utf-8" ?><svg xmlns="http://www.w3.org/2000/svg" xmlns:xlink="http://www.w3.org/1999/xlink" width="430" height="444" viewBox="0 0 430 444"><path fill="#24455C" d="M60.132 113.196C66.4717 104.47 71.2321 97.803 78.5959 89.7682C107.265 58.4121 145.717 37.7008 187.675 31.0156C219.63 25.9656 255.869 29.876 285.832 42.1C300.638 48.2272 314.634 56.1548 327.502 65.7037C365.237 93.2266 393.922 139.809 401.058 185.87C405.386 212.506 404.189 239.748 397.541 265.902C396.597 269.708 394.068 279.221 392.416 282.744C383.169 282.765 371.754 283.384 362.854 282.935C352.067 283.032 341.279 283.045 330.492 282.974C329.098 283.012 327.55 282.968 326.143 282.957C310.216 283.395 292.242 283.023 276.159 282.925L272.726 283.212C267.201 284.25 264.926 287.455 262.826 292.404C261.862 299.431 264.384 300.857 268.216 306.183C270.07 308.05 273.034 311.959 274.862 314.121L288.23 329.8L301.33 345.358C303.018 347.363 306.335 351.03 307.764 353.021C311.064 356.467 316.314 363.005 319.441 366.831C319.775 369.963 319.807 372.232 319.515 375.368C280.094 399.167 242.476 410.037 196.022 405.092C158.235 401.037 122.596 385.509 93.8978 360.596C90.7199 357.841 87.7414 355.823 84.9221 352.58C83.0185 350.391 80.261 348.753 78.772 346.013C78.3978 345.325 77.2471 344.1 76.723 343.451C71.868 340.458 66.2149 332.545 62.9041 327.852C60.6269 325.018 53.9062 315.596 53.8737 312.282C51.4849 305.954 46.5732 298.77 43.9042 292.36C43.2885 290.881 41.3836 288.529 40.9981 287.117C39.6666 282.239 38.5899 277.815 36.9463 273.002C35.0422 268.638 31.7959 258.452 31.3886 253.776C31.9311 253.082 31.9003 252.895 32.059 251.99C29.999 246.02 30.0175 234.394 29.0312 227.956C28.4601 182.998 36.3199 151.575 60.132 113.196Z"/><path fill="#3693C6" d="M213.166 132.594C218.782 129.944 219.254 129.935 225.003 132.326C229.398 135.025 233.889 137.44 238.296 140.013C241.859 142.447 251.846 146.121 252.246 150.993C253.088 161.244 252.281 171.884 252.578 182.19C252.751 188.186 238.777 194.359 234.19 196.956C231.308 198.586 228.479 200.31 225.708 202.124C225.892 209.999 225.832 217.668 225.963 225.461C230.747 228.046 235.498 230.692 240.215 233.398C243.481 235.236 251.462 238.874 252.084 242.778C253.399 251.019 252.711 260.228 252.704 268.635C252.305 276.386 253.144 277.756 246.462 282.358C242.911 284.247 239.4 286.209 235.93 288.244C230.943 291.173 224.785 295.272 219.303 296.618C217.084 295.964 214.98 295.076 212.909 294.048C209.73 292.47 206.751 290.497 203.663 288.751C200.126 286.751 188.816 281.506 187.032 278.328C185.168 275.01 185.432 246.012 186.734 242.05C187.104 240.926 187.722 240.173 188.613 239.416C191.146 237.265 194.377 235.691 197.254 234.044C202.468 231.017 207.736 228.084 213.056 225.246C212.795 217.107 212.846 209.993 212.988 201.855C210.728 200.595 208.42 199.196 206.046 197.751C199.923 193.984 191.906 190.971 187.094 185.599C185.74 184.087 185.895 176.518 185.981 174.33C186.284 166.617 185.564 158.938 186.245 151.261C186.643 146.767 193.849 144.113 197.009 141.944C202.482 138.803 207.823 135.908 213.166 132.594Z"/><path fill="#24455C" d="M219.4 236.486C219.863 236.538 238.083 247.183 239.806 248.165C239.688 253.435 239.379 266.194 239.961 271.096C233.744 274.159 225.571 279.102 219.596 282.616C218.6 282.628 201.915 272.638 199.211 271.305C199.299 265.727 199.224 260.126 199.272 254.546C199.289 252.556 199.343 250.244 198.983 248.302L219.4 236.486Z"/><path fill="#24455C" d="M219.236 144.45C220.415 144.489 237.225 154.551 239.753 155.815C239.704 162.847 239.524 171.814 239.851 178.754C233.067 182.491 226.394 186.506 219.591 190.191C217.589 189.531 213.162 186.883 211.205 185.748L199.258 178.792C199.322 173.224 199.471 161.644 198.992 156.226C204.704 152.222 212.971 147.923 219.236 144.45Z"/><path fill="#386178" d="M186.262 85.8051C186.273 78.3859 185.95 71.037 186.076 63.554C186.057 58.6477 186.117 52.0234 192.859 52.0233C200.502 52.0232 198.956 63.4119 199.032 68.2935C199.125 74.1886 198.86 79.7394 199.036 85.5037C206.074 91.1305 221.546 96.4395 225.427 102.83C225.651 108.077 226.212 128.491 225.003 132.326C219.254 129.935 218.782 129.944 213.166 132.594C212.839 131.303 212.927 125.114 212.938 123.471L212.991 108.992C208.025 105.521 198.223 100.284 192.678 97.039C185.318 100.597 171.882 110.454 164.631 112.086C158.851 110.424 156.711 103.729 161.417 100.414C169.111 94.9961 178.309 90.9224 186.262 85.8051Z"/><path fill="#386178" d="M268.216 306.183C270.07 308.05 273.034 311.959 274.862 314.121L288.23 329.8L301.33 345.358C303.018 347.363 306.335 351.03 307.764 353.021L307.655 353.28C305.884 357.373 308.695 367.643 305.741 371.524C302.524 375.753 295.068 374.428 294.391 368.17C293.405 359.054 294.449 350.062 293.703 340.966C288.332 337.037 270.769 329.062 267.939 324.393C267.37 323.454 267.21 322.154 267.104 321.072C266.932 319.306 266.726 308.616 267.17 307.299C267.385 306.661 267.642 306.483 268.216 306.183Z"/><path fill="#386178" d="M276.159 282.925C278.195 279.887 286.408 276.274 289.589 274.22C294.938 270.765 300.073 266.785 306.285 270.844C310.903 273.862 321.216 278.824 324.882 282.654L326.143 282.957C310.216 283.395 292.242 283.023 276.159 282.925Z"/><path fill="#386178" d="M330.492 282.974C330.521 282.868 330.824 281.763 330.824 281.763C336.244 278.055 342.068 274.922 347.682 271.511C349.803 270.222 353.777 268.466 356.261 269.304C359.451 270.381 360.995 274.363 359.681 277.404C358.9 279.406 357.756 280.803 356.823 282.647C358.7 282.753 361.058 282.777 362.854 282.935C352.067 283.032 341.279 283.045 330.492 282.974Z"/><path fill="#386178" d="M246.462 282.358C253.144 277.756 252.305 276.386 252.704 268.635C252.742 269.528 252.809 270.033 252.636 270.902L252.943 271.304L252.839 271.503C255.481 272.857 271.22 281.332 272.726 283.212C267.201 284.25 264.926 287.455 262.826 292.404C258.823 289.176 250.579 285.949 246.462 282.358Z"/><path fill="#D4CBCB" d="M53.8737 312.282C55.2071 313.093 62.2154 324.773 63.7331 327.021L62.9041 327.852C60.6269 325.018 53.9062 315.596 53.8737 312.282Z"/><path fill="#D4CBCB" d="M32.059 251.99C32.6723 253.666 37.0464 272.158 36.9463 273.002C35.0422 268.638 31.7959 258.452 31.3886 253.776C31.9311 253.082 31.9003 252.895 32.059 251.99Z"/><path fill="#D4CBCB" d="M62.9041 327.852L63.7331 327.021C67.2337 331.813 70.8157 336.491 74.7206 340.955C75.4205 341.755 76.1498 342.553 76.723 343.451C71.868 340.458 66.2149 332.545 62.9041 327.852Z"/><path fill="#3693C6" d="M134.386 180.174C139.893 177.124 140.836 176.503 147.034 178.519C150.285 180.622 153.613 182.605 157.009 184.463C161.704 187.057 169.569 190.497 173.164 194.121C174.238 195.204 174.836 196.498 175.158 197.975C176.107 202.336 175.361 207.264 175.364 211.711C175.368 217.006 175.818 222.39 175.371 227.67C175.242 229.206 175.063 231 174.215 232.323C171.15 237.101 154.164 245.132 148.223 248.612C148.679 251.305 148.555 257.099 148.515 260.081C148.466 263.695 148.602 268.224 148.413 271.765C152.452 274.05 174.41 285.143 174.939 289.473C176.026 298.368 175.024 310.799 175.374 320.041C175.499 323.166 173.838 326.197 171.161 327.665C163.718 331.748 155.53 337.268 148.066 341.036C145.699 342.201 144.227 342.803 141.708 343.576C139.357 342.722 137.974 342.074 135.756 340.985C130.237 337.261 111.845 328.807 109.426 324.461C108.735 323.219 108.456 321.86 108.32 320.463C108.016 317.324 108.368 314.066 108.345 310.906C108.304 305.166 107.291 294.261 108.795 289.028C109.209 287.59 110.745 286.332 111.894 285.442C114.889 283.123 118.486 281.333 121.768 279.439C126.302 276.822 130.807 274.09 135.43 271.636C134.826 266.396 135.199 254.183 135.254 248.381C128.664 245.181 121.881 240.42 115.328 237.002C112.747 235.372 108.837 233.301 108.626 229.843C108.071 220.701 108.139 210.502 108.35 201.416C108.461 200.952 108.529 199.484 108.586 198.909C109.028 194.415 111.696 193.423 115.248 191.18C120.667 188.462 128.894 183.342 134.386 180.174Z"/><path fill="#24455C" d="M141.636 283.23C143.484 283.636 159.445 293.098 162.25 294.71C162.052 302.652 162.139 309.8 162.292 317.743C156.335 320.752 148.468 325.699 142.348 329.091C141.959 329.219 141.599 329.247 141.228 329.035C137.77 327.06 134.291 324.911 130.79 323.027C127.854 321.446 124.758 319.286 121.724 318.053C121.76 310.791 122.007 301.65 121.612 294.515C127.727 291.281 135.828 286.816 141.636 283.23Z"/><path fill="#24455C" d="M141.563 190.723C143.393 191.553 146.083 193.154 147.889 194.163L162.26 202.358C161.855 209.294 162.093 218.593 162.302 225.524C155.379 229.08 148.93 233.192 142.138 236.922C141.016 236.951 124.685 227.313 121.705 225.87C121.873 220.391 122.055 207.905 121.569 202.542C126.995 199.254 137.175 194.168 141.563 190.723Z"/><path fill="#3693C6" d="M300.51 90.9341C302.851 91.5809 304.534 92.3624 306.734 93.3689C311.29 96.1496 315.991 98.6747 320.663 101.252C324.284 103.249 328.529 105.202 331.575 108.032C332.722 109.098 333.371 110.125 333.76 111.65C334.932 116.239 334.046 121.988 334.055 126.724C334.064 132.063 334.476 137.635 333.992 142.934C333.886 144.102 333.685 145.659 333.011 146.634C330.852 149.756 311.581 160.301 307.173 162.431C307.358 169.82 307.387 178.77 307.225 186.171C311.947 188.053 316.243 191.123 320.65 193.631C323.929 195.498 327.601 197.071 330.594 199.368C331.729 200.238 332.724 201.342 333.288 202.668C333.755 203.767 333.957 204.95 334.065 206.132C334.507 210.967 334.762 235.096 333.133 238.849C332.696 239.854 331.537 240.63 330.663 241.245C326.513 244.166 321.785 246.444 317.367 248.94C312.384 251.754 307.243 255.364 301.82 257.227C301.457 257.351 301.091 257.469 300.724 257.58C291.68 254.751 280.628 246.533 271.965 242.186C268.505 240.45 266.999 236.836 267.099 233.285C266.855 224.639 267.371 215.976 267.072 207.324C266.986 204.835 267.884 201.613 270.018 200.227C277.111 195.621 286.46 189.362 294.144 186.139C293.752 178.518 294.143 170.197 293.963 162.474C289.493 159.853 284.994 157.28 280.469 154.756C277.059 152.834 273.26 151.034 270.273 148.497C269.084 147.487 267.991 146.276 267.582 144.734C266.08 139.064 267.209 130.076 267.241 124.01C267.258 120.614 266.88 117.102 267.182 113.726C267.302 112.38 267.551 111.042 268.225 109.851C270.727 105.422 289.145 96.7174 294.379 93.4696C296.622 92.2995 298.057 91.5719 300.51 90.9341Z"/><path fill="#24455C" d="M300.311 104.98C301.339 104.888 318.486 115.014 320.818 116.325C320.741 121.885 320.424 134.678 320.932 139.664C314.139 143.005 307.358 147.755 300.833 150.921C300.075 151.072 283.034 141.178 280.473 139.887C280.725 132.268 280.88 124.098 280.423 116.51C286.691 113.043 294.328 108.768 300.311 104.98Z"/><path fill="#24455C" d="M300.394 197.266C301.37 197.44 318.521 207.392 320.766 208.597C320.837 213.408 320.672 218.333 320.726 223.15C320.756 225.788 320.58 229.273 321.038 231.817C314.352 235.755 307.618 239.611 300.838 243.385C300.32 243.447 282.686 233.089 280.444 231.95C280.771 229.425 280.667 225.6 280.671 222.965C280.678 218.241 280.703 213.4 280.43 208.694C287.137 204.977 293.793 201.168 300.394 197.266Z"/><path fill="#386178" d="M96.7372 150.832C92.8027 145.373 89.4902 137.631 85.692 132.019C83.0371 128.096 79.5734 121.127 84.7776 118.001C87.3955 116.428 90.0421 115.909 92.5914 118.695C98.2316 126.617 103.041 135.515 108.02 143.929C113.923 144.714 135.787 145.346 139.427 148.577C141.473 150.393 146.923 174.693 147.034 178.519C140.836 176.503 139.893 177.124 134.386 180.174C128.894 183.342 120.667 188.462 115.248 191.18C111.696 193.423 109.028 194.415 108.586 198.909C108.529 199.484 108.461 200.952 108.35 201.416C105.683 200.72 91.0874 186.184 87.305 183.506C82.3107 179.97 87.3964 170.996 89.4292 166.505C91.7855 161.244 94.2218 156.019 96.7372 150.832Z"/><path fill="#24455C" d="M108.299 156.537C113.629 157.591 124.508 158.498 129.959 158.77C130.361 162.45 133.132 176.822 134.386 180.174C128.894 183.342 120.667 188.462 115.248 191.18C112.715 188.106 102.503 179.602 99.0831 176.781C101.734 170.405 105.365 162.863 108.299 156.537Z"/><path fill="#386178" d="M135.756 340.985C137.974 342.074 139.357 342.722 141.708 343.576C144.227 342.803 145.699 342.201 148.066 341.036C149.037 345.884 148.273 365.049 147.366 370.913C146.352 372.469 144.97 373.038 143.216 373.508C132.64 376.345 135.287 360.385 135.041 354.477C134.924 351.668 134.587 342.629 135.756 340.985Z"/><path fill="#386178" d="M294.883 63.7831C295.291 63.3008 295.708 62.8286 296.207 62.4372C297.502 61.4219 299.37 60.8467 301.009 61.049C302.672 61.2542 304.894 61.7989 305.867 63.2833C307.867 66.3337 307.672 89.0709 306.734 93.3689C304.534 92.3624 302.851 91.5809 300.51 90.9341C298.057 91.5719 296.622 92.2995 294.379 93.4696C293.124 89.4664 294.216 68.5909 294.883 63.7831Z"/><path fill="#9066A5" d="M272.472 294.289C274.704 292.324 290.537 293.073 294.528 293.067L334.58 293.093L383.88 293.029C392.912 293.04 402.085 292.977 411.114 293.251C412.606 293.297 413.401 293.294 414.359 294.268C414.567 295.01 414.483 295.648 414.021 296.282C410.909 300.548 406.804 304.84 403.365 308.831L376.662 340.176L366.045 352.593C356.192 364.183 357.005 362.688 357.043 377.833L357.039 397.432C357.043 400.447 357.248 403.532 357.095 406.536C357.047 407.475 356.988 408.667 356.485 409.478C355.988 410.28 355.099 411.019 354.365 411.611C352.33 413.252 333.658 426.631 331.958 426.827C331.611 426.868 331.611 426.851 331.317 426.804C329.861 425.192 330.517 413.593 330.506 410.99L330.384 379.274C330.379 376.945 330.635 366.345 329.76 364.765C323.29 353.07 311.532 342.131 303.244 331.544C301.598 329.441 295.285 321.754 294.225 320.959C287.658 312.814 280.219 304.976 273.601 296.851C273.172 296.324 272.712 294.978 272.472 294.289Z"/></svg>