<?xml version="1.0" encoding="utf-8" ?><svg xmlns="http://www.w3.org/2000/svg" xmlns:xlink="http://www.w3.org/1999/xlink" width="333" height="324" viewBox="0 0 333 324"><path fill="#356078" d="M256.357 99.2294L256.895 99.5389C258.871 104.485 256.798 131.006 257.351 137.678C257.527 139.803 255.354 145.19 253.338 146.564C247.878 150.285 240.672 144.895 234.919 144.364C223.945 143.556 216.494 151.353 209.335 158.31C205.692 161.85 196.576 161.342 191.513 161.798C176.831 163.118 161.669 163.187 146.917 162.721C125.762 162.052 103.422 160.672 83.1932 154.29C68.7868 149.745 61.0235 146.019 62.5881 129.71C62.874 126.729 62.6413 123.575 63.1086 120.411C65.1415 118.838 68.1224 117.156 70.3795 115.797C73.5599 113.731 74.8675 112.888 78.4887 112.077C82.0885 113.229 83.5296 114.242 86.2167 116.795C86.5673 123.477 85.6228 135.489 90.3375 139.707C99.4519 147.862 111.07 140.108 110.456 128.574C110.261 124.915 110.334 119.402 110.473 116.086C115.34 114.048 120.279 112.3 125.361 114.299C128.842 118.147 127.993 123.546 127.973 128.381C127.941 135.977 132.317 142.043 140.49 141.84C143.51 141.771 146.368 140.456 148.385 138.206C152.911 133.242 152.178 121.513 151.916 115.109C154.468 115.258 159.054 115.056 161.845 115.083C175.984 115.357 190.125 114.654 204.166 112.98C218.314 111.42 231.916 109.056 245.19 103.728C248.91 102.235 252.566 100.519 256.357 99.2294ZM196.533 144.595C199.244 142.827 199.978 141.687 200.935 138.507C199.942 135.768 198.906 133.472 195.567 133.45C190.746 137.242 190.092 146.455 196.533 144.595ZM220.316 129.464C216.581 133.104 212.975 140.388 221.316 140.678C227.094 137.194 226.323 129.571 220.316 129.464ZM243.459 134.802C246.074 132.778 246.806 131.764 247.283 128.474C245.872 125.055 245.033 124.334 241.394 123.883C238.318 128.56 234.593 134.089 243.459 134.802Z"/><path fill="#356078" d="M63.1596 154.563C65.4029 155.018 69.9299 157.184 72.1934 158.163C75.8978 159.766 78.8605 160.938 82.788 161.903C111.564 168.857 141.174 171.732 170.75 170.444C177.621 170.123 184.488 169.707 191.348 169.194C194.431 168.993 200.842 168.082 203.756 169.295C204.852 169.752 204.846 173.67 203.683 174.371C201.672 175.583 198.91 175.855 196.686 176.617C189.612 179.11 183.66 185.094 179.298 190.989C176.5 195.126 176.304 197.91 175.845 202.721C173.326 203.851 170.578 204.451 168.035 205.556C162.899 207.789 159.922 211.942 155.89 215.567C151.515 219.5 147.076 218.617 141.627 218.338C124.826 217.48 77.2091 213.928 65.7364 201.012C64.3558 199.457 63.7975 198.346 63.3847 196.33C62.1569 190.333 62.8977 183.827 62.9082 177.738C62.9215 170.046 62.6482 162.235 63.1596 154.563Z"/><path fill="#3494C9" d="M307.458 192.434C307.516 192.458 307.576 192.477 307.632 192.505C308.293 192.835 308.816 193.284 309.073 193.984C309.483 195.095 302.722 206.323 301.767 208.279C303.487 209.35 307.99 213.369 309.352 214.822C304.052 224.352 299.079 233.097 292.818 242.099C282.862 256.416 271.495 268.809 259.447 281.336C254.897 286.067 250.951 290.855 246.185 295.433C248.583 297.018 250.192 299.39 251.819 301.698C249.677 302.521 246.453 302.949 244.106 303.367C236.311 304.755 228.012 305.103 220.309 306.825C214.643 308.092 210.338 312.333 204.086 312.768C199.79 313.067 196.442 312.63 192.982 309.779C185.71 303.786 192.23 292.76 192.484 284.738C192.662 279.111 191.269 277.469 190.858 272.706C188.971 274.338 186.638 275.441 184.43 276.602C181.521 271.52 179.844 264.698 176.789 259.106C171.231 248.935 163.317 239.897 159.849 228.795C161.095 226.292 162.027 225.271 163.805 223.154C166.821 219.553 169.29 217.441 172.808 214.3C177.53 233.717 193.598 243.037 197.508 262.166C198.039 264.763 194.706 268.229 193.087 270.062C201.825 281.199 190.996 295.734 194.572 304.42C195.265 306.103 196.482 307.361 198.18 308.034C201.662 309.415 205.344 308.531 208.633 307.082C210.457 306.279 212.138 305.246 213.347 303.63C217.528 298.044 218.613 289.367 220.219 282.715C221.365 277.974 222.595 273.168 224.38 268.627C226.308 270.373 228.906 272.851 230.495 274.856C233.149 271.025 236.34 267.952 239.429 264.481C244.979 258.282 250.454 252.017 255.854 245.687C265.237 234.62 273.94 222.992 281.913 210.869C284.612 206.68 286.841 202.126 289.524 197.855C292.471 199.889 295.654 202.273 297.545 205.393C299.602 201.021 303.285 194.996 307.458 192.434Z"/><path fill="#356078" d="M63.4211 209.885C67.0819 210.597 70.9967 212.992 74.5799 214.366C78.5695 215.895 82.2583 216.856 86.3836 217.861C101.374 221.62 116.654 224.108 132.062 225.3C137.757 225.741 143.699 225.469 148.966 225.921C149.991 236.116 152.483 239.929 158.124 248.481C163.16 256.117 168.268 264.333 170.959 273.112C171.077 273.497 170.753 273.688 170.523 273.921C155.699 274.034 140.878 273.486 126.103 272.28C111.474 271.148 74.8632 266.671 65.3773 255.372C64.5143 254.345 63.8861 253.414 63.594 252.086C62.3756 246.549 63.011 240.381 63.0065 234.735C62.9999 226.411 62.6819 218.194 63.4211 209.885Z"/><path fill="#3494C9" d="M76.5789 21.2381C82.9763 21.6756 93.4237 28.19 98.077 32.407C101.421 29.1687 105.051 27.3327 109.108 25.1243C112.69 23.044 116.554 20.4153 120.87 21.9099C122.9 22.6131 124.393 24.3769 123.193 26.4321C119.738 32.346 109.281 38.0363 103.279 40.2847C103.723 45.173 103.488 53.8677 103.465 59.0417C107.023 60.5628 115.545 65.7062 118.533 68.1745C125.86 63.9032 131.538 59.213 139.868 56.2902C147.218 58.2382 157.529 64.9182 163.201 70.1473C166.056 72.7791 164.635 75.2522 162.182 77.4662C155.308 77.7681 145.412 70.5598 139.602 66.519C137.305 69.0307 127.605 74.6345 124.106 76.7495C123.842 81.2986 124.201 89.6563 124.239 94.5858C128.433 96.684 141.598 103.838 144.01 107.434C145.888 110.234 145.489 128.195 144.6 131.548C143.81 133.538 142.225 135.847 139.759 135.503C132.651 134.508 134.412 117.377 134.97 112.202C131.029 110.935 122.703 105.598 119.362 103.066C116.96 104.773 106.451 110.928 103.701 112.155C103.968 117.842 104.166 130.22 102.113 135.131C98.7892 137.532 96.0672 136.526 93.573 133.607C93.1017 128.544 92.9843 117.745 93.4145 112.636C90.0334 111.233 81.2517 105.412 77.9421 103.223C72.4281 106.124 67.4049 110.42 61.4713 113.116C57.1314 115.089 50.8665 113.431 53.3403 108.456C56.1934 102.718 67.5959 97.1334 73.2726 94.8584C72.2325 90.1181 71.7239 75.479 74.1036 71.4998C76.3755 67.7008 89.2934 60.3332 93.6056 59.0593C93.2265 55.2902 92.9857 44.3344 93.4895 40.6099C87.6701 38.1399 76.7013 31.1827 72.2351 26.6716C70.2835 24.7003 75.0403 21.9433 76.5789 21.2381ZM82.6468 76.3177C82.8862 82.2478 82.5887 88.7134 82.9289 94.4943C85.7746 96.3016 96.7804 103.88 99.1323 103.491C103.218 100.847 109.971 96.4265 114.304 94.6985C113.972 88.7386 114.011 82.4739 114.048 76.4941C110.415 75.2546 99.9337 67.6982 97.8932 67.7196C93.629 70.408 87.1775 74.7537 82.6468 76.3177Z"/><path fill="#356078" d="M169.872 65.7017C189.94 66.948 210.256 68.301 229.927 72.7111C236.656 74.2195 245.528 76.6644 250.654 81.5122C252.411 83.1744 253.42 84.8065 254.687 86.8209C244.249 100.167 218.847 102.392 203.314 104.462C199.688 104.566 196.436 105.251 192.872 105.49C178.996 106.421 165.783 107.069 151.86 107.03C146.529 96.5176 139.984 96.2894 131.097 90.2373C130.626 79.2732 130.214 80.1506 140.228 75.3545C147.197 78.7618 155.034 86.2409 163.448 83.8884C166.193 83.1135 168.502 81.2475 169.835 78.7252C172.192 74.361 171.151 70.1383 169.872 65.7017Z"/><path fill="#3494C9" d="M226.558 156.899C228.096 158.387 231.148 165.252 232.571 167.618C239.206 178.647 250.257 189.478 251.833 202.652C252.19 205.637 242.587 213.721 240.176 215.808C239.405 216.185 239.315 216.274 238.555 215.993C238.002 215.16 237.774 214.156 237.471 213.206C234.245 203.113 228.567 193.741 222.82 184.91C220.298 181.034 215.424 174.152 215.286 169.54C215.2 166.682 224.289 158.983 226.558 156.899Z"/><path fill="#3494C9" d="M198.595 186.908C200.875 189.292 203.25 196.228 205.453 199.516C212.076 209.403 222.965 219.592 223.497 232.123C223.654 235.838 215.144 243.981 212.259 246.397C210.684 244.264 208.71 239.662 207.939 237.133C204.166 224.753 189.807 211.376 186.984 199.436C188.781 194.866 194.892 190.088 198.595 186.908Z"/><path fill="#3494C9" d="M230.776 154.979C248.892 156.774 259.072 170.749 278.343 170.192C276.462 172.291 273.675 174.786 271.489 176.588C277.194 176.963 283.424 179.644 289.405 178.294C292.136 177.678 295.521 174.121 298.486 175.669C299.356 176.935 298.835 177.687 297.776 178.697C293.607 181.748 290.873 182.653 285.664 182.882C279.55 183.152 274.258 182.533 268.588 180.239C267.625 181.725 266.118 183.371 264.699 184.397C250.11 194.951 233.123 165.976 230.776 154.979Z"/><path fill="#3494C9" d="M202.874 185.603C207.667 186.058 218.147 189.326 221.751 192.334C229.052 198.428 233.839 210.034 235.159 219.16C232.648 218.588 225.807 217.009 224.068 215.676C215.347 208.993 205.642 196.273 202.874 185.603Z"/><path fill="#3494C9" d="M176.539 213.943C183.017 214.02 195.617 221.948 199.125 227.495C202.799 233.306 207.162 241.716 207.778 248.667C203.641 249.441 197.762 247.333 194.915 244.469C187.312 236.823 178.406 224.626 176.539 213.943Z"/></svg>