<?xml version="1.0" encoding="utf-8" ?><svg xmlns="http://www.w3.org/2000/svg" xmlns:xlink="http://www.w3.org/1999/xlink" width="546" height="482" viewBox="0 0 546 482"><path fill="#99CEC6" d="M146.686 192.212C144.183 181.727 137.035 178.263 132.068 170.077C124.614 157.793 134.544 141.098 138.248 129.153C139.763 124.268 140.437 117.009 141.712 111.803C146.976 90.3191 164.031 94.3923 181.038 95.3689C187.924 95.7643 195.322 95.1808 202.227 94.579C205.504 94.2934 212.303 94.0807 215.002 92.0857C222.756 85.5442 216.149 70.8377 214.782 62.6711C213.111 52.6909 218.536 45.1065 226.386 39.7054C232.776 35.4454 240.305 32.9825 247.867 34.452C259.636 36.7391 260.264 46.1611 265.246 54.0558C272.881 66.1564 290.412 50.4632 301.023 53.3177C308.474 54.5133 308.614 59.2607 311.937 63.8039C316.169 69.5916 318.442 79.6718 321.819 84.5506C325.738 85.9981 330.776 85.8607 334.921 86.9338L335.251 87.0155C340.981 88.4625 345.82 93.3059 351.793 93.5995C355.995 93.7692 359.84 92.0074 363.749 90.7683C372.668 87.9416 383.468 84.6714 392.271 89.4937C397.255 92.2242 400.507 96.1198 401.946 101.625C403.421 108.621 401.373 115.437 398.844 121.981C406.638 126.24 409.053 131.129 410.473 139.521C414.112 138.759 418.416 139.072 422.032 138.451C434.511 136.31 448.339 136.304 459.484 143.146C467.485 148.058 473.198 158.123 475.032 167.155C476.52 173.896 475.117 181.539 471.048 187.125C463.518 197.461 471.01 208.78 464.243 219.195C458.574 227.92 443.748 230.522 446.752 243.203C447.873 248.02 449.258 252.469 449.744 257.444C450.306 263.204 447.586 271.59 448.749 276.995C450.277 284.091 459.238 289.379 464.149 293.983C466.917 296.442 470.096 303.506 471.796 304.256C481.364 308.479 496.077 307.128 499.057 320.176C499.942 324.052 499.16 328.882 496.711 332.336C489.415 342.841 476.59 347.415 464.809 350.203C453.893 352.964 429.073 348.142 422.1 358.766C415.342 369.063 421.529 389.99 403.754 393.274C396.253 394.659 392.865 392.051 385.949 390.763C382.634 390.146 376.844 392.368 373.026 390.752C368.886 389.753 364.807 386.13 361.377 385.939C358.034 385.753 353.792 392.638 351.458 395.129C349.772 396.943 347.787 398.453 345.588 399.592C339.089 402.902 327.159 403.624 320.884 399.295C320.479 399.017 320.088 398.719 319.713 398.402C314.03 399.337 307.946 399.481 303.851 394.821C302.054 392.777 299.69 389.359 298.552 386.851C290.598 395.733 276.559 404.446 264.24 400.431L263.858 400.598C260.763 401.977 258.608 403.94 255.845 405.334C248.164 409.209 239.241 409.59 231.143 406.882C225.298 404.928 222.368 401.699 217.92 399.4C212.56 400.147 209.124 400.567 205.805 405.437C202.057 410.937 199.476 412.907 192.712 413.904C185.031 415.035 175.2 413.342 168.9 408.562C163.318 404.328 159.487 396.929 155.422 391.275C152.767 387.583 149.609 383.931 147.358 380.003C146.587 378.656 145.937 376.373 145.775 374.835C145.449 371.751 145.341 368.913 144.84 365.82C137.297 367.347 133.57 369.335 126.728 371.362C116.577 373.96 107.101 373.762 98.3732 367.518C88.3732 360.364 80.7652 351.979 78.0411 339.717C74.769 324.989 80.5018 308.126 79.2298 293.99C77.8116 278.228 52.3604 258.726 63.5788 241.107C68.4072 233.205 84.0889 232.169 92.5943 232.205C90.5144 219.89 95.2097 217.754 97.916 207.481C102.356 190.624 117.898 184.445 132.685 193.54C134.966 194.944 138.685 200.494 139.216 200.74C142.943 197.212 144.233 197.411 146.686 192.212Z"/><path fill="#499B99" d="M398.542 111.457C398.886 110.433 399.686 101.549 399.127 100.933C398.922 101.306 398.73 101.652 398.542 102.036L398.429 102.272C397.36 100.861 394.834 96.4753 397.169 95.2848C399.474 95.5074 400.773 100.443 401.607 102.09L401.946 101.625C403.421 108.621 401.373 115.437 398.844 121.981C406.638 126.24 409.053 131.129 410.473 139.521C414.112 138.759 418.416 139.072 422.032 138.451C434.511 136.31 448.339 136.304 459.484 143.146C467.485 148.058 473.198 158.123 475.032 167.155C476.52 173.896 475.117 181.539 471.048 187.125C463.518 197.461 471.01 208.78 464.243 219.195C458.574 227.92 443.748 230.522 446.752 243.203C447.873 248.02 449.258 252.469 449.744 257.444C450.306 263.204 447.586 271.59 448.749 276.995C450.277 284.091 459.238 289.379 464.149 293.983C466.917 296.442 470.096 303.506 471.796 304.256C481.364 308.479 496.077 307.128 499.057 320.176C499.942 324.052 499.16 328.882 496.711 332.336C489.415 342.841 476.59 347.415 464.809 350.203C453.893 352.964 429.073 348.142 422.1 358.766C415.342 369.063 421.529 389.99 403.754 393.274C396.253 394.659 392.865 392.051 385.949 390.763C382.634 390.146 376.844 392.368 373.026 390.752C368.886 389.753 364.807 386.13 361.377 385.939C358.034 385.753 353.792 392.638 351.458 395.129C349.772 396.943 347.787 398.453 345.588 399.592C339.089 402.902 327.159 403.624 320.884 399.295C320.479 399.017 320.088 398.719 319.713 398.402C314.03 399.337 307.946 399.481 303.851 394.821C302.054 392.777 299.69 389.359 298.552 386.851C290.598 395.733 276.559 404.446 264.24 400.431L263.858 400.598C260.763 401.977 258.608 403.94 255.845 405.334C248.164 409.209 239.241 409.59 231.143 406.882C225.298 404.928 222.368 401.699 217.92 399.4C212.56 400.147 209.124 400.567 205.805 405.437C202.057 410.937 199.476 412.907 192.712 413.904C185.031 415.035 175.2 413.342 168.9 408.562C163.318 404.328 159.487 396.929 155.422 391.275C152.767 387.583 149.609 383.931 147.358 380.003C146.587 378.656 145.937 376.373 145.775 374.835C145.449 371.751 145.341 368.913 144.84 365.82C137.297 367.347 133.57 369.335 126.728 371.362C116.577 373.96 107.101 373.762 98.3732 367.518C88.3732 360.364 80.7652 351.979 78.0411 339.717C74.769 324.989 80.5018 308.126 79.2298 293.99C77.8116 278.228 52.3604 258.726 63.5788 241.107C68.4072 233.205 84.0889 232.169 92.5943 232.205C90.5144 219.89 95.2097 217.754 97.916 207.481C102.356 190.624 117.898 184.445 132.685 193.54C134.966 194.944 138.685 200.494 139.216 200.74C139.154 203.164 135.174 205.038 133.097 205.49C128.003 209.508 124.472 216.863 122.172 222.897C122.781 223.858 122.374 223.58 123.332 223.895C120.819 230.957 118.359 236.164 121.963 243.31C123.724 246.801 125.781 249.719 127.041 253.424C122.556 248.395 119.253 243.434 118.453 236.587C111.638 236.17 104.884 236.706 98.1102 236.571C87.765 236.366 77.6007 234.057 68.9629 241.624C64.5639 245.477 63.4774 251.246 65.9958 256.602C69.6353 264.343 74.2434 273.051 79.5573 279.794C86.1933 287.168 98.3651 287.78 107.093 293.919C100.828 291.73 93.0263 289.272 86.9762 286.972C85.948 288.254 86.2223 292.906 86.2798 294.652C86.5802 303.784 85.917 311.456 82.4199 319.973C81.88 321.288 81.9096 323.072 81.5694 324.477C81.3205 331.483 81.0467 335.961 83.0931 342.784C84.4444 344.414 84.9889 343.595 86.5555 346.305C88.4725 349.62 91.7774 352.667 94.0884 355.731C94.8221 356.655 95.0953 358.576 95.9752 359.745C103.651 365.293 109.957 368.648 119.624 367.008C127.341 365.699 137.783 361.099 145.376 360.946C152.199 367.97 148.395 369.315 150.582 376.884C151.169 378.918 156.827 384.617 158.344 386.861C160.548 390.119 162.712 393.715 164.869 397.059C170.323 405.512 177.612 408.292 187.419 408.542C191.946 408.658 197.09 407.557 200.293 404.164C201.446 402.942 203.021 400.947 204.048 399.575C207.082 395.52 210.725 394.858 215.352 393.297C223.218 391.429 225.07 398.468 231.048 400.711C234.953 402.176 241.974 401.614 246.125 401.377C248.333 401.226 251.451 400.495 253.317 401.73C254.367 401.305 255.019 401.225 255.587 400.424C255.202 399.868 254.929 399.784 254.208 399.686C245.43 398.482 233.335 400.687 225.866 394.87C220.281 390.519 214.954 378.419 214.042 371.528C215.415 375.577 222.446 388.396 225.625 391.431C228.517 391.797 231.203 393.405 234.094 393.562C238.855 393.821 243.693 393.054 248.444 393.723C249.856 393.922 251.209 394.287 252.614 394.534L255.901 394.81C261.491 394.54 270.184 395.12 276.069 395.363C277.611 394.854 279.127 394.274 280.615 393.625C293.597 387.855 296.948 380.503 298.714 366.849C298.871 365.636 299.301 359.833 299.527 359.248C299.572 361.287 299.804 363.267 299.821 365.224C299.883 372.305 298.898 377.872 297.456 384.716C304.267 383.878 303.641 388.348 307.454 392.875C313.987 393.369 318.787 392.315 324.955 395.22C327.688 396.508 332.183 396.07 335.157 396.309C348.39 397.374 350.789 385.995 360.93 380.752C366.085 382.126 370.872 384.283 376.14 385.472C379.432 386.215 382.985 384.91 385.733 385.27C392.482 386.229 399.613 389.202 406.295 386.262C417.919 381.147 412.128 358.304 421.597 352.359C435.939 343.355 458.376 349.384 473.721 342.207C479.23 337.383 498.085 331.402 492.61 320.026C490.732 316.122 483.711 314.097 479.917 312.873C476.927 311.909 476.884 312.096 475.445 309.27C474.349 309.045 472.879 308.476 471.791 308.097C470.042 316.414 462.14 321.389 454.543 323.939L454.24 323.759C454.636 323.124 456.754 322.166 457.497 321.797C462.241 319.445 469.071 314.67 468.301 308.566C467.348 301.011 459.507 295.134 453.8 290.786C445.207 284.238 444.889 278.193 443.787 268.045C444.252 267.802 444.153 267.743 444.544 267.777L444.806 267.993L444.965 267.71L444.702 266.851C444.932 265.872 445.697 265.248 446.411 264.478C446.574 263.921 446.48 264.125 446.183 263.358C447.415 259.264 446.352 256.939 445.443 253.248C445.358 252.573 444.975 251.105 444.809 250.381C444.374 246.287 442.66 242.235 442.784 238.027C444.685 228.757 449.883 226.288 457.205 221.323C466.385 215.1 461.72 202.287 463.892 193.136C465.343 187.023 470.504 182.21 471.062 175.874C471.784 167.677 469.572 160.288 464.498 153.816C461.368 149.212 457.744 146.654 452.544 144.715C433.749 136.832 423.668 145.549 405.999 144.256C402.159 142.988 394.507 137.056 392.342 133.699C392.137 132.767 391.903 132.522 392.193 131.8C392.719 132.092 394.1 133.798 394.506 134.327C397.527 138.266 401.253 140.013 406.149 140.632C406.076 138.766 406.035 138.071 405.649 136.259C403.26 134.459 398.335 127.732 395.057 126.003C394.857 125.897 394.489 125.756 394.157 125.569L394.188 125.049C395.441 120.488 397.323 116.212 398.542 111.457Z"/><path fill="#99CEC6" d="M96.7581 225.867C97.5427 222.923 99.9726 221.558 100.667 219.639C104.317 209.319 109.063 193.291 123.318 196.505C124.771 196.833 133.642 200.313 134.901 201.119C134.732 202.523 133.863 204.319 133.097 205.49C128.003 209.508 124.472 216.863 122.172 222.897C121.005 226.116 118.761 231.884 117.922 234.981C112.755 234.982 100.618 235.512 96.3854 234.109C96.1983 231.021 96.3247 228.944 96.7581 225.867Z"/><path fill="#80C1B8" d="M96.7581 225.867C96.8808 218.156 102.78 205.952 106.752 199.29C110.001 193.84 119.635 192.57 125.291 194.206C130.006 195.571 132.21 196.753 134.901 201.119C133.642 200.313 124.771 196.833 123.318 196.505C109.063 193.291 104.317 209.319 100.667 219.639C99.9726 221.558 97.5427 222.923 96.7581 225.867Z"/><path fill="#80C1B8" d="M475.445 309.27C480.934 310.067 490.967 312.327 494.35 317.05C499.086 323.663 494.13 332.691 488.072 336.518C484.752 338.66 477.829 342.594 473.721 342.207C479.23 337.383 498.085 331.402 492.61 320.026C490.732 316.122 483.711 314.097 479.917 312.873C476.927 311.909 476.884 312.096 475.445 309.27Z"/><path fill="#80C1B8" d="M82.6793 289.744C82.6546 288.503 83.8451 286.363 85.0327 285.834C85.924 286.011 86.2677 286.401 86.9762 286.972C85.948 288.254 86.2223 292.906 86.2798 294.652C86.5802 303.784 85.917 311.456 82.4199 319.973C81.88 321.288 81.9096 323.072 81.5694 324.477C81.2057 319.622 82.5653 308.857 82.9443 303.289C82.4833 300.753 83.1691 293.453 82.6793 289.744Z"/><path fill="#5EB0AA" d="M82.6793 289.744L83.1223 290.175C83.4926 289.651 83.8024 289.19 84.1493 288.65L84.5442 288.738C85.1963 290.267 85.4356 290.213 85.0696 291.586C84.1951 291.498 84.0219 291.366 83.25 290.993C82.7042 291.911 83.4886 301.659 82.9443 303.289C82.4833 300.753 83.1691 293.453 82.6793 289.744Z"/><path fill="#80C1B8" d="M215.352 393.297C223.218 391.429 225.07 398.468 231.048 400.711C234.953 402.176 241.974 401.614 246.125 401.377C248.333 401.226 251.451 400.495 253.317 401.73C244.194 406.229 229.023 403.468 221.683 396.646C220.407 395.46 217.003 393.857 215.352 393.297Z"/><path fill="#80C1B8" d="M225.625 391.431C228.517 391.797 231.203 393.405 234.094 393.562C238.855 393.821 243.693 393.054 248.444 393.723C249.856 393.922 251.209 394.287 252.614 394.534C244.771 394.545 231.568 400.415 225.625 391.431Z"/><path fill="#80C1B8" d="M83.0931 342.784C84.4444 344.414 84.9889 343.595 86.5555 346.305C88.4725 349.62 91.7774 352.667 94.0884 355.731C94.8221 356.655 95.0953 358.576 95.9752 359.745C95.7997 359.632 95.6251 359.518 95.4517 359.402C90.223 355.902 84.3516 349.091 83.0931 342.784Z"/><path fill="#80C1B8" d="M405.649 136.259C403.26 134.459 398.335 127.732 395.057 126.003C394.857 125.897 394.489 125.756 394.157 125.569L394.188 125.049C394.994 125.895 396.082 125.437 397.69 126.021C401.285 127.326 405.187 132.589 405.649 136.259Z"/><path fill="#80C1B8" d="M255.901 394.81C261.491 394.54 270.184 395.12 276.069 395.363C274.893 395.74 274.208 396.205 272.93 396.483C267.727 397.613 261.12 395.874 255.901 394.81Z"/><path fill="#80C1B8" d="M446.411 264.478C447.5 266.037 446.814 272.649 446.707 274.989C445.19 272.093 445.83 268.658 444.965 267.71L444.702 266.851C444.932 265.872 445.697 265.248 446.411 264.478Z"/><path fill="#499B99" d="M146.686 192.212C144.183 181.727 137.035 178.263 132.068 170.077C124.614 157.793 134.544 141.098 138.248 129.153C139.763 124.268 140.437 117.009 141.712 111.803C146.976 90.3191 164.031 94.3923 181.038 95.3689C187.924 95.7643 195.322 95.1808 202.227 94.579C205.504 94.2934 212.303 94.0807 215.002 92.0857C222.756 85.5442 216.149 70.8377 214.782 62.6711C213.111 52.6909 218.536 45.1065 226.386 39.7054C232.776 35.4454 240.305 32.9825 247.867 34.452C259.636 36.7391 260.264 46.1611 265.246 54.0558C272.881 66.1564 290.412 50.4632 301.023 53.3177C308.474 54.5133 308.614 59.2607 311.937 63.8039C316.169 69.5916 318.442 79.6718 321.819 84.5506C325.738 85.9981 330.776 85.8607 334.921 86.9338C333.436 86.9061 332.89 86.8294 331.455 87.3524L331.759 87.4055C323.712 89.567 322.736 88.9869 317.066 83.2525C313.659 75.3575 309.458 62.2115 300.803 57.8748C299.591 57.2677 296.613 57.6408 295.584 57.0894L295.442 56.646C286.33 59.6108 279.237 67.0759 268.505 62.1633C256.655 56.7392 259.625 39.4305 244.935 39.4474C235.192 38.6824 224.528 45.7605 219.542 53.7238C217.468 57.0361 219.183 64.2551 220.299 67.8721C223.446 78.0699 226.693 93.3311 213.269 97.6083C203.228 100.807 190.495 99.9814 180.075 99.9312C173.932 99.8545 159.636 98.0224 154.517 100.451C144.791 105.064 145.076 121.525 142.889 130.047C139.161 144.579 126.225 157.385 139.575 170.951C139.98 172.417 141.068 173.706 142.009 174.912C145.859 179.848 149.494 183.895 150.402 190.333C150.713 192.543 150.542 197.467 152.17 198.616C152.527 198.868 153.585 198.859 154.126 198.902C148.37 199.515 144.809 201.298 139.216 200.74C142.943 197.212 144.233 197.411 146.686 192.212Z"/><path fill="#80C1B8" d="M317.066 83.2525C322.736 88.9869 323.712 89.567 331.759 87.4055L331.455 87.3524C332.89 86.8294 333.436 86.9061 334.921 86.9338L335.251 87.0155C340.981 88.4625 345.82 93.3059 351.793 93.5995C355.995 93.7692 359.84 92.0074 363.749 90.7683C372.668 87.9416 383.468 84.6714 392.271 89.4937C397.255 92.2242 400.507 96.1198 401.946 101.625L401.607 102.09C400.773 100.443 399.474 95.5074 397.169 95.2848C394.834 96.4753 397.36 100.861 398.429 102.272L398.542 102.036C398.73 101.652 398.922 101.306 399.127 100.933C399.686 101.549 398.886 110.433 398.542 111.457C398.616 109.188 398.975 104.74 398.019 102.885C390.471 88.2488 373.647 93.0154 361.053 96.6351C357.919 97.5359 354.407 98.3607 351.43 98.34C344.918 98.2947 339.512 93.9962 333.536 92.0701C330.214 90.9973 325.735 91.3293 322.566 89.9062C319.38 88.4755 318.262 86.225 317.066 83.2525Z"/><defs><linearGradient id="gradient_0" gradientUnits="userSpaceOnUse" x1="138.52109" y1="202.1356" x2="164.19133" y2="241.70161"><stop offset="0" stop-color="#197C81"/><stop offset="1" stop-color="#3CA5A5"/></linearGradient></defs><path fill="url(#gradient_0)" d="M155.78 198.901C158.463 199.336 160.136 199.749 162.744 200.578C175.409 204.597 180.838 223.556 176.378 235.158C175.913 234.656 175.86 234.397 175.589 233.767C176.992 222.408 174.665 208.205 162.809 203.37C154.536 199.995 149.866 199.985 141.595 203.04C130.572 207.111 127.745 213.747 123.332 223.895C122.374 223.58 122.781 223.858 122.172 222.897C124.472 216.863 128.003 209.508 133.097 205.49C135.174 205.038 139.154 203.164 139.216 200.74C144.809 201.298 148.37 199.515 154.126 198.902L155.78 198.901Z"/><path fill="#80C1B8" d="M139.575 170.951C146.838 173.757 151.573 183.642 153.111 190.785C152.721 191.802 152.351 192.803 151.908 193.799C152.658 195.941 152.958 196.833 154.527 198.506C154.94 198.638 155.366 198.782 155.78 198.901L154.126 198.902C153.585 198.859 152.527 198.868 152.17 198.616C150.542 197.467 150.713 192.543 150.402 190.333C149.494 183.895 145.859 179.848 142.009 174.912C141.068 173.706 139.98 172.417 139.575 170.951Z"/><path fill="#186E73" d="M446.183 263.358C446.48 264.125 446.574 263.921 446.411 264.478C445.697 265.248 444.932 265.872 444.702 266.851L444.965 267.71L444.806 267.993L444.544 267.777C444.153 267.743 444.252 267.802 443.787 268.045C443.629 268.053 443.47 268.06 443.311 268.068C437.419 271.346 431.487 273.649 426.658 278.532C422.479 282.757 421.701 287.865 418.801 292.541C422.985 277.301 429.097 274.555 441.884 266.91C444.107 265.775 444.638 265.319 446.183 263.358Z"/><path fill="#80C1B8" d="M392.342 133.699C394.507 137.056 402.159 142.988 405.999 144.256C399.164 143.985 393.422 141.13 392.342 133.699Z"/><path fill="#80C1B8" d="M452.544 144.715C457.744 146.654 461.368 149.212 464.498 153.816C463.625 153.113 461.997 152.323 460.987 151.649C458.273 149.836 455.241 148.282 452.838 146.049C452.838 146.049 452.571 144.837 452.544 144.715Z"/><path fill="#80C1B8" d="M445.443 253.248C446.352 256.939 447.415 259.264 446.183 263.358C444.638 265.319 444.107 265.775 441.884 266.91C441.891 264.237 444.344 262.77 444.993 260.372C445.557 258.288 445.427 255.45 445.443 253.248Z"/><path fill="#80C1B8" d="M442.784 238.027C442.66 242.235 444.374 246.287 444.809 250.381C444.312 249.391 443.752 248.609 443.262 247.557C442.118 245.098 441.816 240.572 442.784 238.027Z"/><path fill="#5EB0AA" d="M175.589 233.767C175.86 234.397 175.913 234.656 176.378 235.158C175.96 237.196 173.706 241.999 172.795 243.984C172.987 241.494 174.782 236.299 175.589 233.767Z"/><path fill="#F14463" d="M223.659 167.717C223.727 171.11 223.775 172.045 225.93 174.852C230.069 178.816 235.114 180.584 240.618 181.883C246.24 182.115 251.27 179.527 256.453 177.579C257.16 177.436 257.892 177.33 258.606 177.215L258.869 177.417C260.713 178.813 263.289 179.976 264.771 181.08C268.586 183.921 272.062 192.358 272.516 196.978C273.658 208.582 272.7 221.392 265.161 230.835C259.055 238.485 253.15 242.649 245.22 247.918C242.234 245.338 240.637 244.31 236.901 242.917C229.751 241.564 227.884 240.967 221.159 238.797C222.323 244.385 221.125 248.201 217.981 252.823C210.983 263.111 201.245 272.361 204.233 286.007C205.326 291.172 210.48 302.371 206.266 307.153C199.597 314.723 185.214 321.458 175.468 323.229C166.102 324.93 153.718 321.362 150.543 311.446C150.265 310.926 149.781 308.821 149.603 308.126C154.638 296.996 176.721 302.058 178.901 284.693C179.746 277.964 173.957 268.592 176.209 264.217C182.541 251.916 192.187 248.04 195.255 233.429C195.851 227.993 195.41 220.421 194.85 214.947C194.538 211.892 192.953 208.054 193.265 204.741C193.416 203.146 194.193 201.782 194.723 200.217C194.153 199.146 194.26 197.763 194.639 196.64C197.871 187.051 203.613 178.879 213.06 174.596C216.259 173.145 219.354 172.283 222.38 170.573C223.565 169.904 223.348 168.99 223.659 167.717Z"/><path fill="#80C1B8" d="M194.977 200.313C195.724 198.929 197.406 195.438 198.225 194.516C198.225 195.484 197.574 196.52 197.026 197.294C194.351 201.069 196.496 206.115 198.195 209.642C202.21 218.785 211.57 230.759 219.58 236.725C225.743 241.271 234.741 240.94 236.901 242.917C229.751 241.564 227.884 240.967 221.159 238.797C222.323 244.385 221.125 248.201 217.981 252.823C210.983 263.111 201.245 272.361 204.233 286.007C205.326 291.172 210.48 302.371 206.266 307.153C199.597 314.723 185.214 321.458 175.468 323.229C166.102 324.93 153.718 321.362 150.543 311.446C150.265 310.926 149.781 308.821 149.603 308.126C154.638 296.996 176.721 302.058 178.901 284.693C179.746 277.964 173.957 268.592 176.209 264.217C182.541 251.916 192.187 248.04 195.255 233.429C195.851 227.993 195.41 220.421 194.85 214.947C194.538 211.892 192.953 208.054 193.265 204.741C193.416 203.146 194.193 201.782 194.723 200.217L194.977 200.313Z"/><defs><linearGradient id="gradient_1" gradientUnits="userSpaceOnUse" x1="212.15822" y1="208.56581" x2="201.1235" y2="241.55684"><stop offset="0" stop-color="#AC8487"/><stop offset="1" stop-color="#9B999A"/></linearGradient></defs><path fill="url(#gradient_1)" d="M194.723 200.217L194.977 200.313C195.953 213.167 209.119 228.978 218.715 237.166C219.158 237.545 219.609 237.914 220.067 238.275C220.752 241.599 221.316 244.201 219.879 247.453C218.159 246.931 215.368 246.747 213.243 246.083C204.203 243.257 201.008 240.088 195.255 233.429C195.851 227.993 195.41 220.421 194.85 214.947C194.538 211.892 192.953 208.054 193.265 204.741C193.416 203.146 194.193 201.782 194.723 200.217Z"/><path fill="#0B1F22" d="M194.977 200.313C195.724 198.929 197.406 195.438 198.225 194.516C198.225 195.484 197.574 196.52 197.026 197.294C194.351 201.069 196.496 206.115 198.195 209.642C202.21 218.785 211.57 230.759 219.58 236.725C225.743 241.271 234.741 240.94 236.901 242.917C229.751 241.564 227.884 240.967 221.159 238.797C222.323 244.385 221.125 248.201 217.981 252.823C210.983 263.111 201.245 272.361 204.233 286.007C205.326 291.172 210.48 302.371 206.266 307.153C199.597 314.723 185.214 321.458 175.468 323.229C166.102 324.93 153.718 321.362 150.543 311.446L150.742 311.327L151.184 311.448C155.595 321.605 168.801 324.345 178.693 321.579C187.396 319.146 200.496 313.457 205.757 305.881C208.719 301.616 204.96 293.077 203.708 288.803C198.48 271.797 212.17 261.683 219.879 247.453C221.316 244.201 220.752 241.599 220.067 238.275C219.609 237.914 219.158 237.545 218.715 237.166C209.119 228.978 195.953 213.167 194.977 200.313Z"/><defs><linearGradient id="gradient_2" gradientUnits="userSpaceOnUse" x1="229.49597" y1="206.259" x2="270.85834" y2="217.6722"><stop offset="0" stop-color="#CD7184"/><stop offset="1" stop-color="#C1B7B7"/></linearGradient></defs><path fill="url(#gradient_2)" d="M256.453 177.579C257.16 177.436 257.892 177.33 258.606 177.215L258.869 177.417C260.713 178.813 263.289 179.976 264.771 181.08C268.586 183.921 272.062 192.358 272.516 196.978C273.658 208.582 272.7 221.392 265.161 230.835C259.055 238.485 253.15 242.649 245.22 247.918C242.234 245.338 240.637 244.31 236.901 242.917C234.741 240.94 225.743 241.271 219.58 236.725C223.011 234.928 223.688 234.59 227.808 234.36C232.981 234.072 237.696 232.914 242.161 230.168C255.064 222.231 259.236 203.474 251.42 190.627C249.373 187.271 244.545 182.77 240.618 181.883C246.24 182.115 251.27 179.527 256.453 177.579Z"/><defs><linearGradient id="gradient_3" gradientUnits="userSpaceOnUse" x1="213.48056" y1="192.27919" x2="203.34993" y2="182.14998"><stop offset="0" stop-color="#D76F87"/><stop offset="1" stop-color="#C3949D"/></linearGradient></defs><path fill="url(#gradient_3)" d="M223.659 167.717C223.727 171.11 223.775 172.045 225.93 174.852C223.776 176.169 222.314 178.829 220.652 179.945C214.639 183.983 210.101 188.107 206.117 194.256C204.251 197.135 203.624 199.482 201.332 202.46C200.911 203.241 200.47 203.951 200.257 204.814C199.637 206.928 198.397 208.792 198.195 209.642C196.496 206.115 194.351 201.069 197.026 197.294C197.574 196.52 198.225 195.484 198.225 194.516C197.406 195.438 195.724 198.929 194.977 200.313L194.723 200.217C194.153 199.146 194.26 197.763 194.639 196.64C197.871 187.051 203.613 178.879 213.06 174.596C216.259 173.145 219.354 172.283 222.38 170.573C223.565 169.904 223.348 168.99 223.659 167.717Z"/><path fill="#E1607F" d="M201.371 206.88C201.556 206.662 202.023 206.254 202.253 206.039C202.775 207.308 205.379 212.568 205.071 213.457C203.238 211.904 202.131 209.116 201.371 206.88Z"/><path fill="#E1607F" d="M200.257 204.814C200.47 203.951 200.911 203.241 201.332 202.46C201.572 203.797 202.191 205.037 202.253 206.039C202.023 206.254 201.556 206.662 201.371 206.88C201.173 205.986 201.132 205.181 200.257 204.814Z"/><path fill="#80C1B8" d="M230.153 142.281L230.532 142.241C234.422 141.808 236.961 139.202 240.545 138.751C244.198 138.292 248.98 138.343 252.684 138.497C258.689 138.745 263.397 138.616 269.302 138.053C277.662 137.256 287.123 131.97 295.155 132.313C300.782 132.553 307.453 140.153 313.045 142.558C321.084 146.014 326.747 143.447 334.764 145.079C339.314 146.005 344.458 151.675 348.052 152.454C348.452 152.537 348.858 152.584 349.266 152.595C353.908 152.743 358.681 149.222 362.376 148.856C364.675 146.594 366.9 144.257 369.047 141.849C366.86 146.744 355.239 161.072 350.809 165.358C349.169 166.944 346.11 168.901 343.917 169.694C340.46 170.944 337.255 171.169 333.861 169.433C333.032 169.009 330.278 167.792 329.732 167.298C326.823 165.982 317.074 161.283 314.553 161.627C303.883 163.085 293.304 174.607 282.388 176.394C274.539 177.169 265.422 176.191 258.606 177.215C257.892 177.33 257.16 177.436 256.453 177.579C251.27 179.527 246.24 182.115 240.618 181.883C235.114 180.584 230.069 178.816 225.93 174.852C223.775 172.045 223.727 171.11 223.659 167.717C224.094 166.278 224.451 164.696 224.918 163.159C226.535 157.834 229.946 150.226 229.463 144.667C229.231 141.994 228.116 137.35 227.574 134.501L227.817 134.148C228.286 134.521 229.846 141.13 230.153 142.281Z"/><defs><linearGradient id="gradient_4" gradientUnits="userSpaceOnUse" x1="237.56747" y1="179.88962" x2="243.0092" y2="166.09897"><stop offset="0" stop-color="#A18589"/><stop offset="1" stop-color="#9C9B9A"/></linearGradient></defs><path fill="url(#gradient_4)" d="M223.659 167.717C224.094 166.278 224.451 164.696 224.918 163.159C226.535 157.834 229.946 150.226 229.463 144.667C229.231 141.994 228.116 137.35 227.574 134.501L227.817 134.148C228.286 134.521 229.846 141.13 230.153 142.281C231.332 150.49 228.259 155.242 226.112 163.213C227.467 163.773 230.973 163.55 232.672 163.75C243.669 165.044 250.682 167.401 258.057 175.702C257.571 175.921 256.587 176.33 256.188 176.598L256.453 177.579C251.27 179.527 246.24 182.115 240.618 181.883C235.114 180.584 230.069 178.816 225.93 174.852C223.775 172.045 223.727 171.11 223.659 167.717Z"/><path fill="#0B1F22" d="M223.659 167.717C224.094 166.278 224.451 164.696 224.918 163.159C226.535 157.834 229.946 150.226 229.463 144.667C229.231 141.994 228.116 137.35 227.574 134.501L227.817 134.148C228.286 134.521 229.846 141.13 230.153 142.281C231.332 150.49 228.259 155.242 226.112 163.213C225.228 166.65 224.584 168.863 225.046 172.476C228.166 177.179 232.812 179.227 238.201 180.42C244.748 181.869 250.266 179.186 256.188 176.598L256.453 177.579C251.27 179.527 246.24 182.115 240.618 181.883C235.114 180.584 230.069 178.816 225.93 174.852C223.775 172.045 223.727 171.11 223.659 167.717Z"/><path fill="#186E73" d="M369.047 141.849C366.86 146.744 355.239 161.072 350.809 165.358C349.169 166.944 346.11 168.901 343.917 169.694C340.46 170.944 337.255 171.169 333.861 169.433C333.032 169.009 330.278 167.792 329.732 167.298C329.971 166.762 329.907 166.758 329.783 166.167C335.367 166.68 338.701 169.086 344.857 166.862C351.186 164.575 354.233 160.316 358.12 155.085C359.619 153.068 361.245 151.074 362.376 148.856C364.675 146.594 366.9 144.257 369.047 141.849Z"/><path fill="#0B1F22" d="M282.614 175.244C292.262 172.854 300.268 166.118 309.189 161.984C316.717 158.495 322.483 163.155 329.783 166.167C329.907 166.758 329.971 166.762 329.732 167.298C326.823 165.982 317.074 161.283 314.553 161.627C303.883 163.085 293.304 174.607 282.388 176.394C282.417 176.092 282.548 175.561 282.614 175.244Z"/><defs><linearGradient id="gradient_5" gradientUnits="userSpaceOnUse" x1="269.83621" y1="178.08334" x2="269.15976" y2="174.2038"><stop offset="0" stop-color="#00535D"/><stop offset="1" stop-color="#227072"/></linearGradient></defs><path fill="url(#gradient_5)" d="M258.057 175.702C264.942 174.624 274.594 175.999 282.614 175.244C282.548 175.561 282.417 176.092 282.388 176.394C274.539 177.169 265.422 176.191 258.606 177.215C257.892 177.33 257.16 177.436 256.453 177.579L256.188 176.598C256.587 176.33 257.571 175.921 258.057 175.702Z"/><path fill="#80C1B8" d="M232.171 332.149C232.469 332.219 232.447 332.201 232.705 332.306C237.875 334.409 242.837 343.972 244.319 349.033C245.266 352.267 245.506 355.825 246.867 358.916C247.395 360.117 248.154 361.642 249.44 362.156C254.198 364.059 266.029 355.876 276.688 360.222C279.937 361.547 283.35 364.31 284.652 367.648C285.466 369.693 285.395 371.985 284.456 373.977C282.322 378.586 277.187 381.126 272.671 382.749C263.801 385.287 256.551 383.22 247.975 380.733C241.774 379.012 232.124 377.087 226.812 373.503C222.725 370.745 216.755 355.505 216.029 351.016C216.074 350.851 216.123 350.688 216.176 350.525C218.172 344.387 226.402 335.111 232.171 332.149Z"/><path fill="#80C1B8" d="M390.212 323.716C397.666 323.075 399.492 325.585 398.729 332.367C398.139 337.619 398.585 341.423 395.419 346.143C390.074 354.113 380.834 357.537 371.881 359.563C370.458 359.803 368.412 360.18 367.101 359.583C363.25 357.828 362.245 353.298 363.875 349.714C367.172 342.463 374.51 339.794 379.961 334.788C384.216 330.882 384.172 326.109 390.212 323.716Z"/><path fill="#186E73" d="M383.868 316.379C376.197 323.939 364.846 326.532 357.598 333.847C354.335 337.14 351.04 345.54 347.739 350C342.147 357.556 334.895 362.644 325.526 364.328C317.911 365.696 310.71 362.873 304.96 358.022C302.463 355.915 300.15 353.405 297.516 351.262C294.169 348.522 290.394 346.353 286.343 344.84C279.507 342.315 272.648 342.044 265.376 341.909C252.065 341.661 241.536 330.113 232.385 321.732C229.974 319.269 227.696 316.294 227.311 312.76C226.701 307.065 229.422 300.905 232.705 296.443C237.89 289.394 246.587 288.79 253.74 285.223C258.257 282.971 262.258 277.432 267.076 275.276C269.09 274.374 271.337 274.001 273.44 273.341C275.55 272.68 277.621 271.533 279.833 271.267C278.981 272.251 269.559 275.27 266.945 276.833C261.723 279.954 258.895 284.477 253.965 287.056C248.829 289.742 242.634 289.952 237.823 293.899C237.357 297.145 230.647 304.567 230.026 306.414C227.86 315.111 232.148 319.942 238.899 325.026C241.863 325.324 246.894 331.064 249.545 332.79C252.529 334.734 255.659 336.837 258.664 338.726C264.952 340.442 268.245 340.058 274.621 340.251C280.968 340.443 288.634 342.813 293.965 346.288C295.517 345.975 295.938 346.174 297.265 347.069C303.386 351.201 307.769 358.171 315.379 359.801C317.1 360.17 318.794 360.197 320.418 360.316C327.318 360.825 332.814 359.297 338.592 355.486C338.74 355.388 339.784 356.015 339.968 356.136C349.095 348.262 349.588 340.551 357.015 332.239C359.838 329.079 370.95 324.327 374.991 322.019C378.133 320.224 380.8 318.394 383.868 316.379Z"/><path fill="#80C1B8" d="M293.965 346.288C295.517 345.975 295.938 346.174 297.265 347.069C303.386 351.201 307.769 358.171 315.379 359.801C317.1 360.17 318.794 360.197 320.418 360.316C327.318 360.825 332.814 359.297 338.592 355.486C338.74 355.388 339.784 356.015 339.968 356.136C333.491 362.654 324.866 364.588 316.036 362.22C306.845 359.755 301.334 351.759 293.965 346.288Z"/><path fill="#80C1B8" d="M238.899 325.026C241.863 325.324 246.894 331.064 249.545 332.79C252.529 334.734 255.659 336.837 258.664 338.726C252.076 337.48 242.615 330.391 238.899 325.026Z"/><path fill="#80C1B8" d="M237.823 293.899C237.357 297.145 230.647 304.567 230.026 306.414C230.62 300.895 232.996 296.777 237.823 293.899Z"/><path fill="#80C1B8" d="M175.913 354.375C176.303 354.347 176.693 354.331 177.084 354.326C184.398 354.298 179.552 362.429 178.074 365.831C176.021 370.553 170.567 376.182 164.878 375.122C160.555 372.728 157.087 368.426 160.299 363.554C163.911 358.077 169.757 355.652 175.913 354.375Z"/><path fill="#80C1B8" d="M434.357 289.179C438.509 289.228 443.378 296.957 445.553 300.145C448.394 304.307 448.856 306.699 447.789 311.499C446.376 312.836 445.919 313.148 444.238 314.104C439.887 315.659 434.802 316.968 433.961 310.711C433.218 305.18 432.305 299.688 431.452 294.184C431.193 292.511 433.281 290.302 434.357 289.179Z"/></svg>