<?xml version="1.0" encoding="utf-8" ?><svg xmlns="http://www.w3.org/2000/svg" xmlns:xlink="http://www.w3.org/1999/xlink" width="430" height="439" viewBox="0 0 430 439"><path fill="#37627A" d="M207.903 22.8588C209.168 22.6723 214.767 22.674 216.332 22.6784C235.212 22.732 253.959 26.9587 272.113 31.8202C284.416 35.1147 295.057 40.6971 306.002 47.0075C336.025 64.3162 360.131 87.8078 377.201 118.135C397.903 154.915 406.613 201.222 399.501 243.058C397.99 251.803 395.954 260.449 393.405 268.949C392.059 273.53 390.47 278.06 389.183 282.64C376.096 280.972 362.75 276.914 349.555 275.536C334.625 274.039 319.578 276.84 306.187 283.608C272.894 300.07 255.379 340.364 266.972 375.679C268.8 381.245 271.127 385.842 273.708 391.06C266.692 392.926 259.548 394.852 252.498 396.52C247.606 397.677 242.523 398.302 237.573 399.181C233.836 399.585 229.775 400.08 226.04 400.328C177.154 403.221 129.083 386.829 92.148 354.672C53.8884 321.569 30.6748 274.376 27.8057 223.865C24.4345 172.05 40.7742 124.755 75.0925 85.797C86.8522 72.3919 100.557 60.8281 115.75 51.4918C124.811 45.8093 134.194 40.4753 144.088 36.3554C163.589 28.2354 186.897 24.1886 207.903 22.8588ZM110.261 150.085C104.449 148.557 98.3596 147.566 92.5012 146.178C87.8903 145.191 83.429 143.426 78.7028 143.05C75.7125 142.812 72.7832 146.172 72.0985 148.887C71.1976 152.461 73.8913 156.379 77.1774 157.672C80.3619 158.924 84.4694 159.26 87.8103 160.173C94.1865 161.857 100.257 163.331 106.694 164.676C108.777 172.8 111.998 181.51 113.702 189.658C112.4 192.483 110.382 194.822 109.013 197.423C105.708 203.697 98.3654 212.702 96.2233 219.269C100.031 226.895 107.019 233.998 112.242 240.818C115.117 244.573 119.229 249.627 122.813 252.546C130.614 252.511 146.91 243.574 155.394 240.353C158.717 241.958 166.215 247.293 169.591 249.603C172.965 251.912 181.231 256.976 183.853 259.345C184.561 265.542 184.675 271.806 185.176 278.012C185.663 281.741 185.008 290.872 188.086 293.219C192.677 296.719 199.237 296.873 204.763 298.549C207.86 299.489 217.8 301.843 220.309 303.324C221.166 303.83 223.501 311 224.008 312.449L227.368 321.445C229.252 326.49 232.568 338.558 240.628 335.612C242.977 334.753 244.749 331.577 245.769 329.357C243.567 321.874 239.821 313.791 237.206 306.331C236.194 303.446 234.59 299.944 233.966 297.017C235.51 293.594 237.338 291.15 239.287 288.06C243.307 281.69 248.655 274.304 251.197 267.279C247.467 260.684 229.186 238.077 223.313 234.407C217.398 235.864 212.715 237.881 207.064 240.16C201.78 242.291 196.853 244.235 191.738 246.749C187.537 244.124 183.039 240.941 178.747 238.259C174.832 235.812 166.185 230.678 163.188 227.841C161.996 220.167 162.527 210.391 161.69 202.443C161.63 201.876 161.836 200.806 162.228 200.436C164.67 197.638 167.525 195.16 170.024 192.404C174.847 187.084 180.644 182.117 184.735 176.193C183.476 168.882 181.297 161.747 179.087 154.671C177.461 149.468 175.935 140.824 172.552 136.705C166.607 134.567 158.424 132.614 152.323 130.918C148.807 129.941 137.328 126.975 133.875 126.946C125.361 133.465 117.743 142.427 110.261 150.085ZM242.96 104.02C248.585 106.727 253.964 110.751 259.439 113.808C261.165 114.771 263.2 115.894 264.786 117.051C264.668 125.607 264.503 133.866 264.492 142.448C261.174 144.012 257.401 146.443 254.142 148.294C248.04 151.759 238.308 155.652 234.598 161.748C236.201 172.296 238.522 182.822 240.347 193.342C240.926 196.679 242.168 200.661 243.885 203.576C249.786 205.389 258.858 205.288 265.212 206.642C269.369 207.528 273.86 207.439 278.199 208.636L278.315 208.667C281.447 211.757 287.833 221.91 290.865 226.12C293.834 230.416 296.171 234.263 300.796 236.878C306.218 236.713 337.823 234.629 340.65 231.658C343.978 228.161 355.777 200.942 357.96 194.841C352.057 184.609 340.885 168.224 333.103 159.448C322.678 159.665 310.26 161.512 299.697 162.72C295.841 159.685 292.188 155.949 288.576 152.58C286.167 150.333 281.16 146.428 279.364 143.99C278.838 136.169 279.568 127.574 279.507 119.662C279.483 116.582 279.782 112.967 279.238 109.929C279.112 109.224 278.341 108.641 277.9 108.202C275.222 105.531 245.287 87.617 243.066 87.1984C235.89 89.9981 229.349 94.2344 222.593 97.897C218.049 100.361 213.392 103.012 209.112 105.841C204.552 108.854 205.463 116.932 210.658 118.74C213.707 119.801 215.856 118.794 218.594 117.504C225.751 114.119 235.981 106.779 242.96 104.02Z"/><path fill="#37627A" d="M137.569 142.251C140.271 142.185 159.688 147.075 161.933 148.339C163.249 149.081 168.307 169.853 168.798 172.699C167.029 175.058 164.276 177.807 162.256 179.994C158.838 183.693 155.361 187.361 151.687 190.808C149.869 191.707 138.938 187.121 136.105 186.996C135.129 186.952 128.628 185.461 127.94 185.134C126.395 183.037 121.493 164.241 120.574 160.688C122.906 156.953 128.193 152.185 131.303 148.822C133.043 146.94 135.813 143.802 137.569 142.251Z"/><path fill="#37627A" d="M125.226 198.407C128.079 199.914 143.794 203.421 147.71 204.3C148.004 212.078 148.661 220.728 148.725 228.378C143.513 230.188 139.635 231.524 134.632 233.862C132.296 234.963 130.194 235.806 127.796 236.757C125.851 234.952 122.735 230.945 120.988 228.781C118.473 225.662 115.197 221.872 112.973 218.617C113.968 216.516 116.714 212.298 118.041 210.118C120.116 206.711 122.904 201.48 125.226 198.407Z"/><path fill="#37627A" d="M218.958 251.278L219.501 251.271C221.162 252.038 232.721 266.342 234.515 268.72C233.977 269.817 233.376 270.865 232.694 271.878C229.216 277.046 226.172 282.7 222.322 287.594C220.071 287.249 217.829 286.849 215.599 286.394C210.277 285.075 204.865 283.617 199.523 282.434C199.542 274.829 198.794 267.061 198.504 259.45C203.528 257.337 214.126 252.747 218.958 251.278Z"/><path fill="#37627A" d="M322.393 175.605L327.219 175.396C331.889 181.057 335.937 188.051 340.27 194.07C342.054 196.548 340.434 199.291 338.996 201.924C336.286 206.883 334.117 214.753 331.081 219.307C329.496 219.606 326.41 219.775 324.706 219.91L310.311 220.908C308.995 221.033 306.968 220.974 305.589 220.972C302.634 217.801 299.803 213.288 297.253 209.677C295.224 206.804 292.633 203.441 290.838 200.5C294.646 193.458 298.164 183.612 301.865 177.165C307.311 176.398 316.436 176.144 322.393 175.605Z"/><path fill="#37627A" d="M270.696 156.213C272.767 156.681 285.574 169.672 287.881 172.01C287.141 174.399 285.467 177.699 284.352 180.071L278.393 192.81C275.186 192.422 271.502 192.262 268.19 191.943C263.748 191.447 259.116 191.124 254.629 190.661C253.221 183.421 251.165 174.169 250.395 166.985C256.903 163.682 264.404 159.043 270.696 156.213Z"/><path fill="#9166A5" d="M340.747 284.88L341.314 285.054C341.613 286.208 341.523 299.971 341.544 302.462C334.003 302.625 326.988 303.917 320.106 307.146C308.745 312.478 298.164 323.768 294.041 335.737C289.494 348.673 290.334 362.893 296.373 375.204C308.534 399.88 338.561 410.749 363.378 398.317C375.475 392.248 384.681 381.642 388.987 368.811C392.91 357.305 392.411 344.751 387.587 333.593C386.083 330.082 384.065 326.766 382.329 323.344C381.028 324.867 378.78 326.613 377.268 328.105C373.756 331.566 370.278 335.022 366.647 338.359C366.1 334.114 364.438 326.371 363.52 322.001C360.992 309.961 358.98 298.645 356.946 286.572C359.467 287.279 368.813 288.647 371.888 289.211C381.142 290.956 390.371 292.835 399.571 294.847C402.473 295.425 405.52 296.267 408.444 296.443C405.265 300.58 398.39 306.835 394.511 310.527C396.369 312.718 397.808 315.32 399.316 317.747C405.039 326.961 408.17 336.178 409.097 347.037C410.604 365.091 404.902 383.008 393.237 396.87C381.292 411.013 364.168 419.766 345.708 421.162C327.654 422.553 310.237 416.001 296.728 404.287C257.093 369.92 270.021 305.227 319.539 288.529C326.984 286.019 332.94 285.416 340.747 284.88Z"/></svg>